<?xml version="1.0" standalone="yes"?>

<svg version="1.1" viewBox="0.0 0.0 866.1653543307086 274.36745406824144" fill="none" stroke="none" stroke-linecap="square" stroke-miterlimit="10" xmlns="http://www.w3.org/2000/svg" xmlns:xlink="http://www.w3.org/1999/xlink"><clipPath id="p.0"><path d="m0 0l866.16534 0l0 274.36746l-866.16534 0l0 -274.36746z" clip-rule="nonzero"></path></clipPath><g clip-path="url(#p.0)"><path fill="#000000" fill-opacity="0.0" d="m0 0l866.16534 0l0 274.36746l-866.16534 0z" fill-rule="nonzero"></path><path fill="#a2c4c9" d="m32.0 22.771654l227.59055 0l0 73.22835l-227.59055 0z" fill-rule="nonzero"></path><path stroke="#45818e" stroke-width="4.0" stroke-linejoin="round" stroke-linecap="butt" d="m32.0 22.771654l227.59055 0l0 73.22835l-227.59055 0z" fill-rule="nonzero"></path><path fill="#000000" d="m90.03816 66.305824l0 -13.59375l2.515625 0l0 5.5625l6.140625 0l0 -5.5625l2.515625 0l0 13.59375l-2.515625 0l0 -6.046875l-6.140625 0l0 6.046875l-2.515625 0zm16.29956 0.1875q-1.421875 0 -2.296875 -0.78125q-0.875 -0.78125 -0.875 -2.25q0 -1.59375 1.03125 -2.359375q1.046875 -0.765625 3.140625 -0.96875q0.296875 -0.03125 0.625 -0.0625q0.328125 -0.046875 0.75 -0.078125q0.421875 -0.046875 0.65625 -0.078125l0 -0.53125q0 -0.921875 -0.421875 -1.34375q-0.421875 -0.421875 -1.296875 -0.421875q-1.25 0 -3.078125 0.6875q0 -0.03125 -0.296875 -0.84375q-0.296875 -0.8125 -0.3125 -0.828125q1.796875 -0.78125 3.90625 -0.78125q2.046875 0 2.984375 0.90625q0.9375 0.890625 0.9375 2.890625l0 6.65625l-1.796875 0q0 -0.03125 -0.203125 -0.609375q-0.1875 -0.59375 -0.1875 -0.640625q-0.765625 0.75 -1.5 1.09375q-0.71875 0.34375 -1.765625 0.34375zm0.65625 -1.71875q0.84375 0 1.46875 -0.40625q0.640625 -0.40625 0.90625 -0.96875l0 -1.96875q-0.03125 0 -0.5 0.03125q-0.453125 0.03125 -0.484375 0.03125q-1.484375 0.140625 -2.171875 0.5625q-0.671875 0.421875 -0.671875 1.375q0 0.640625 0.375 1.0q0.375 0.34375 1.078125 0.34375zm10.309296 1.71875q-2.25 0 -3.609375 -0.765625l0.25 -1.828125q0.625 0.328125 1.5625 0.59375q0.953125 0.265625 1.734375 0.265625q0.796875 0 1.25 -0.296875q0.453125 -0.3125 0.453125 -0.890625q0 -0.53125 -0.421875 -0.828125q-0.421875 -0.3125 -1.609375 -0.765625q-0.40625 -0.15625 -0.515625 -0.203125q-1.421875 -0.546875 -2.046875 -1.21875q-0.609375 -0.671875 -0.609375 -1.828125q0 -1.390625 1.0 -2.125q1.015625 -0.75 2.8125 -0.75q1.953125 0 3.421875 0.734375l-0.609375 1.6875q-1.453125 -0.6875 -2.765625 -0.6875q-0.734375 0 -1.15625 0.25q-0.40625 0.25 -0.40625 0.75q0 0.46875 0.390625 0.734375q0.40625 0.265625 1.5625 0.6875q0.046875 0.015625 0.25 0.09375q0.203125 0.078125 0.3125 0.109375q1.40625 0.515625 2.0625 1.234375q0.65625 0.703125 0.65625 1.84375q-0.015625 1.53125 -1.046875 2.375q-1.015625 0.828125 -2.921875 0.828125zm5.7228546 -0.1875l0 -13.953125l2.4375 -0.15625l0 6.265625l-0.0625 2.046875q0.015625 0 0.1875 -0.171875q0.1875 -0.1875 0.203125 -0.203125q0.515625 -0.59375 1.109375 -1.234375q0.59375 -0.640625 1.5 -1.5625q0.921875 -0.9375 1.203125 -1.234375l2.890625 0l-4.1875 4.34375l4.453125 5.859375l-2.9375 0l-3.359375 -4.625l-1.0 0.796875l0 3.828125l-2.4375 0zm15.40419 0.1875q-2.46875 0 -3.84375 -1.40625q-1.359375 -1.421875 -1.359375 -3.90625q0 -2.4375 1.28125 -3.875q1.296875 -1.4375 3.53125 -1.453125q2.09375 0 3.25 1.328125q1.171875 1.3125 1.171875 3.5q0 0.15625 0 0.515625q0 0.34375 0 0.5l-6.78125 0q0.03125 1.4375 0.78125 2.21875q0.75 0.78125 2.0625 0.78125q1.65625 0 3.203125 -0.875l0.34375 1.734375q-1.53125 0.9375 -3.640625 0.9375zm-2.703125 -6.3125l4.453125 0q0 -1.25 -0.578125 -1.921875q-0.5625 -0.671875 -1.5625 -0.671875q-0.9375 0 -1.578125 0.65625q-0.640625 0.65625 -0.734375 1.9375zm12.102188 6.265625q-1.0625 0 -1.75 -0.25q-0.6875 -0.25 -1.09375 -0.78125q-0.390625 -0.53125 -0.546875 -1.265625q-0.15625 -0.75 -0.15625 -1.859375l0 -9.9375l2.421875 -0.15625l0 10.046875q0 1.375 0.328125 1.859375q0.328125 0.484375 1.265625 0.484375q0.46875 0 1.171875 -0.09375l0.0625 1.734375q0 0 -0.21875 0.046875q-0.21875 0.046875 -0.421875 0.078125q-0.203125 0.03125 -0.515625 0.0625q-0.296875 0.03125 -0.546875 0.03125zm6.376648 0q-1.0625 0 -1.75 -0.25q-0.6875 -0.25 -1.09375 -0.78125q-0.390625 -0.53125 -0.546875 -1.265625q-0.15625 -0.75 -0.15625 -1.859375l0 -9.9375l2.421875 -0.15625l0 10.046875q0 1.375 0.328125 1.859375q0.328125 0.484375 1.265625 0.484375q0.46875 0 1.171875 -0.09375l0.0625 1.734375q0 0 -0.21875 0.046875q-0.21875 0.046875 -0.421875 0.078125q-0.203125 0.03125 -0.515625 0.0625q-0.296875 0.03125 -0.546875 0.03125zm12.195511 0.046875q-2.34375 0 -3.65625 -1.390625q-1.296875 -1.390625 -1.296875 -3.96875q0 -2.515625 1.359375 -3.890625q1.375 -1.390625 3.609375 -1.390625q1.796875 0 3.03125 0.78125l-0.578125 1.734375q-1.265625 -0.65625 -2.34375 -0.65625q-1.234375 0 -1.953125 0.875q-0.703125 0.875 -0.703125 2.5625q0 1.71875 0.703125 2.609375q0.703125 0.890625 1.984375 0.890625q1.328125 0 2.5625 -0.796875l0.234375 1.84375q-0.640625 0.4375 -1.328125 0.609375q-0.6875 0.1875 -1.625 0.1875zm9.151123 -1.84375q1.234375 0 1.859375 -0.890625q0.625 -0.90625 0.625 -2.578125q0 -1.703125 -0.625 -2.59375q-0.625 -0.890625 -1.875 -0.890625q-1.234375 0 -1.859375 0.90625q-0.625 0.890625 -0.625 2.578125q0 1.671875 0.625 2.578125q0.640625 0.890625 1.875 0.890625zm-0.0625 1.84375q-2.265625 0 -3.5625 -1.453125q-1.296875 -1.46875 -1.296875 -3.859375q0 -2.46875 1.296875 -3.890625q1.296875 -1.4375 3.671875 -1.4375q2.28125 0 3.5625 1.453125q1.296875 1.453125 1.296875 3.875q0 2.4375 -1.3125 3.875q-1.296875 1.4375 -3.65625 1.4375zm10.55368 0q-2.0 0 -3.140625 -1.453125q-1.140625 -1.46875 -1.140625 -3.921875q0 -2.375 1.140625 -3.8125q1.140625 -1.453125 3.125 -1.453125q2.171875 0 3.078125 1.546875q-0.09375 -0.90625 -0.09375 -1.75l0 -3.296875l2.421875 -0.15625l0 14.109375l-2.09375 0l-0.28125 -1.390625q-0.15625 0.25 -0.296875 0.4375q-0.125 0.171875 -0.390625 0.40625q-0.25 0.234375 -0.5625 0.390625q-0.296875 0.140625 -0.765625 0.234375q-0.453125 0.109375 -1.0 0.109375zm0.578125 -1.84375q2.4375 0 2.484375 -3.328125q0 -1.875 -0.640625 -2.734375q-0.625 -0.875 -1.875 -0.875q-1.09375 0 -1.75 0.875q-0.65625 0.875 -0.65625 2.59375q0 1.6875 0.65625 2.578125q0.65625 0.890625 1.78125 0.890625zm11.812607 1.84375q-2.46875 0 -3.84375 -1.40625q-1.359375 -1.421875 -1.359375 -3.90625q0 -2.4375 1.28125 -3.875q1.296875 -1.4375 3.53125 -1.453125q2.09375 0 3.25 1.328125q1.171875 1.3125 1.171875 3.5q0 0.15625 0 0.515625q0 0.34375 0 0.5l-6.78125 0q0.03125 1.4375 0.78125 2.21875q0.75 0.78125 2.0625 0.78125q1.65625 0 3.203125 -0.875l0.34375 1.734375q-1.53125 0.9375 -3.640625 0.9375zm-2.703125 -6.3125l4.453125 0q0 -1.25 -0.578125 -1.921875q-0.5625 -0.671875 -1.5625 -0.671875q-0.9375 0 -1.578125 0.65625q-0.640625 0.65625 -0.734375 1.9375z" fill-rule="nonzero"></path><path fill="#f9cb9c" d="m32.0 184.0l227.59055 0l0 73.22833l-227.59055 0z" fill-rule="nonzero"></path><path stroke="#e69138" stroke-width="4.0" stroke-linejoin="round" stroke-linecap="butt" d="m32.0 184.0l227.59055 0l0 73.22833l-227.59055 0z" fill-rule="nonzero"></path><path fill="#000000" d="m90.19758 227.53416l0 -13.59375l8.046875 0l-0.09375 2.0l-5.453125 0l0 3.859375l5.171875 0l0 1.96875l-5.171875 0l0 5.765625l-2.5 0zm14.2509 -1.65625q1.234375 0 1.859375 -0.890625q0.625 -0.90625 0.625 -2.578125q0 -1.703125 -0.625 -2.59375q-0.625 -0.890625 -1.875 -0.890625q-1.234375 0 -1.859375 0.90625q-0.625 0.890625 -0.625 2.578125q0 1.671875 0.625 2.578125q0.640625 0.890625 1.875 0.890625zm-0.0625 1.84375q-2.265625 0 -3.5625 -1.453125q-1.296875 -1.46875 -1.296875 -3.859375q0 -2.46875 1.296875 -3.890625q1.296875 -1.4375 3.671875 -1.4375q2.28125 0 3.5625 1.453125q1.296875 1.453125 1.296875 3.875q0 2.4375 -1.3125 3.875q-1.296875 1.4375 -3.65625 1.4375zm6.7724304 -0.1875l0 -10.203125l2.03125 0l0.3125 1.5625q1.015625 -1.609375 2.90625 -1.609375q0.40625 0 0.65625 0.046875l-0.046875 2.03125q-0.359375 -0.0625 -0.765625 -0.0625q-1.34375 0 -2.015625 0.71875q-0.65625 0.71875 -0.65625 1.984375l0 5.53125l-2.421875 0zm11.972504 0.1875q-2.46875 0 -3.84375 -1.40625q-1.359375 -1.421875 -1.359375 -3.90625q0 -2.4375 1.28125 -3.875q1.296875 -1.4375 3.53125 -1.453125q2.09375 0 3.25 1.328125q1.171875 1.3125 1.171875 3.5q0 0.15625 0 0.515625q0 0.34375 0 0.5l-6.78125 0q0.03125 1.4375 0.78125 2.21875q0.75 0.78125 2.0625 0.78125q1.65625 0 3.203125 -0.875l0.34375 1.734375q-1.53125 0.9375 -3.640625 0.9375zm-2.703125 -6.3125l4.453125 0q0 -1.25 -0.578125 -1.921875q-0.5625 -0.671875 -1.5625 -0.671875q-0.9375 0 -1.578125 0.65625q-0.640625 0.65625 -0.734375 1.9375zm8.5865555 6.125l0 -10.203125l2.421875 0l0 10.203125l-2.421875 0zm0 -11.6875l0 -2.078125l2.4375 0l0 2.078125l-2.4375 0zm6.912628 16.25l-0.140625 -1.96875l1.234375 0q2.140625 0 2.984375 -0.578125q0.859375 -0.5625 0.859375 -2.078125q0 -0.625 -0.046875 -1.34375q-0.25 0.328125 -0.46875 0.546875q-0.21875 0.21875 -0.546875 0.4375q-0.328125 0.203125 -0.796875 0.3125q-0.453125 0.109375 -1.03125 0.109375q-2.03125 0 -3.328125 -1.453125q-1.296875 -1.453125 -1.296875 -3.765625q0 -1.21875 0.359375 -2.21875q0.359375 -1.015625 0.96875 -1.65625q0.625 -0.65625 1.4375 -1.0q0.8125 -0.359375 1.734375 -0.359375q2.046875 0 3.046875 1.5l0.171875 -1.25l2.171875 0l0 9.484375q0 0.75 -0.078125 1.359375q-0.0625 0.609375 -0.25 1.171875q-0.1875 0.5625 -0.5 0.96875q-0.296875 0.421875 -0.75 0.765625q-0.453125 0.34375 -1.078125 0.5625q-0.609375 0.21875 -1.421875 0.328125q-0.8125 0.125 -1.84375 0.125l-1.390625 0zm2.4375 -6.265625q2.515625 0 2.53125 -3.359375l0 -0.359375q-0.015625 -1.515625 -0.625 -2.328125q-0.609375 -0.828125 -1.796875 -0.84375q-1.328125 0 -2.015625 0.921875q-0.6875 0.90625 -0.6875 2.453125q0 1.5 0.6875 2.515625q0.703125 1.0 1.90625 1.0zm7.0573425 1.703125l0 -10.203125l1.953125 0l0.265625 1.296875q1.5625 -1.546875 3.46875 -1.546875q1.78125 0 2.65625 1.03125q0.890625 1.03125 0.890625 2.96875l0 6.453125l-2.4375 0l0 -6.15625q0 -1.234375 -0.390625 -1.84375q-0.390625 -0.609375 -1.40625 -0.609375q-0.78125 0 -1.4375 0.40625q-0.65625 0.40625 -0.953125 1.015625q-0.171875 0.71875 -0.171875 2.21875l0 4.96875l-2.4375 0zm20.820312 0.1875q-2.34375 0 -3.65625 -1.390625q-1.296875 -1.390625 -1.296875 -3.96875q0 -2.515625 1.359375 -3.890625q1.375 -1.390625 3.609375 -1.390625q1.796875 0 3.03125 0.78125l-0.578125 1.734375q-1.265625 -0.65625 -2.34375 -0.65625q-1.234375 0 -1.953125 0.875q-0.703125 0.875 -0.703125 2.5625q0 1.71875 0.703125 2.609375q0.703125 0.890625 1.984375 0.890625q1.328125 0 2.5625 -0.796875l0.234375 1.84375q-0.640625 0.4375 -1.328125 0.609375q-0.6875 0.1875 -1.625 0.1875zm9.151123 -1.84375q1.234375 0 1.859375 -0.890625q0.625 -0.90625 0.625 -2.578125q0 -1.703125 -0.625 -2.59375q-0.625 -0.890625 -1.875 -0.890625q-1.234375 0 -1.859375 0.90625q-0.625 0.890625 -0.625 2.578125q0 1.671875 0.625 2.578125q0.640625 0.890625 1.875 0.890625zm-0.0625 1.84375q-2.265625 0 -3.5625 -1.453125q-1.296875 -1.46875 -1.296875 -3.859375q0 -2.46875 1.296875 -3.890625q1.296875 -1.4375 3.671875 -1.4375q2.28125 0 3.5625 1.453125q1.296875 1.453125 1.296875 3.875q0 2.4375 -1.3125 3.875q-1.296875 1.4375 -3.65625 1.4375zm10.55368 0q-2.0 0 -3.140625 -1.453125q-1.140625 -1.46875 -1.140625 -3.921875q0 -2.375 1.140625 -3.8125q1.140625 -1.453125 3.125 -1.453125q2.171875 0 3.078125 1.546875q-0.09375 -0.90625 -0.09375 -1.75l0 -3.296875l2.421875 -0.15625l0 14.109375l-2.09375 0l-0.28125 -1.390625q-0.15625 0.25 -0.296875 0.4375q-0.125 0.171875 -0.390625 0.40625q-0.25 0.234375 -0.5625 0.390625q-0.296875 0.140625 -0.765625 0.234375q-0.453125 0.109375 -1.0 0.109375zm0.578125 -1.84375q2.4375 0 2.484375 -3.328125q0 -1.875 -0.640625 -2.734375q-0.625 -0.875 -1.875 -0.875q-1.09375 0 -1.75 0.875q-0.65625 0.875 -0.65625 2.59375q0 1.6875 0.65625 2.578125q0.65625 0.890625 1.78125 0.890625zm11.812592 1.84375q-2.46875 0 -3.84375 -1.40625q-1.359375 -1.421875 -1.359375 -3.90625q0 -2.4375 1.28125 -3.875q1.296875 -1.4375 3.53125 -1.453125q2.09375 0 3.25 1.328125q1.171875 1.3125 1.171875 3.5q0 0.15625 0 0.515625q0 0.34375 0 0.5l-6.78125 0q0.03125 1.4375 0.78125 2.21875q0.75 0.78125 2.0625 0.78125q1.65625 0 3.203125 -0.875l0.34375 1.734375q-1.53125 0.9375 -3.640625 0.9375zm-2.703125 -6.3125l4.453125 0q0 -1.25 -0.578125 -1.921875q-0.5625 -0.671875 -1.5625 -0.671875q-0.9375 0 -1.578125 0.65625q-0.640625 0.65625 -0.734375 1.9375z" fill-rule="nonzero"></path><path fill="#f9cb9c" d="m611.5906 22.771654l227.59052 0l0 73.22835l-227.59052 0z" fill-rule="nonzero"></path><path stroke="#e69138" stroke-width="4.0" stroke-linejoin="round" stroke-linecap="butt" d="m611.5906 22.771654l227.59052 0l0 73.22835l-227.59052 0z" fill-rule="nonzero"></path><path fill="#000000" d="m669.78815 66.305824l0 -13.59375l8.046875 0l-0.09375 2.0l-5.453125 0l0 3.859375l5.171875 0l0 1.96875l-5.171875 0l0 5.765625l-2.5 0zm14.2508545 -1.65625q1.234375 0 1.859375 -0.890625q0.625 -0.90625 0.625 -2.578125q0 -1.703125 -0.625 -2.59375q-0.625 -0.890625 -1.875 -0.890625q-1.234375 0 -1.859375 0.90625q-0.625 0.890625 -0.625 2.578125q0 1.671875 0.625 2.578125q0.640625 0.890625 1.875 0.890625zm-0.0625 1.84375q-2.265625 0 -3.5625 -1.453125q-1.296875 -1.46875 -1.296875 -3.859375q0 -2.46875 1.296875 -3.890625q1.296875 -1.4375 3.671875 -1.4375q2.28125 0 3.5625 1.453125q1.296875 1.453125 1.296875 3.875q0 2.4375 -1.3125 3.875q-1.296875 1.4375 -3.65625 1.4375zm6.772461 -0.1875l0 -10.203125l2.03125 0l0.3125 1.5625q1.015625 -1.609375 2.90625 -1.609375q0.40625 0 0.65625 0.046875l-0.046875 2.03125q-0.359375 -0.0625 -0.765625 -0.0625q-1.34375 0 -2.015625 0.71875q-0.65625 0.71875 -0.65625 1.984375l0 5.53125l-2.421875 0zm11.972473 0.1875q-2.46875 0 -3.84375 -1.40625q-1.359375 -1.421875 -1.359375 -3.90625q0 -2.4375 1.28125 -3.875q1.296875 -1.4375 3.53125 -1.453125q2.09375 0 3.25 1.328125q1.171875 1.3125 1.171875 3.5q0 0.15625 0 0.515625q0 0.34375 0 0.5l-6.78125 0q0.03125 1.4375 0.78125 2.21875q0.75 0.78125 2.0625 0.78125q1.65625 0 3.203125 -0.875l0.34375 1.734375q-1.53125 0.9375 -3.640625 0.9375zm-2.703125 -6.3125l4.453125 0q0 -1.25 -0.578125 -1.921875q-0.5625 -0.671875 -1.5625 -0.671875q-0.9375 0 -1.578125 0.65625q-0.640625 0.65625 -0.734375 1.9375zm8.586609 6.125l0 -10.203125l2.421875 0l0 10.203125l-2.421875 0zm0 -11.6875l0 -2.078125l2.4375 0l0 2.078125l-2.4375 0zm6.9125977 16.25l-0.140625 -1.96875l1.234375 0q2.140625 0 2.984375 -0.578125q0.859375 -0.5625 0.859375 -2.078125q0 -0.625 -0.046875 -1.34375q-0.25 0.328125 -0.46875 0.546875q-0.21875 0.21875 -0.546875 0.4375q-0.328125 0.203125 -0.796875 0.3125q-0.453125 0.109375 -1.03125 0.109375q-2.03125 0 -3.328125 -1.453125q-1.296875 -1.453125 -1.296875 -3.765625q0 -1.21875 0.359375 -2.21875q0.359375 -1.015625 0.96875 -1.65625q0.625 -0.65625 1.4375 -1.0q0.8125 -0.359375 1.734375 -0.359375q2.046875 0 3.046875 1.5l0.171875 -1.25l2.171875 0l0 9.484375q0 0.75 -0.078125 1.359375q-0.0625 0.609375 -0.25 1.171875q-0.1875 0.5625 -0.5 0.96875q-0.296875 0.421875 -0.75 0.765625q-0.453125 0.34375 -1.078125 0.5625q-0.609375 0.21875 -1.421875 0.328125q-0.8125 0.125 -1.84375 0.125l-1.390625 0zm2.4375 -6.265625q2.515625 0 2.53125 -3.359375l0 -0.359375q-0.015625 -1.515625 -0.625 -2.328125q-0.609375 -0.828125 -1.796875 -0.84375q-1.328125 0 -2.015625 0.921875q-0.6875 0.90625 -0.6875 2.453125q0 1.5 0.6875 2.515625q0.703125 1.0 1.90625 1.0zm7.057373 1.703125l0 -10.203125l1.953125 0l0.265625 1.296875q1.5625 -1.546875 3.46875 -1.546875q1.78125 0 2.65625 1.03125q0.890625 1.03125 0.890625 2.96875l0 6.453125l-2.4375 0l0 -6.15625q0 -1.234375 -0.390625 -1.84375q-0.390625 -0.609375 -1.40625 -0.609375q-0.78125 0 -1.4375 0.40625q-0.65625 0.40625 -0.953125 1.015625q-0.171875 0.71875 -0.171875 2.21875l0 4.96875l-2.4375 0zm20.820312 0.1875q-2.34375 0 -3.65625 -1.390625q-1.296875 -1.390625 -1.296875 -3.96875q0 -2.515625 1.359375 -3.890625q1.375 -1.390625 3.609375 -1.390625q1.796875 0 3.03125 0.78125l-0.578125 1.734375q-1.265625 -0.65625 -2.34375 -0.65625q-1.234375 0 -1.953125 0.875q-0.703125 0.875 -0.703125 2.5625q0 1.71875 0.703125 2.609375q0.703125 0.890625 1.984375 0.890625q1.328125 0 2.5625 -0.796875l0.234375 1.84375q-0.640625 0.4375 -1.328125 0.609375q-0.6875 0.1875 -1.625 0.1875zm9.151123 -1.84375q1.234375 0 1.859375 -0.890625q0.625 -0.90625 0.625 -2.578125q0 -1.703125 -0.625 -2.59375q-0.625 -0.890625 -1.875 -0.890625q-1.234375 0 -1.859375 0.90625q-0.625 0.890625 -0.625 2.578125q0 1.671875 0.625 2.578125q0.640625 0.890625 1.875 0.890625zm-0.0625 1.84375q-2.265625 0 -3.5625 -1.453125q-1.296875 -1.46875 -1.296875 -3.859375q0 -2.46875 1.296875 -3.890625q1.296875 -1.4375 3.671875 -1.4375q2.28125 0 3.5625 1.453125q1.296875 1.453125 1.296875 3.875q0 2.4375 -1.3125 3.875q-1.296875 1.4375 -3.65625 1.4375zm10.55365 0q-2.0 0 -3.140625 -1.453125q-1.140625 -1.46875 -1.140625 -3.921875q0 -2.375 1.140625 -3.8125q1.140625 -1.453125 3.125 -1.453125q2.171875 0 3.078125 1.546875q-0.09375 -0.90625 -0.09375 -1.75l0 -3.296875l2.421875 -0.15625l0 14.109375l-2.09375 0l-0.28125 -1.390625q-0.15625 0.25 -0.296875 0.4375q-0.125 0.171875 -0.390625 0.40625q-0.25 0.234375 -0.5625 0.390625q-0.296875 0.140625 -0.765625 0.234375q-0.453125 0.109375 -1.0 0.109375zm0.578125 -1.84375q2.4375 0 2.484375 -3.328125q0 -1.875 -0.640625 -2.734375q-0.625 -0.875 -1.875 -0.875q-1.09375 0 -1.75 0.875q-0.65625 0.875 -0.65625 2.59375q0 1.6875 0.65625 2.578125q0.65625 0.890625 1.78125 0.890625zm11.812622 1.84375q-2.46875 0 -3.84375 -1.40625q-1.359375 -1.421875 -1.359375 -3.90625q0 -2.4375 1.28125 -3.875q1.296875 -1.4375 3.53125 -1.453125q2.09375 0 3.25 1.328125q1.171875 1.3125 1.171875 3.5q0 0.15625 0 0.515625q0 0.34375 0 0.5l-6.78125 0q0.03125 1.4375 0.78125 2.21875q0.75 0.78125 2.0625 0.78125q1.65625 0 3.203125 -0.875l0.34375 1.734375q-1.53125 0.9375 -3.640625 0.9375zm-2.703125 -6.3125l4.453125 0q0 -1.25 -0.578125 -1.921875q-0.5625 -0.671875 -1.5625 -0.671875q-0.9375 0 -1.578125 0.65625q-0.640625 0.65625 -0.734375 1.9375z" fill-rule="nonzero"></path><path fill="#f9cb9c" d="m320.0 22.771654l227.59058 0l0 71.244095l-227.59058 0z" fill-rule="nonzero"></path><path stroke="#e69138" stroke-width="4.0" stroke-linejoin="round" stroke-linecap="butt" d="m320.0 22.771654l227.59058 0l0 71.244095l-227.59058 0z" fill-rule="nonzero"></path><path fill="#000000" d="m378.19757 65.3137l0 -13.59375l8.046875 0l-0.09375 2.0l-5.453125 0l0 3.859375l5.171875 0l0 1.96875l-5.171875 0l0 5.765625l-2.5 0zm14.250916 -1.65625q1.234375 0 1.859375 -0.890625q0.625 -0.90625 0.625 -2.578125q0 -1.703125 -0.625 -2.59375q-0.625 -0.890625 -1.875 -0.890625q-1.234375 0 -1.859375 0.90625q-0.625 0.890625 -0.625 2.578125q0 1.671875 0.625 2.578125q0.640625 0.890625 1.875 0.890625zm-0.0625 1.84375q-2.265625 0 -3.5625 -1.453125q-1.296875 -1.46875 -1.296875 -3.859375q0 -2.46875 1.296875 -3.890625q1.296875 -1.4375 3.671875 -1.4375q2.28125 0 3.5625 1.453125q1.296875 1.453125 1.296875 3.875q0 2.4375 -1.3125 3.875q-1.296875 1.4375 -3.65625 1.4375zm6.7724304 -0.1875l0 -10.203125l2.03125 0l0.3125 1.5625q1.015625 -1.609375 2.90625 -1.609375q0.40625 0 0.65625 0.046875l-0.046875 2.03125q-0.359375 -0.0625 -0.765625 -0.0625q-1.34375 0 -2.015625 0.71875q-0.65625 0.71875 -0.65625 1.984375l0 5.53125l-2.421875 0zm11.972504 0.1875q-2.46875 0 -3.84375 -1.40625q-1.359375 -1.421875 -1.359375 -3.90625q0 -2.4375 1.28125 -3.875q1.296875 -1.4375 3.53125 -1.453125q2.09375 0 3.25 1.328125q1.171875 1.3125 1.171875 3.5q0 0.15625 0 0.515625q0 0.34375 0 0.5l-6.78125 0q0.03125 1.4375 0.78125 2.21875q0.75 0.78125 2.0625 0.78125q1.65625 0 3.203125 -0.875l0.34375 1.734375q-1.53125 0.9375 -3.640625 0.9375zm-2.703125 -6.3125l4.453125 0q0 -1.25 -0.578125 -1.921875q-0.5625 -0.671875 -1.5625 -0.671875q-0.9375 0 -1.578125 0.65625q-0.640625 0.65625 -0.734375 1.9375zm8.586548 6.125l0 -10.203125l2.421875 0l0 10.203125l-2.421875 0zm0 -11.6875l0 -2.078125l2.4375 0l0 2.078125l-2.4375 0zm6.912628 16.25l-0.140625 -1.96875l1.234375 0q2.140625 0 2.984375 -0.578125q0.859375 -0.5625 0.859375 -2.078125q0 -0.625 -0.046875 -1.34375q-0.25 0.328125 -0.46875 0.546875q-0.21875 0.21875 -0.546875 0.4375q-0.328125 0.203125 -0.796875 0.3125q-0.453125 0.109375 -1.03125 0.109375q-2.03125 0 -3.328125 -1.453125q-1.296875 -1.453125 -1.296875 -3.765625q0 -1.21875 0.359375 -2.21875q0.359375 -1.015625 0.96875 -1.65625q0.625 -0.65625 1.4375 -1.0q0.8125 -0.359375 1.734375 -0.359375q2.046875 0 3.046875 1.5l0.171875 -1.25l2.171875 0l0 9.484375q0 0.75 -0.078125 1.359375q-0.0625 0.609375 -0.25 1.171875q-0.1875 0.5625 -0.5 0.96875q-0.296875 0.421875 -0.75 0.765625q-0.453125 0.34375 -1.078125 0.5625q-0.609375 0.21875 -1.421875 0.328125q-0.8125 0.125 -1.84375 0.125l-1.390625 0zm2.4375 -6.265625q2.515625 0 2.53125 -3.359375l0 -0.359375q-0.015625 -1.515625 -0.625 -2.328125q-0.609375 -0.828125 -1.796875 -0.84375q-1.328125 0 -2.015625 0.921875q-0.6875 0.90625 -0.6875 2.453125q0 1.5 0.6875 2.515625q0.703125 1.0 1.90625 1.0zm7.0573425 1.703125l0 -10.203125l1.953125 0l0.265625 1.296875q1.5625 -1.546875 3.46875 -1.546875q1.78125 0 2.65625 1.03125q0.890625 1.03125 0.890625 2.96875l0 6.453125l-2.4375 0l0 -6.15625q0 -1.234375 -0.390625 -1.84375q-0.390625 -0.609375 -1.40625 -0.609375q-0.78125 0 -1.4375 0.40625q-0.65625 0.40625 -0.953125 1.015625q-0.171875 0.71875 -0.171875 2.21875l0 4.96875l-2.4375 0zm20.820312 0.1875q-2.34375 0 -3.65625 -1.390625q-1.296875 -1.390625 -1.296875 -3.96875q0 -2.515625 1.359375 -3.890625q1.375 -1.390625 3.609375 -1.390625q1.796875 0 3.03125 0.78125l-0.578125 1.734375q-1.265625 -0.65625 -2.34375 -0.65625q-1.234375 0 -1.953125 0.875q-0.703125 0.875 -0.703125 2.5625q0 1.71875 0.703125 2.609375q0.703125 0.890625 1.984375 0.890625q1.328125 0 2.5625 -0.796875l0.234375 1.84375q-0.640625 0.4375 -1.328125 0.609375q-0.6875 0.1875 -1.625 0.1875zm9.151123 -1.84375q1.234375 0 1.859375 -0.890625q0.625 -0.90625 0.625 -2.578125q0 -1.703125 -0.625 -2.59375q-0.625 -0.890625 -1.875 -0.890625q-1.234375 0 -1.859375 0.90625q-0.625 0.890625 -0.625 2.578125q0 1.671875 0.625 2.578125q0.640625 0.890625 1.875 0.890625zm-0.0625 1.84375q-2.265625 0 -3.5625 -1.453125q-1.296875 -1.46875 -1.296875 -3.859375q0 -2.46875 1.296875 -3.890625q1.296875 -1.4375 3.671875 -1.4375q2.28125 0 3.5625 1.453125q1.296875 1.453125 1.296875 3.875q0 2.4375 -1.3125 3.875q-1.296875 1.4375 -3.65625 1.4375zm10.55368 0q-2.0 0 -3.140625 -1.453125q-1.140625 -1.46875 -1.140625 -3.921875q0 -2.375 1.140625 -3.8125q1.140625 -1.453125 3.125 -1.453125q2.171875 0 3.078125 1.546875q-0.09375 -0.90625 -0.09375 -1.75l0 -3.296875l2.421875 -0.15625l0 14.109375l-2.09375 0l-0.28125 -1.390625q-0.15625 0.25 -0.296875 0.4375q-0.125 0.171875 -0.390625 0.40625q-0.25 0.234375 -0.5625 0.390625q-0.296875 0.140625 -0.765625 0.234375q-0.453125 0.109375 -1.0 0.109375zm0.578125 -1.84375q2.4375 0 2.484375 -3.328125q0 -1.875 -0.640625 -2.734375q-0.625 -0.875 -1.875 -0.875q-1.09375 0 -1.75 0.875q-0.65625 0.875 -0.65625 2.59375q0 1.6875 0.65625 2.578125q0.65625 0.890625 1.78125 0.890625zm11.812592 1.84375q-2.46875 0 -3.84375 -1.40625q-1.359375 -1.421875 -1.359375 -3.90625q0 -2.4375 1.28125 -3.875q1.296875 -1.4375 3.53125 -1.453125q2.09375 0 3.25 1.328125q1.171875 1.3125 1.171875 3.5q0 0.15625 0 0.515625q0 0.34375 0 0.5l-6.78125 0q0.03125 1.4375 0.78125 2.21875q0.75 0.78125 2.0625 0.78125q1.65625 0 3.203125 -0.875l0.34375 1.734375q-1.53125 0.9375 -3.640625 0.9375zm-2.703125 -6.3125l4.453125 0q0 -1.25 -0.578125 -1.921875q-0.5625 -0.671875 -1.5625 -0.671875q-0.9375 0 -1.578125 0.65625q-0.640625 0.65625 -0.734375 1.9375z" fill-rule="nonzero"></path><path fill="#a2c4c9" d="m320.0 185.23817l227.59058 0l0 73.22835l-227.59058 0z" fill-rule="nonzero"></path><path stroke="#45818e" stroke-width="4.0" stroke-linejoin="round" stroke-linecap="butt" d="m320.0 185.23817l227.59058 0l0 73.22835l-227.59058 0z" fill-rule="nonzero"></path><path fill="#000000" d="m378.03815 228.77235l0 -13.59375l2.515625 0l0 5.5625l6.140625 0l0 -5.5625l2.515625 0l0 13.59375l-2.515625 0l0 -6.046875l-6.140625 0l0 6.046875l-2.515625 0zm16.29956 0.1875q-1.421875 0 -2.296875 -0.78125q-0.875 -0.78125 -0.875 -2.25q0 -1.59375 1.03125 -2.359375q1.046875 -0.765625 3.140625 -0.96875q0.296875 -0.03125 0.625 -0.0625q0.328125 -0.046875 0.75 -0.078125q0.421875 -0.046875 0.65625 -0.078125l0 -0.53125q0 -0.921875 -0.421875 -1.34375q-0.421875 -0.421875 -1.296875 -0.421875q-1.25 0 -3.078125 0.6875q0 -0.03125 -0.296875 -0.84375q-0.296875 -0.8125 -0.3125 -0.828125q1.796875 -0.78125 3.90625 -0.78125q2.046875 0 2.984375 0.90625q0.9375 0.890625 0.9375 2.890625l0 6.65625l-1.796875 0q0 -0.03125 -0.203125 -0.609375q-0.1875 -0.59375 -0.1875 -0.640625q-0.765625 0.75 -1.5 1.09375q-0.71875 0.34375 -1.765625 0.34375zm0.65625 -1.71875q0.84375 0 1.46875 -0.40625q0.640625 -0.40625 0.90625 -0.96875l0 -1.96875q-0.03125 0 -0.5 0.03125q-0.453125 0.03125 -0.484375 0.03125q-1.484375 0.140625 -2.171875 0.5625q-0.671875 0.421875 -0.671875 1.375q0 0.640625 0.375 1.0q0.375 0.34375 1.078125 0.34375zm10.309326 1.71875q-2.25 0 -3.609375 -0.765625l0.25 -1.828125q0.625 0.328125 1.5625 0.59375q0.953125 0.265625 1.734375 0.265625q0.796875 0 1.25 -0.296875q0.453125 -0.3125 0.453125 -0.890625q0 -0.53125 -0.421875 -0.828125q-0.421875 -0.3125 -1.609375 -0.765625q-0.40625 -0.15625 -0.515625 -0.203125q-1.421875 -0.546875 -2.046875 -1.21875q-0.609375 -0.671875 -0.609375 -1.828125q0 -1.390625 1.0 -2.125q1.015625 -0.75 2.8125 -0.75q1.953125 0 3.421875 0.734375l-0.609375 1.6875q-1.453125 -0.6875 -2.765625 -0.6875q-0.734375 0 -1.15625 0.25q-0.40625 0.25 -0.40625 0.75q0 0.46875 0.390625 0.734375q0.40625 0.265625 1.5625 0.6875q0.046875 0.015625 0.25 0.09375q0.203125 0.078125 0.3125 0.109375q1.40625 0.515625 2.0625 1.234375q0.65625 0.703125 0.65625 1.84375q-0.015625 1.53125 -1.046875 2.375q-1.015625 0.828125 -2.921875 0.828125zm5.7228394 -0.1875l0 -13.953125l2.4375 -0.15625l0 6.265625l-0.0625 2.046875q0.015625 0 0.1875 -0.171875q0.1875 -0.1875 0.203125 -0.203125q0.515625 -0.59375 1.109375 -1.234375q0.59375 -0.640625 1.5 -1.5625q0.921875 -0.9375 1.203125 -1.234375l2.890625 0l-4.1875 4.34375l4.453125 5.859375l-2.9375 0l-3.359375 -4.625l-1.0 0.796875l0 3.828125l-2.4375 0zm15.404175 0.1875q-2.46875 0 -3.84375 -1.40625q-1.359375 -1.421875 -1.359375 -3.90625q0 -2.4375 1.28125 -3.875q1.296875 -1.4375 3.53125 -1.453125q2.09375 0 3.25 1.328125q1.171875 1.3125 1.171875 3.5q0 0.15625 0 0.515625q0 0.34375 0 0.5l-6.78125 0q0.03125 1.4375 0.78125 2.21875q0.75 0.78125 2.0625 0.78125q1.65625 0 3.203125 -0.875l0.34375 1.734375q-1.53125 0.9375 -3.640625 0.9375zm-2.703125 -6.3125l4.453125 0q0 -1.25 -0.578125 -1.921875q-0.5625 -0.671875 -1.5625 -0.671875q-0.9375 0 -1.578125 0.65625q-0.640625 0.65625 -0.734375 1.9375zm12.102203 6.265625q-1.0625 0 -1.75 -0.25q-0.6875 -0.25 -1.09375 -0.78125q-0.390625 -0.53125 -0.546875 -1.265625q-0.15625 -0.75 -0.15625 -1.859375l0 -9.9375l2.421875 -0.15625l0 10.046875q0 1.375 0.328125 1.859375q0.328125 0.484375 1.265625 0.484375q0.46875 0 1.171875 -0.09375l0.0625 1.734375q0 0 -0.21875 0.046875q-0.21875 0.046875 -0.421875 0.078125q-0.203125 0.03125 -0.515625 0.0625q-0.296875 0.03125 -0.546875 0.03125zm6.376648 0q-1.0625 0 -1.75 -0.25q-0.6875 -0.25 -1.09375 -0.78125q-0.390625 -0.53125 -0.546875 -1.265625q-0.15625 -0.75 -0.15625 -1.859375l0 -9.9375l2.421875 -0.15625l0 10.046875q0 1.375 0.328125 1.859375q0.328125 0.484375 1.265625 0.484375q0.46875 0 1.171875 -0.09375l0.0625 1.734375q0 0 -0.21875 0.046875q-0.21875 0.046875 -0.421875 0.078125q-0.203125 0.03125 -0.515625 0.0625q-0.296875 0.03125 -0.546875 0.03125zm12.195526 0.046875q-2.34375 0 -3.65625 -1.390625q-1.296875 -1.390625 -1.296875 -3.96875q0 -2.515625 1.359375 -3.890625q1.375 -1.390625 3.609375 -1.390625q1.796875 0 3.03125 0.78125l-0.578125 1.734375q-1.265625 -0.65625 -2.34375 -0.65625q-1.234375 0 -1.953125 0.875q-0.703125 0.875 -0.703125 2.5625q0 1.71875 0.703125 2.609375q0.703125 0.890625 1.984375 0.890625q1.328125 0 2.5625 -0.796875l0.234375 1.84375q-0.640625 0.4375 -1.328125 0.609375q-0.6875 0.1875 -1.625 0.1875zm9.151123 -1.84375q1.234375 0 1.859375 -0.890625q0.625 -0.90625 0.625 -2.578125q0 -1.703125 -0.625 -2.59375q-0.625 -0.890625 -1.875 -0.890625q-1.234375 0 -1.859375 0.90625q-0.625 0.890625 -0.625 2.578125q0 1.671875 0.625 2.578125q0.640625 0.890625 1.875 0.890625zm-0.0625 1.84375q-2.265625 0 -3.5625 -1.453125q-1.296875 -1.46875 -1.296875 -3.859375q0 -2.46875 1.296875 -3.890625q1.296875 -1.4375 3.671875 -1.4375q2.28125 0 3.5625 1.453125q1.296875 1.453125 1.296875 3.875q0 2.4375 -1.3125 3.875q-1.296875 1.4375 -3.65625 1.4375zm10.55365 0q-2.0 0 -3.140625 -1.453125q-1.140625 -1.46875 -1.140625 -3.921875q0 -2.375 1.140625 -3.8125q1.140625 -1.453125 3.125 -1.453125q2.171875 0 3.078125 1.546875q-0.09375 -0.90625 -0.09375 -1.75l0 -3.296875l2.421875 -0.15625l0 14.109375l-2.09375 0l-0.28125 -1.390625q-0.15625 0.25 -0.296875 0.4375q-0.125 0.171875 -0.390625 0.40625q-0.25 0.234375 -0.5625 0.390625q-0.296875 0.140625 -0.765625 0.234375q-0.453125 0.109375 -1.0 0.109375zm0.578125 -1.84375q2.4375 0 2.484375 -3.328125q0 -1.875 -0.640625 -2.734375q-0.625 -0.875 -1.875 -0.875q-1.09375 0 -1.75 0.875q-0.65625 0.875 -0.65625 2.59375q0 1.6875 0.65625 2.578125q0.65625 0.890625 1.78125 0.890625zm11.812622 1.84375q-2.46875 0 -3.84375 -1.40625q-1.359375 -1.421875 -1.359375 -3.90625q0 -2.4375 1.28125 -3.875q1.296875 -1.4375 3.53125 -1.453125q2.09375 0 3.25 1.328125q1.171875 1.3125 1.171875 3.5q0 0.15625 0 0.515625q0 0.34375 0 0.5l-6.78125 0q0.03125 1.4375 0.78125 2.21875q0.75 0.78125 2.0625 0.78125q1.65625 0 3.203125 -0.875l0.34375 1.734375q-1.53125 0.9375 -3.640625 0.9375zm-2.703125 -6.3125l4.453125 0q0 -1.25 -0.578125 -1.921875q-0.5625 -0.671875 -1.5625 -0.671875q-0.9375 0 -1.578125 0.65625q-0.640625 0.65625 -0.734375 1.9375z" fill-rule="nonzero"></path><path fill="#a2c4c9" d="m608.0 185.23817l227.59058 0l0 73.22835l-227.59058 0z" fill-rule="nonzero"></path><path stroke="#45818e" stroke-width="4.0" stroke-linejoin="round" stroke-linecap="butt" d="m608.0 185.23817l227.59058 0l0 73.22835l-227.59058 0z" fill-rule="nonzero"></path><path fill="#000000" d="m666.03815 228.77235l0 -13.59375l2.515625 0l0 5.5625l6.140625 0l0 -5.5625l2.515625 0l0 13.59375l-2.515625 0l0 -6.046875l-6.140625 0l0 6.046875l-2.515625 0zm16.29956 0.1875q-1.421875 0 -2.296875 -0.78125q-0.875 -0.78125 -0.875 -2.25q0 -1.59375 1.03125 -2.359375q1.046875 -0.765625 3.140625 -0.96875q0.296875 -0.03125 0.625 -0.0625q0.328125 -0.046875 0.75 -0.078125q0.421875 -0.046875 0.65625 -0.078125l0 -0.53125q0 -0.921875 -0.421875 -1.34375q-0.421875 -0.421875 -1.296875 -0.421875q-1.25 0 -3.078125 0.6875q0 -0.03125 -0.296875 -0.84375q-0.296875 -0.8125 -0.3125 -0.828125q1.796875 -0.78125 3.90625 -0.78125q2.046875 0 2.984375 0.90625q0.9375 0.890625 0.9375 2.890625l0 6.65625l-1.796875 0q0 -0.03125 -0.203125 -0.609375q-0.1875 -0.59375 -0.1875 -0.640625q-0.765625 0.75 -1.5 1.09375q-0.71875 0.34375 -1.765625 0.34375zm0.65625 -1.71875q0.84375 0 1.46875 -0.40625q0.640625 -0.40625 0.90625 -0.96875l0 -1.96875q-0.03125 0 -0.5 0.03125q-0.453125 0.03125 -0.484375 0.03125q-1.484375 0.140625 -2.171875 0.5625q-0.671875 0.421875 -0.671875 1.375q0 0.640625 0.375 1.0q0.375 0.34375 1.078125 0.34375zm10.309326 1.71875q-2.25 0 -3.609375 -0.765625l0.25 -1.828125q0.625 0.328125 1.5625 0.59375q0.953125 0.265625 1.734375 0.265625q0.796875 0 1.25 -0.296875q0.453125 -0.3125 0.453125 -0.890625q0 -0.53125 -0.421875 -0.828125q-0.421875 -0.3125 -1.609375 -0.765625q-0.40625 -0.15625 -0.515625 -0.203125q-1.421875 -0.546875 -2.046875 -1.21875q-0.609375 -0.671875 -0.609375 -1.828125q0 -1.390625 1.0 -2.125q1.015625 -0.75 2.8125 -0.75q1.953125 0 3.421875 0.734375l-0.609375 1.6875q-1.453125 -0.6875 -2.765625 -0.6875q-0.734375 0 -1.15625 0.25q-0.40625 0.25 -0.40625 0.75q0 0.46875 0.390625 0.734375q0.40625 0.265625 1.5625 0.6875q0.046875 0.015625 0.25 0.09375q0.203125 0.078125 0.3125 0.109375q1.40625 0.515625 2.0625 1.234375q0.65625 0.703125 0.65625 1.84375q-0.015625 1.53125 -1.046875 2.375q-1.015625 0.828125 -2.921875 0.828125zm5.7228394 -0.1875l0 -13.953125l2.4375 -0.15625l0 6.265625l-0.0625 2.046875q0.015625 0 0.1875 -0.171875q0.1875 -0.1875 0.203125 -0.203125q0.515625 -0.59375 1.109375 -1.234375q0.59375 -0.640625 1.5 -1.5625q0.921875 -0.9375 1.203125 -1.234375l2.890625 0l-4.1875 4.34375l4.453125 5.859375l-2.9375 0l-3.359375 -4.625l-1.0 0.796875l0 3.828125l-2.4375 0zm15.404175 0.1875q-2.46875 0 -3.84375 -1.40625q-1.359375 -1.421875 -1.359375 -3.90625q0 -2.4375 1.28125 -3.875q1.296875 -1.4375 3.53125 -1.453125q2.09375 0 3.25 1.328125q1.171875 1.3125 1.171875 3.5q0 0.15625 0 0.515625q0 0.34375 0 0.5l-6.78125 0q0.03125 1.4375 0.78125 2.21875q0.75 0.78125 2.0625 0.78125q1.65625 0 3.203125 -0.875l0.34375 1.734375q-1.53125 0.9375 -3.640625 0.9375zm-2.703125 -6.3125l4.453125 0q0 -1.25 -0.578125 -1.921875q-0.5625 -0.671875 -1.5625 -0.671875q-0.9375 0 -1.578125 0.65625q-0.640625 0.65625 -0.734375 1.9375zm12.102173 6.265625q-1.0625 0 -1.75 -0.25q-0.6875 -0.25 -1.09375 -0.78125q-0.390625 -0.53125 -0.546875 -1.265625q-0.15625 -0.75 -0.15625 -1.859375l0 -9.9375l2.421875 -0.15625l0 10.046875q0 1.375 0.328125 1.859375q0.328125 0.484375 1.265625 0.484375q0.46875 0 1.171875 -0.09375l0.0625 1.734375q0 0 -0.21875 0.046875q-0.21875 0.046875 -0.421875 0.078125q-0.203125 0.03125 -0.515625 0.0625q-0.296875 0.03125 -0.546875 0.03125zm6.376709 0q-1.0625 0 -1.75 -0.25q-0.6875 -0.25 -1.09375 -0.78125q-0.390625 -0.53125 -0.546875 -1.265625q-0.15625 -0.75 -0.15625 -1.859375l0 -9.9375l2.421875 -0.15625l0 10.046875q0 1.375 0.328125 1.859375q0.328125 0.484375 1.265625 0.484375q0.46875 0 1.171875 -0.09375l0.0625 1.734375q0 0 -0.21875 0.046875q-0.21875 0.046875 -0.421875 0.078125q-0.203125 0.03125 -0.515625 0.0625q-0.296875 0.03125 -0.546875 0.03125zm12.195496 0.046875q-2.34375 0 -3.65625 -1.390625q-1.296875 -1.390625 -1.296875 -3.96875q0 -2.515625 1.359375 -3.890625q1.375 -1.390625 3.609375 -1.390625q1.796875 0 3.03125 0.78125l-0.578125 1.734375q-1.265625 -0.65625 -2.34375 -0.65625q-1.234375 0 -1.953125 0.875q-0.703125 0.875 -0.703125 2.5625q0 1.71875 0.703125 2.609375q0.703125 0.890625 1.984375 0.890625q1.328125 0 2.5625 -0.796875l0.234375 1.84375q-0.640625 0.4375 -1.328125 0.609375q-0.6875 0.1875 -1.625 0.1875zm9.151123 -1.84375q1.234375 0 1.859375 -0.890625q0.625 -0.90625 0.625 -2.578125q0 -1.703125 -0.625 -2.59375q-0.625 -0.890625 -1.875 -0.890625q-1.234375 0 -1.859375 0.90625q-0.625 0.890625 -0.625 2.578125q0 1.671875 0.625 2.578125q0.640625 0.890625 1.875 0.890625zm-0.0625 1.84375q-2.265625 0 -3.5625 -1.453125q-1.296875 -1.46875 -1.296875 -3.859375q0 -2.46875 1.296875 -3.890625q1.296875 -1.4375 3.671875 -1.4375q2.28125 0 3.5625 1.453125q1.296875 1.453125 1.296875 3.875q0 2.4375 -1.3125 3.875q-1.296875 1.4375 -3.65625 1.4375zm10.55365 0q-2.0 0 -3.140625 -1.453125q-1.140625 -1.46875 -1.140625 -3.921875q0 -2.375 1.140625 -3.8125q1.140625 -1.453125 3.125 -1.453125q2.171875 0 3.078125 1.546875q-0.09375 -0.90625 -0.09375 -1.75l0 -3.296875l2.421875 -0.15625l0 14.109375l-2.09375 0l-0.28125 -1.390625q-0.15625 0.25 -0.296875 0.4375q-0.125 0.171875 -0.390625 0.40625q-0.25 0.234375 -0.5625 0.390625q-0.296875 0.140625 -0.765625 0.234375q-0.453125 0.109375 -1.0 0.109375zm0.578125 -1.84375q2.4375 0 2.484375 -3.328125q0 -1.875 -0.640625 -2.734375q-0.625 -0.875 -1.875 -0.875q-1.09375 0 -1.75 0.875q-0.65625 0.875 -0.65625 2.59375q0 1.6875 0.65625 2.578125q0.65625 0.890625 1.78125 0.890625zm11.812622 1.84375q-2.46875 0 -3.84375 -1.40625q-1.359375 -1.421875 -1.359375 -3.90625q0 -2.4375 1.28125 -3.875q1.296875 -1.4375 3.53125 -1.453125q2.09375 0 3.25 1.328125q1.171875 1.3125 1.171875 3.5q0 0.15625 0 0.515625q0 0.34375 0 0.5l-6.78125 0q0.03125 1.4375 0.78125 2.21875q0.75 0.78125 2.0625 0.78125q1.65625 0 3.203125 -0.875l0.34375 1.734375q-1.53125 0.9375 -3.640625 0.9375zm-2.703125 -6.3125l4.453125 0q0 -1.25 -0.578125 -1.921875q-0.5625 -0.671875 -1.5625 -0.671875q-0.9375 0 -1.578125 0.65625q-0.640625 0.65625 -0.734375 1.9375z" fill-rule="nonzero"></path><path fill="#cccccc" d="m80.0 128.0l728.0 0l0 24.0l-728.0 0z" fill-rule="nonzero"></path><path fill="#cccccc" d="m128.0 104.0l24.0 0l0 24.0l-24.0 0z" fill-rule="nonzero"></path><path fill="#cccccc" d="m160.0 152.0l24.0 0l0 24.0l-24.0 0z" fill-rule="nonzero"></path><path fill="#cccccc" d="m408.0 104.0l24.0 0l0 24.0l-24.0 0z" fill-rule="nonzero"></path><path fill="#cccccc" d="m440.0 152.0l24.0 0l0 24.0l-24.0 0z" fill-rule="nonzero"></path><path fill="#cccccc" d="m704.0 104.0l24.0 0l0 24.0l-24.0 0z" fill-rule="nonzero"></path><path fill="#cccccc" d="m736.0 152.0l24.0 0l0 24.0l-24.0 0z" fill-rule="nonzero"></path></g></svg>

