<?xml version="1.0" standalone="yes"?>

<svg version="1.1" viewBox="0.0 0.0 630.9842519685039 452.12335958005247" fill="none" stroke="none" stroke-linecap="square" stroke-miterlimit="10" xmlns="http://www.w3.org/2000/svg" xmlns:xlink="http://www.w3.org/1999/xlink"><clipPath id="p.0"><path d="m0 0l630.98425 0l0 452.12335l-630.98425 0l0 -452.12335z" clip-rule="nonzero"></path></clipPath><g clip-path="url(#p.0)"><path fill="#000000" fill-opacity="0.0" d="m0 0l630.98425 0l0 452.12335l-630.98425 0z" fill-rule="nonzero"></path><path fill="#f9cb9c" d="m118.27034 140.72704l227.59056 0l0 74.519684l-227.59056 0z" fill-rule="nonzero"></path><path stroke="#e69138" stroke-width="4.0" stroke-linejoin="round" stroke-linecap="butt" d="m118.27034 140.72704l227.59056 0l0 74.519684l-227.59056 0z" fill-rule="nonzero"></path><path fill="#000000" d="m186.58044 184.90688l-1.609375 0l0 -13.71875l7.625 0l-0.0625 1.421875l-5.953125 0l0 4.8125l5.671875 0l0 1.359375l-5.671875 0l0 6.125zm8.717361 -5.0625q0 1.8125 0.796875 2.90625q0.8125 1.078125 2.359375 1.078125q1.515625 0 2.28125 -1.078125q0.78125 -1.09375 0.78125 -2.921875q0 -1.875 -0.765625 -2.9375q-0.765625 -1.078125 -2.328125 -1.078125q-1.53125 0 -2.328125 1.09375q-0.796875 1.09375 -0.796875 2.9375zm7.828125 -0.03125q0 2.359375 -1.265625 3.84375q-1.265625 1.46875 -3.484375 1.46875q-2.140625 0 -3.40625 -1.484375q-1.265625 -1.484375 -1.265625 -3.8125q0 -2.375 1.265625 -3.84375q1.265625 -1.46875 3.484375 -1.46875q2.1875 0 3.421875 1.46875q1.25 1.46875 1.25 3.828125zm6.549881 -5.171875q0.421875 0 0.765625 0.046875l-0.0625 1.4375q-0.421875 -0.078125 -0.734375 -0.078125q-1.296875 0 -2.109375 0.90625q-0.8125 0.90625 -0.8125 2.234375l0 5.71875l-1.5625 0q0 -9.375 0 -10.171875l1.28125 0l0.15625 1.828125q0.53125 -0.875 1.34375 -1.390625q0.8125 -0.53125 1.734375 -0.53125zm8.09256 1.96875q-0.671875 -0.8125 -1.859375 -0.8125q-1.1875 0 -1.9375 0.84375q-0.75 0.828125 -0.890625 2.296875l5.375 0q0 -1.515625 -0.6875 -2.328125zm-1.5625 8.515625q-2.203125 0 -3.484375 -1.40625q-1.28125 -1.421875 -1.28125 -3.875q0 -2.359375 1.234375 -3.828125q1.234375 -1.46875 3.25 -1.5q1.890625 0 3.0 1.296875q1.109375 1.296875 1.109375 3.453125q0 0.109375 -0.015625 0.40625q0 0.296875 0 0.421875l-6.984375 0q0.03125 1.734375 0.890625 2.71875q0.875 0.96875 2.34375 0.96875q1.609375 0 3.234375 -0.859375l0.25 1.25q-1.5625 0.953125 -3.546875 0.953125zm7.6245728 -10.390625l0 10.171875l-1.5625 0l0 -10.171875l1.5625 0zm0 -3.703125l0 1.828125l-1.5625 0l0 -1.828125l1.5625 0zm6.779953 12.546875q0.78125 0 1.375 -0.28125q0.59375 -0.28125 0.921875 -0.765625q0.34375 -0.484375 0.5 -1.09375q0.171875 -0.609375 0.171875 -1.3125l0 -0.75q0 -0.75 -0.171875 -1.375q-0.171875 -0.625 -0.515625 -1.125q-0.34375 -0.5 -0.921875 -0.765625q-0.578125 -0.28125 -1.359375 -0.28125q-0.640625 0 -1.171875 0.25q-0.515625 0.234375 -0.859375 0.625q-0.328125 0.390625 -0.5625 0.921875q-0.234375 0.515625 -0.34375 1.0625q-0.09375 0.53125 -0.09375 1.078125q0 0.53125 0.109375 1.0625q0.109375 0.53125 0.34375 1.03125q0.25 0.5 0.59375 0.875q0.34375 0.375 0.859375 0.609375q0.515625 0.234375 1.125 0.234375zm-2.390625 5.984375l-0.140625 -1.40625l1.890625 0q0.796875 0 1.375 -0.109375q0.59375 -0.109375 0.984375 -0.359375q0.390625 -0.25 0.625 -0.5625q0.25 -0.3125 0.375 -0.8125q0.125 -0.5 0.15625 -0.984375q0.046875 -0.484375 0.046875 -1.1875l0 -0.90625q-0.5625 0.796875 -1.296875 1.234375q-0.734375 0.421875 -1.859375 0.421875q-0.875 0 -1.609375 -0.296875q-0.734375 -0.296875 -1.25 -0.796875q-0.5 -0.5 -0.859375 -1.15625q-0.359375 -0.671875 -0.515625 -1.375q-0.15625 -0.703125 -0.15625 -1.421875q0 -1.109375 0.265625 -2.046875q0.28125 -0.953125 0.8125 -1.6875q0.53125 -0.75 1.40625 -1.171875q0.890625 -0.421875 2.015625 -0.421875q1.0 0 1.75 0.390625q0.75 0.375 1.34375 1.171875l0 -1.34375l1.515625 0l0 9.4375q0 0.65625 -0.046875 1.140625q-0.03125 0.484375 -0.15625 1.078125q-0.125 0.59375 -0.34375 1.015625q-0.203125 0.4375 -0.59375 0.859375q-0.375 0.4375 -0.90625 0.703125q-0.53125 0.265625 -1.328125 0.421875q-0.78125 0.171875 -1.78125 0.171875l-1.71875 0zm9.250473 -4.65625l0 -10.171875l1.296875 0l0.203125 1.453125q0.59375 -0.75 1.5 -1.203125q0.90625 -0.46875 1.953125 -0.46875q1.765625 0 2.609375 0.984375q0.84375 0.984375 0.84375 3.046875l0 6.359375l-1.546875 0q0 -6.125 -0.015625 -6.5625q-0.03125 -1.296875 -0.53125 -1.890625q-0.484375 -0.609375 -1.625 -0.609375q-1.1875 0 -1.984375 0.578125q-0.796875 0.578125 -1.046875 1.484375q-0.09375 0.625 -0.09375 1.4375l0 5.5625l-1.5625 0zm19.737488 0.21875q-2.2343903 0 -3.5000153 -1.453125q-1.265625 -1.46875 -1.265625 -3.828125q0 -2.375 1.28125 -3.84375q1.296875 -1.484375 3.5312653 -1.484375q0.78125 0 1.515625 0.203125q0.75 0.1875 1.171875 0.5l-0.421875 1.203125q-1.09375 -0.578125 -2.296875 -0.578125q-1.4687653 0 -2.3281403 1.078125q-0.859375 1.078125 -0.859375 2.9375q0 1.8125 0.84375 2.875q0.84375 1.0625 2.3593903 1.0625q1.1875 0 2.4375 -0.640625l0.203125 1.234375q-1.015625 0.734375 -2.671875 0.734375zm7.458618 -1.265625q1.109375 0 1.9375 -0.59375q0.84375 -0.609375 1.09375 -1.640625l0 -1.71875q-0.046875 0 -0.5625 0.046875q-0.515625 0.046875 -0.671875 0.046875q-2.015625 0.1875 -2.8125 0.671875q-0.796875 0.484375 -0.796875 1.546875q0 0.8125 0.484375 1.234375q0.484375 0.40625 1.328125 0.40625zm3.375 1.046875q-0.140625 -0.59375 -0.28125 -1.28125q-0.84375 0.84375 -1.59375 1.171875q-0.734375 0.328125 -1.734375 0.328125q-1.421875 0 -2.296875 -0.75q-0.859375 -0.75 -0.859375 -2.15625q0 -1.546875 1.171875 -2.296875q1.1875 -0.765625 3.421875 -0.9375q0.296875 -0.03125 0.90625 -0.078125q0.625 -0.0625 0.9375 -0.09375l0 -0.890625q0 -1.078125 -0.5 -1.59375q-0.5 -0.515625 -1.578125 -0.515625q-1.5 0 -3.03125 0.734375q-0.046875 -0.109375 -0.25 -0.640625q-0.1875 -0.53125 -0.203125 -0.5625q0.6875 -0.375 1.609375 -0.59375q0.9375 -0.234375 1.90625 -0.234375q1.890625 0 2.734375 0.828125q0.84375 0.828125 0.84375 2.828125l0 6.734375l-1.203125 0zm6.424103 0.1875q-1.484375 0 -2.109375 -0.796875q-0.609375 -0.796875 -0.609375 -2.78125l0 -10.734375l1.546875 -0.09375l0 10.21875q0 0.625 0 1.015625q0.015625 0.375 0.078125 0.75q0.0625 0.359375 0.140625 0.546875q0.09375 0.1875 0.265625 0.34375q0.1875 0.140625 0.421875 0.203125q0.25 0.046875 0.625 0.046875q0.296875 0 1.15625 -0.109375l0.09375 1.234375q-0.953125 0.15625 -1.609375 0.15625zm5.1832886 0q-1.484375 0 -2.109375 -0.796875q-0.609375 -0.796875 -0.609375 -2.78125l0 -10.734375l1.546875 -0.09375l0 10.21875q0 0.625 0 1.015625q0.015625 0.375 0.078125 0.75q0.0625 0.359375 0.140625 0.546875q0.09375 0.1875 0.265625 0.34375q0.1875 0.140625 0.421875 0.203125q0.25 0.046875 0.625 0.046875q0.296875 0 1.15625 -0.109375l0.09375 1.234375q-0.953125 0.15625 -1.609375 0.15625z" fill-rule="nonzero"></path><path fill="#a2c4c9" d="m118.27034 359.2467l227.59056 0l0 74.519714l-227.59056 0z" fill-rule="nonzero"></path><path stroke="#45818e" stroke-width="4.0" stroke-linejoin="round" stroke-linecap="butt" d="m118.27034 359.2467l227.59056 0l0 74.519714l-227.59056 0z" fill-rule="nonzero"></path><path fill="#000000" d="m200.38779 403.42654l-1.828125 0l-7.125 -10.796875l-0.453125 -0.640625q0.078125 1.953125 0.078125 3.484375l0 7.953125l-1.515625 0l0 -13.71875l1.796875 0l7.140625 10.796875l0.46875 0.640625q-0.0625 -2.953125 -0.0625 -3.421875l0 -8.015625l1.5 0l0 13.71875zm5.6224976 -1.046875q1.109375 0 1.9375 -0.59375q0.84375 -0.609375 1.09375 -1.640625l0 -1.71875q-0.046875 0 -0.5625 0.046875q-0.515625 0.046875 -0.671875 0.046875q-2.015625 0.1875 -2.8125 0.671875q-0.796875 0.484375 -0.796875 1.546875q0 0.8125 0.484375 1.234375q0.484375 0.40625 1.328125 0.40625zm3.375 1.046875q-0.140625 -0.59375 -0.28125 -1.28125q-0.84375 0.84375 -1.59375 1.171875q-0.734375 0.328125 -1.734375 0.328125q-1.421875 0 -2.296875 -0.75q-0.859375 -0.75 -0.859375 -2.15625q0 -1.546875 1.171875 -2.296875q1.1875 -0.765625 3.421875 -0.9375q0.296875 -0.03125 0.90625 -0.078125q0.625 -0.0625 0.9375 -0.09375l0 -0.890625q0 -1.078125 -0.5 -1.59375q-0.5 -0.515625 -1.578125 -0.515625q-1.5 0 -3.03125 0.734375q-0.046875 -0.109375 -0.25 -0.640625q-0.1875 -0.53125 -0.203125 -0.5625q0.6875 -0.375 1.609375 -0.59375q0.9375 -0.234375 1.90625 -0.234375q1.890625 0 2.734375 0.828125q0.84375 0.828125 0.84375 2.828125l0 6.734375l-1.203125 0zm6.939728 0.1875q-1.5 0 -2.140625 -0.734375q-0.625 -0.734375 -0.671875 -2.359375l0 -6.125l-1.5 0l0.0625 -1.015625l1.4375 -0.125l0.53125 -2.328125l1.015625 -0.046875l0 2.375l2.828125 0l0 1.140625l-2.828125 0l0 5.84375q0 1.15625 0.34375 1.640625q0.359375 0.46875 1.21875 0.46875q0.296875 0 1.328125 -0.15625l0.0625 1.21875q-1.109375 0.203125 -1.6875 0.203125zm5.045868 -10.359375l0 10.171875l-1.5625 0l0 -10.171875l1.5625 0zm0 -3.703125l0 1.828125l-1.5625 0l0 -1.828125l1.5625 0zm5.436203 13.875l-3.953125 -10.171875l1.671875 0l2.234375 6.046875q0 0 0.9375 2.578125q0.3125 -1.0 0.875 -2.5625q0.703125 -1.984375 2.1875 -6.0625l1.640625 0l-3.90625 10.171875l-1.6875 0zm12.6418915 -8.296875q-0.671875 -0.8125 -1.859375 -0.8125q-1.1875 0 -1.9375 0.84375q-0.75 0.828125 -0.890625 2.296875l5.375 0q0 -1.515625 -0.6875 -2.328125zm-1.5625 8.515625q-2.203125 0 -3.484375 -1.40625q-1.28125 -1.421875 -1.28125 -3.875q0 -2.359375 1.234375 -3.828125q1.234375 -1.46875 3.25 -1.5q1.890625 0 3.0 1.296875q1.109375 1.296875 1.109375 3.453125q0 0.109375 -0.015625 0.40625q0 0.296875 0 0.421875l-6.984375 0q0.03125 1.734375 0.890625 2.71875q0.875 0.96875 2.34375 0.96875q1.609375 0 3.234375 -0.859375l0.25 1.25q-1.5625 0.953125 -3.546875 0.953125zm14.748276 0q-2.234375 0 -3.5 -1.453125q-1.265625 -1.46875 -1.265625 -3.828125q0 -2.375 1.28125 -3.84375q1.296875 -1.484375 3.53125 -1.484375q0.78125 0 1.515625 0.203125q0.75 0.1875 1.171875 0.5l-0.421875 1.203125q-1.09375 -0.578125 -2.296875 -0.578125q-1.46875 0 -2.328125 1.078125q-0.859375 1.078125 -0.859375 2.9375q0 1.8125 0.84375 2.875q0.84375 1.0625 2.359375 1.0625q1.1875 0 2.4375 -0.640625l0.203125 1.234375q-1.015625 0.734375 -2.671875 0.734375zm7.4586334 -1.265625q1.109375 0 1.9375 -0.59375q0.84375 -0.609375 1.09375 -1.640625l0 -1.71875q-0.046875 0 -0.5625 0.046875q-0.515625 0.046875 -0.671875 0.046875q-2.015625 0.1875 -2.8125 0.671875q-0.796875 0.484375 -0.796875 1.546875q0 0.8125 0.484375 1.234375q0.484375 0.40625 1.328125 0.40625zm3.375 1.046875q-0.140625 -0.59375 -0.28125 -1.28125q-0.84375 0.84375 -1.59375 1.171875q-0.734375 0.328125 -1.734375 0.328125q-1.421875 0 -2.296875 -0.75q-0.859375 -0.75 -0.859375 -2.15625q0 -1.546875 1.171875 -2.296875q1.1875 -0.765625 3.421875 -0.9375q0.296875 -0.03125 0.90625 -0.078125q0.625 -0.0625 0.9375 -0.09375l0 -0.890625q0 -1.078125 -0.5 -1.59375q-0.5 -0.515625 -1.578125 -0.515625q-1.5 0 -3.03125 0.734375q-0.046875 -0.109375 -0.25 -0.640625q-0.1875 -0.53125 -0.203125 -0.5625q0.6875 -0.375 1.609375 -0.59375q0.9375 -0.234375 1.90625 -0.234375q1.890625 0 2.734375 0.828125q0.84375 0.828125 0.84375 2.828125l0 6.734375l-1.203125 0zm6.424103 0.1875q-1.484375 0 -2.109375 -0.796875q-0.609375 -0.796875 -0.609375 -2.78125l0 -10.734375l1.546875 -0.09375l0 10.21875q0 0.625 0 1.015625q0.015625 0.375 0.078125 0.75q0.0625 0.359375 0.140625 0.546875q0.09375 0.1875 0.265625 0.34375q0.1875 0.140625 0.421875 0.203125q0.25 0.046875 0.625 0.046875q0.296875 0 1.15625 -0.109375l0.09375 1.234375q-0.953125 0.15625 -1.609375 0.15625zm5.1832886 0q-1.484375 0 -2.109375 -0.796875q-0.609375 -0.796875 -0.609375 -2.78125l0 -10.734375l1.546875 -0.09375l0 10.21875q0 0.625 0 1.015625q0.015625 0.375 0.078125 0.75q0.0625 0.359375 0.140625 0.546875q0.09375 0.1875 0.265625 0.34375q0.1875 0.140625 0.421875 0.203125q0.25 0.046875 0.625 0.046875q0.296875 0 1.15625 -0.109375l0.09375 1.234375q-0.953125 0.15625 -1.609375 0.15625z" fill-rule="nonzero"></path><path fill="#a2c4c9" d="m118.27034 287.2467l227.59056 0l0 74.519714l-227.59056 0z" fill-rule="nonzero"></path><path stroke="#45818e" stroke-width="4.0" stroke-linejoin="round" stroke-linecap="butt" d="m118.27034 287.2467l227.59056 0l0 74.519714l-227.59056 0z" fill-rule="nonzero"></path><path fill="#000000" d="m200.38779 331.42654l-1.828125 0l-7.125 -10.796875l-0.453125 -0.640625q0.078125 1.953125 0.078125 3.484375l0 7.953125l-1.515625 0l0 -13.71875l1.796875 0l7.140625 10.796875l0.46875 0.640625q-0.0625 -2.953125 -0.0625 -3.421875l0 -8.015625l1.5 0l0 13.71875zm5.6224976 -1.046875q1.109375 0 1.9375 -0.59375q0.84375 -0.609375 1.09375 -1.640625l0 -1.71875q-0.046875 0 -0.5625 0.046875q-0.515625 0.046875 -0.671875 0.046875q-2.015625 0.1875 -2.8125 0.671875q-0.796875 0.484375 -0.796875 1.546875q0 0.8125 0.484375 1.234375q0.484375 0.40625 1.328125 0.40625zm3.375 1.046875q-0.140625 -0.59375 -0.28125 -1.28125q-0.84375 0.84375 -1.59375 1.171875q-0.734375 0.328125 -1.734375 0.328125q-1.421875 0 -2.296875 -0.75q-0.859375 -0.75 -0.859375 -2.15625q0 -1.546875 1.171875 -2.296875q1.1875 -0.765625 3.421875 -0.9375q0.296875 -0.03125 0.90625 -0.078125q0.625 -0.0625 0.9375 -0.09375l0 -0.890625q0 -1.078125 -0.5 -1.59375q-0.5 -0.515625 -1.578125 -0.515625q-1.5 0 -3.03125 0.734375q-0.046875 -0.109375 -0.25 -0.640625q-0.1875 -0.53125 -0.203125 -0.5625q0.6875 -0.375 1.609375 -0.59375q0.9375 -0.234375 1.90625 -0.234375q1.890625 0 2.734375 0.828125q0.84375 0.828125 0.84375 2.828125l0 6.734375l-1.203125 0zm6.939728 0.1875q-1.5 0 -2.140625 -0.734375q-0.625 -0.734375 -0.671875 -2.359375l0 -6.125l-1.5 0l0.0625 -1.015625l1.4375 -0.125l0.53125 -2.328125l1.015625 -0.046875l0 2.375l2.828125 0l0 1.140625l-2.828125 0l0 5.84375q0 1.15625 0.34375 1.640625q0.359375 0.46875 1.21875 0.46875q0.296875 0 1.328125 -0.15625l0.0625 1.21875q-1.109375 0.203125 -1.6875 0.203125zm5.045868 -10.359375l0 10.171875l-1.5625 0l0 -10.171875l1.5625 0zm0 -3.703125l0 1.828125l-1.5625 0l0 -1.828125l1.5625 0zm5.436203 13.875l-3.953125 -10.171875l1.671875 0l2.234375 6.046875q0 0 0.9375 2.578125q0.3125 -1.0 0.875 -2.5625q0.703125 -1.984375 2.1875 -6.0625l1.640625 0l-3.90625 10.171875l-1.6875 0zm12.6418915 -8.296875q-0.671875 -0.8125 -1.859375 -0.8125q-1.1875 0 -1.9375 0.84375q-0.75 0.828125 -0.890625 2.296875l5.375 0q0 -1.515625 -0.6875 -2.328125zm-1.5625 8.515625q-2.203125 0 -3.484375 -1.40625q-1.28125 -1.421875 -1.28125 -3.875q0 -2.359375 1.234375 -3.828125q1.234375 -1.46875 3.25 -1.5q1.890625 0 3.0 1.296875q1.109375 1.296875 1.109375 3.453125q0 0.109375 -0.015625 0.40625q0 0.296875 0 0.421875l-6.984375 0q0.03125 1.734375 0.890625 2.71875q0.875 0.96875 2.34375 0.96875q1.609375 0 3.234375 -0.859375l0.25 1.25q-1.5625 0.953125 -3.546875 0.953125zm14.748276 0q-2.234375 0 -3.5 -1.453125q-1.265625 -1.46875 -1.265625 -3.828125q0 -2.375 1.28125 -3.84375q1.296875 -1.484375 3.53125 -1.484375q0.78125 0 1.515625 0.203125q0.75 0.1875 1.171875 0.5l-0.421875 1.203125q-1.09375 -0.578125 -2.296875 -0.578125q-1.46875 0 -2.328125 1.078125q-0.859375 1.078125 -0.859375 2.9375q0 1.8125 0.84375 2.875q0.84375 1.0625 2.359375 1.0625q1.1875 0 2.4375 -0.640625l0.203125 1.234375q-1.015625 0.734375 -2.671875 0.734375zm7.4586334 -1.265625q1.109375 0 1.9375 -0.59375q0.84375 -0.609375 1.09375 -1.640625l0 -1.71875q-0.046875 0 -0.5625 0.046875q-0.515625 0.046875 -0.671875 0.046875q-2.015625 0.1875 -2.8125 0.671875q-0.796875 0.484375 -0.796875 1.546875q0 0.8125 0.484375 1.234375q0.484375 0.40625 1.328125 0.40625zm3.375 1.046875q-0.140625 -0.59375 -0.28125 -1.28125q-0.84375 0.84375 -1.59375 1.171875q-0.734375 0.328125 -1.734375 0.328125q-1.421875 0 -2.296875 -0.75q-0.859375 -0.75 -0.859375 -2.15625q0 -1.546875 1.171875 -2.296875q1.1875 -0.765625 3.421875 -0.9375q0.296875 -0.03125 0.90625 -0.078125q0.625 -0.0625 0.9375 -0.09375l0 -0.890625q0 -1.078125 -0.5 -1.59375q-0.5 -0.515625 -1.578125 -0.515625q-1.5 0 -3.03125 0.734375q-0.046875 -0.109375 -0.25 -0.640625q-0.1875 -0.53125 -0.203125 -0.5625q0.6875 -0.375 1.609375 -0.59375q0.9375 -0.234375 1.90625 -0.234375q1.890625 0 2.734375 0.828125q0.84375 0.828125 0.84375 2.828125l0 6.734375l-1.203125 0zm6.424103 0.1875q-1.484375 0 -2.109375 -0.796875q-0.609375 -0.796875 -0.609375 -2.78125l0 -10.734375l1.546875 -0.09375l0 10.21875q0 0.625 0 1.015625q0.015625 0.375 0.078125 0.75q0.0625 0.359375 0.140625 0.546875q0.09375 0.1875 0.265625 0.34375q0.1875 0.140625 0.421875 0.203125q0.25 0.046875 0.625 0.046875q0.296875 0 1.15625 -0.109375l0.09375 1.234375q-0.953125 0.15625 -1.609375 0.15625zm5.1832886 0q-1.484375 0 -2.109375 -0.796875q-0.609375 -0.796875 -0.609375 -2.78125l0 -10.734375l1.546875 -0.09375l0 10.21875q0 0.625 0 1.015625q0.015625 0.375 0.078125 0.75q0.0625 0.359375 0.140625 0.546875q0.09375 0.1875 0.265625 0.34375q0.1875 0.140625 0.421875 0.203125q0.25 0.046875 0.625 0.046875q0.296875 0 1.15625 -0.109375l0.09375 1.234375q-0.953125 0.15625 -1.609375 0.15625z" fill-rule="nonzero"></path><path fill="#a2c4c9" d="m118.27034 215.24672l227.59056 0l0 74.5197l-227.59056 0z" fill-rule="nonzero"></path><path stroke="#45818e" stroke-width="4.0" stroke-linejoin="round" stroke-linecap="butt" d="m118.27034 215.24672l227.59056 0l0 74.5197l-227.59056 0z" fill-rule="nonzero"></path><path fill="#000000" d="m200.38779 259.42654l-1.828125 0l-7.125 -10.79686l-0.453125 -0.640625q0.078125 1.953125 0.078125 3.484375l0 7.9531097l-1.515625 0l0 -13.718735l1.796875 0l7.140625 10.79686l0.46875 0.640625q-0.0625 -2.9531097 -0.0625 -3.4218597l0 -8.015625l1.5 0l0 13.718735zm5.6224976 -1.046875q1.109375 0 1.9375 -0.59375q0.84375 -0.609375 1.09375 -1.640625l0 -1.7187347q-0.046875 0 -0.5625 0.046875q-0.515625 0.046875 -0.671875 0.046875q-2.015625 0.1875 -2.8125 0.671875q-0.796875 0.484375 -0.796875 1.5468597q0 0.8125 0.484375 1.234375q0.484375 0.40625 1.328125 0.40625zm3.375 1.046875q-0.140625 -0.59375 -0.28125 -1.28125q-0.84375 0.84375 -1.59375 1.171875q-0.734375 0.328125 -1.734375 0.328125q-1.421875 0 -2.296875 -0.75q-0.859375 -0.75 -0.859375 -2.15625q0 -1.5468597 1.171875 -2.2968597q1.1875 -0.765625 3.421875 -0.9375q0.296875 -0.03125 0.90625 -0.078125q0.625 -0.0625 0.9375 -0.09375l0 -0.890625q0 -1.078125 -0.5 -1.59375q-0.5 -0.515625 -1.578125 -0.515625q-1.5 0 -3.03125 0.734375q-0.046875 -0.109375 -0.25 -0.640625q-0.1875 -0.53125 -0.203125 -0.5625q0.6875 -0.375 1.609375 -0.59375q0.9375 -0.234375 1.90625 -0.234375q1.890625 0 2.734375 0.828125q0.84375 0.828125 0.84375 2.828125l0 6.7343597l-1.203125 0zm6.939728 0.1875q-1.5 0 -2.140625 -0.734375q-0.625 -0.734375 -0.671875 -2.359375l0 -6.1249847l-1.5 0l0.0625 -1.015625l1.4375 -0.125l0.53125 -2.328125l1.015625 -0.046875l0 2.375l2.828125 0l0 1.140625l-2.828125 0l0 5.8437347q0 1.15625 0.34375 1.640625q0.359375 0.46875 1.21875 0.46875q0.296875 0 1.328125 -0.15625l0.0625 1.21875q-1.109375 0.203125 -1.6875 0.203125zm5.045868 -10.35936l0 10.17186l-1.5625 0l0 -10.17186l1.5625 0zm0 -3.703125l0 1.828125l-1.5625 0l0 -1.828125l1.5625 0zm5.436203 13.874985l-3.953125 -10.17186l1.671875 0l2.234375 6.046875q0 0 0.9375 2.5781097q0.3125 -1.0 0.875 -2.5624847q0.703125 -1.984375 2.1875 -6.0625l1.640625 0l-3.90625 10.17186l-1.6875 0zm12.6418915 -8.29686q-0.671875 -0.8125 -1.859375 -0.8125q-1.1875 0 -1.9375 0.84375q-0.75 0.828125 -0.890625 2.296875l5.375 0q0 -1.515625 -0.6875 -2.328125zm-1.5625 8.51561q-2.203125 0 -3.484375 -1.40625q-1.28125 -1.421875 -1.28125 -3.8749847q0 -2.359375 1.234375 -3.828125q1.234375 -1.46875 3.25 -1.5q1.890625 0 3.0 1.296875q1.109375 1.296875 1.109375 3.453125q0 0.109375 -0.015625 0.40625q0 0.296875 0 0.421875l-6.984375 0q0.03125 1.7343597 0.890625 2.7187347q0.875 0.96875 2.34375 0.96875q1.609375 0 3.234375 -0.859375l0.25 1.25q-1.5625 0.953125 -3.546875 0.953125zm14.748276 0q-2.234375 0 -3.5 -1.453125q-1.265625 -1.46875 -1.265625 -3.8281097q0 -2.375 1.28125 -3.84375q1.296875 -1.484375 3.53125 -1.484375q0.78125 0 1.515625 0.203125q0.75 0.1875 1.171875 0.5l-0.421875 1.203125q-1.09375 -0.578125 -2.296875 -0.578125q-1.46875 0 -2.328125 1.078125q-0.859375 1.078125 -0.859375 2.9375q0 1.8124847 0.84375 2.8749847q0.84375 1.0625 2.359375 1.0625q1.1875 0 2.4375 -0.640625l0.203125 1.234375q-1.015625 0.734375 -2.671875 0.734375zm7.4586334 -1.265625q1.109375 0 1.9375 -0.59375q0.84375 -0.609375 1.09375 -1.640625l0 -1.7187347q-0.046875 0 -0.5625 0.046875q-0.515625 0.046875 -0.671875 0.046875q-2.015625 0.1875 -2.8125 0.671875q-0.796875 0.484375 -0.796875 1.5468597q0 0.8125 0.484375 1.234375q0.484375 0.40625 1.328125 0.40625zm3.375 1.046875q-0.140625 -0.59375 -0.28125 -1.28125q-0.84375 0.84375 -1.59375 1.171875q-0.734375 0.328125 -1.734375 0.328125q-1.421875 0 -2.296875 -0.75q-0.859375 -0.75 -0.859375 -2.15625q0 -1.5468597 1.171875 -2.2968597q1.1875 -0.765625 3.421875 -0.9375q0.296875 -0.03125 0.90625 -0.078125q0.625 -0.0625 0.9375 -0.09375l0 -0.890625q0 -1.078125 -0.5 -1.59375q-0.5 -0.515625 -1.578125 -0.515625q-1.5 0 -3.03125 0.734375q-0.046875 -0.109375 -0.25 -0.640625q-0.1875 -0.53125 -0.203125 -0.5625q0.6875 -0.375 1.609375 -0.59375q0.9375 -0.234375 1.90625 -0.234375q1.890625 0 2.734375 0.828125q0.84375 0.828125 0.84375 2.828125l0 6.7343597l-1.203125 0zm6.424103 0.1875q-1.484375 0 -2.109375 -0.796875q-0.609375 -0.796875 -0.609375 -2.78125l0 -10.73436l1.546875 -0.09375l0 10.21875q0 0.62498474 0 1.0156097q0.015625 0.375 0.078125 0.75q0.0625 0.359375 0.140625 0.546875q0.09375 0.1875 0.265625 0.34375q0.1875 0.140625 0.421875 0.203125q0.25 0.046875 0.625 0.046875q0.296875 0 1.15625 -0.109375l0.09375 1.234375q-0.953125 0.15625 -1.609375 0.15625zm5.1832886 0q-1.484375 0 -2.109375 -0.796875q-0.609375 -0.796875 -0.609375 -2.78125l0 -10.73436l1.546875 -0.09375l0 10.21875q0 0.62498474 0 1.0156097q0.015625 0.375 0.078125 0.75q0.0625 0.359375 0.140625 0.546875q0.09375 0.1875 0.265625 0.34375q0.1875 0.140625 0.421875 0.203125q0.25 0.046875 0.625 0.046875q0.296875 0 1.15625 -0.109375l0.09375 1.234375q-0.953125 0.15625 -1.609375 0.15625z" fill-rule="nonzero"></path><path fill="#a2c4c9" d="m118.27034 68.727036l227.59056 0l0 74.519684l-227.59056 0z" fill-rule="nonzero"></path><path stroke="#45818e" stroke-width="4.0" stroke-linejoin="round" stroke-linecap="butt" d="m118.27034 68.727036l227.59056 0l0 74.519684l-227.59056 0z" fill-rule="nonzero"></path><path fill="#000000" d="m200.38779 112.906876l-1.828125 0l-7.125 -10.796875l-0.453125 -0.640625q0.078125 1.953125 0.078125 3.484375l0 7.953125l-1.515625 0l0 -13.71875l1.796875 0l7.140625 10.796875l0.46875 0.640625q-0.0625 -2.953125 -0.0625 -3.421875l0 -8.015625l1.5 0l0 13.71875zm5.6224976 -1.046875q1.109375 0 1.9375 -0.59375q0.84375 -0.609375 1.09375 -1.640625l0 -1.71875q-0.046875 0 -0.5625 0.046875q-0.515625 0.046875 -0.671875 0.046875q-2.015625 0.1875 -2.8125 0.671875q-0.796875 0.484375 -0.796875 1.546875q0 0.8125 0.484375 1.234375q0.484375 0.40625 1.328125 0.40625zm3.375 1.046875q-0.140625 -0.59375 -0.28125 -1.28125q-0.84375 0.84375 -1.59375 1.171875q-0.734375 0.328125 -1.734375 0.328125q-1.421875 0 -2.296875 -0.75q-0.859375 -0.75 -0.859375 -2.15625q0 -1.546875 1.171875 -2.296875q1.1875 -0.765625 3.421875 -0.9375q0.296875 -0.03125 0.90625 -0.078125q0.625 -0.0625 0.9375 -0.09375l0 -0.890625q0 -1.078125 -0.5 -1.59375q-0.5 -0.515625 -1.578125 -0.515625q-1.5 0 -3.03125 0.734375q-0.046875 -0.109375 -0.25 -0.640625q-0.1875 -0.53125 -0.203125 -0.5625q0.6875 -0.375 1.609375 -0.59375q0.9375 -0.234375 1.90625 -0.234375q1.890625 0 2.734375 0.828125q0.84375 0.828125 0.84375 2.828125l0 6.734375l-1.203125 0zm6.939728 0.1875q-1.5 0 -2.140625 -0.734375q-0.625 -0.734375 -0.671875 -2.359375l0 -6.125l-1.5 0l0.0625 -1.015625l1.4375 -0.125l0.53125 -2.328125l1.015625 -0.046875l0 2.375l2.828125 0l0 1.140625l-2.828125 0l0 5.84375q0 1.15625 0.34375 1.640625q0.359375 0.46875 1.21875 0.46875q0.296875 0 1.328125 -0.15625l0.0625 1.21875q-1.109375 0.203125 -1.6875 0.203125zm5.045868 -10.359375l0 10.171875l-1.5625 0l0 -10.171875l1.5625 0zm0 -3.703125l0 1.828125l-1.5625 0l0 -1.828125l1.5625 0zm5.436203 13.875l-3.953125 -10.171875l1.671875 0l2.234375 6.046875q0 0 0.9375 2.578125q0.3125 -1.0 0.875 -2.5625q0.703125 -1.984375 2.1875 -6.0625l1.640625 0l-3.90625 10.171875l-1.6875 0zm12.6418915 -8.296875q-0.671875 -0.8125 -1.859375 -0.8125q-1.1875 0 -1.9375 0.84375q-0.75 0.828125 -0.890625 2.296875l5.375 0q0 -1.515625 -0.6875 -2.328125zm-1.5625 8.515625q-2.203125 0 -3.484375 -1.40625q-1.28125 -1.421875 -1.28125 -3.875q0 -2.359375 1.234375 -3.828125q1.234375 -1.46875 3.25 -1.5q1.890625 0 3.0 1.296875q1.109375 1.296875 1.109375 3.453125q0 0.109375 -0.015625 0.40625q0 0.296875 0 0.421875l-6.984375 0q0.03125 1.734375 0.890625 2.71875q0.875 0.96875 2.34375 0.96875q1.609375 0 3.234375 -0.859375l0.25 1.25q-1.5625 0.953125 -3.546875 0.953125zm14.748276 0q-2.234375 0 -3.5 -1.453125q-1.265625 -1.46875 -1.265625 -3.828125q0 -2.375 1.28125 -3.84375q1.296875 -1.484375 3.53125 -1.484375q0.78125 0 1.515625 0.203125q0.75 0.1875 1.171875 0.5l-0.421875 1.203125q-1.09375 -0.578125 -2.296875 -0.578125q-1.46875 0 -2.328125 1.078125q-0.859375 1.078125 -0.859375 2.9375q0 1.8125 0.84375 2.875q0.84375 1.0625 2.359375 1.0625q1.1875 0 2.4375 -0.640625l0.203125 1.234375q-1.015625 0.734375 -2.671875 0.734375zm7.4586334 -1.265625q1.109375 0 1.9375 -0.59375q0.84375 -0.609375 1.09375 -1.640625l0 -1.71875q-0.046875 0 -0.5625 0.046875q-0.515625 0.046875 -0.671875 0.046875q-2.015625 0.1875 -2.8125 0.671875q-0.796875 0.484375 -0.796875 1.546875q0 0.8125 0.484375 1.234375q0.484375 0.40625 1.328125 0.40625zm3.375 1.046875q-0.140625 -0.59375 -0.28125 -1.28125q-0.84375 0.84375 -1.59375 1.171875q-0.734375 0.328125 -1.734375 0.328125q-1.421875 0 -2.296875 -0.75q-0.859375 -0.75 -0.859375 -2.15625q0 -1.546875 1.171875 -2.296875q1.1875 -0.765625 3.421875 -0.9375q0.296875 -0.03125 0.90625 -0.078125q0.625 -0.0625 0.9375 -0.09375l0 -0.890625q0 -1.078125 -0.5 -1.59375q-0.5 -0.515625 -1.578125 -0.515625q-1.5 0 -3.03125 0.734375q-0.046875 -0.109375 -0.25 -0.640625q-0.1875 -0.53125 -0.203125 -0.5625q0.6875 -0.375 1.609375 -0.59375q0.9375 -0.234375 1.90625 -0.234375q1.890625 0 2.734375 0.828125q0.84375 0.828125 0.84375 2.828125l0 6.734375l-1.203125 0zm6.424103 0.1875q-1.484375 0 -2.109375 -0.796875q-0.609375 -0.796875 -0.609375 -2.78125l0 -10.734375l1.546875 -0.09375l0 10.21875q0 0.625 0 1.015625q0.015625 0.375 0.078125 0.75q0.0625 0.359375 0.140625 0.546875q0.09375 0.1875 0.265625 0.34375q0.1875 0.140625 0.421875 0.203125q0.25 0.046875 0.625 0.046875q0.296875 0 1.15625 -0.109375l0.09375 1.234375q-0.953125 0.15625 -1.609375 0.15625zm5.1832886 0q-1.484375 0 -2.109375 -0.796875q-0.609375 -0.796875 -0.609375 -2.78125l0 -10.734375l1.546875 -0.09375l0 10.21875q0 0.625 0 1.015625q0.015625 0.375 0.078125 0.75q0.0625 0.359375 0.140625 0.546875q0.09375 0.1875 0.265625 0.34375q0.1875 0.140625 0.421875 0.203125q0.25 0.046875 0.625 0.046875q0.296875 0 1.15625 -0.109375l0.09375 1.234375q-0.953125 0.15625 -1.609375 0.15625z" fill-rule="nonzero"></path><path fill="#000000" fill-opacity="0.0" d="m118.27034 144.656l227.59056 0" fill-rule="nonzero"></path><path stroke="#cc0000" stroke-width="4.0" stroke-linejoin="round" stroke-linecap="butt" d="m118.27034 144.656l227.59056 0" fill-rule="nonzero"></path><path fill="#000000" fill-opacity="0.0" d="m118.27034 215.32513l227.59056 0" fill-rule="nonzero"></path><path stroke="#cc0000" stroke-width="4.0" stroke-linejoin="round" stroke-linecap="butt" d="m118.27034 215.32513l227.59056 0" fill-rule="nonzero"></path><path fill="#000000" fill-opacity="0.0" d="m429.44095 335.06824l182.3937 0l0 54.551178l-182.3937 0z" fill-rule="nonzero"></path><path fill="#000000" d="m448.03723 361.98825l0 -13.59375l2.96875 0l4.109375 9.8125l4.140625 -9.8125l2.921875 0l0 13.59375l-2.3125 0l0 -6.71875l0.078125 -3.84375l-0.34375 1.015625l-3.484375 8.625l-2.15625 0l-3.40625 -8.671875l-0.34375 -1.015625l0.09375 3.921875l0 6.6875l-2.265625 0zm19.223694 0.1875q-1.421875 0 -2.296875 -0.78125q-0.875 -0.78125 -0.875 -2.25q0 -1.59375 1.03125 -2.359375q1.046875 -0.765625 3.140625 -0.96875q0.296875 -0.03125 0.625 -0.0625q0.328125 -0.046875 0.75 -0.078125q0.421875 -0.046875 0.65625 -0.078125l0 -0.53125q0 -0.921875 -0.421875 -1.34375q-0.421875 -0.421875 -1.296875 -0.421875q-1.25 0 -3.078125 0.6875q0 -0.03125 -0.296875 -0.84375q-0.296875 -0.8125 -0.3125 -0.828125q1.796875 -0.78125 3.90625 -0.78125q2.046875 0 2.984375 0.90625q0.9375 0.890625 0.9375 2.890625l0 6.65625l-1.796875 0q0 -0.03125 -0.203125 -0.609375q-0.1875 -0.59375 -0.1875 -0.640625q-0.765625 0.75 -1.5 1.09375q-0.71875 0.34375 -1.765625 0.34375zm0.65625 -1.71875q0.84375 0 1.46875 -0.40625q0.640625 -0.40625 0.90625 -0.96875l0 -1.96875q-0.03125 0 -0.5 0.03125q-0.453125 0.03125 -0.484375 0.03125q-1.484375 0.140625 -2.171875 0.5625q-0.671875 0.421875 -0.671875 1.375q0 0.640625 0.375 1.0q0.375 0.34375 1.078125 0.34375zm11.137421 1.671875q-1.046875 0 -1.734375 -0.25q-0.6875 -0.25 -1.078125 -0.765625q-0.390625 -0.53125 -0.5625 -1.25q-0.15625 -0.71875 -0.15625 -1.78125l0 -4.8125l-1.671875 0l0.09375 -1.3125l1.75 -0.171875l0.78125 -2.75l1.484375 -0.015625l0 2.765625l2.53125 0l0 1.484375l-2.53125 0l0 4.859375q0 1.15625 0.328125 1.65625q0.328125 0.484375 1.234375 0.484375q0.53125 0 1.125 -0.09375l0.078125 1.75q-0.03125 0 -0.234375 0.046875q-0.203125 0.03125 -0.40625 0.0625q-0.1875 0.03125 -0.484375 0.0625q-0.296875 0.03125 -0.546875 0.03125zm7.7055664 0.046875q-2.34375 0 -3.65625 -1.390625q-1.296875 -1.390625 -1.296875 -3.96875q0 -2.515625 1.359375 -3.890625q1.375 -1.390625 3.609375 -1.390625q1.796875 0 3.03125 0.78125l-0.578125 1.734375q-1.265625 -0.65625 -2.34375 -0.65625q-1.234375 0 -1.953125 0.875q-0.703125 0.875 -0.703125 2.5625q0 1.71875 0.703125 2.609375q0.703125 0.890625 1.984375 0.890625q1.328125 0 2.5625 -0.796875l0.234375 1.84375q-0.640625 0.4375 -1.328125 0.609375q-0.6875 0.1875 -1.625 0.1875zm4.713623 -0.1875l0 -13.953125l2.4375 -0.15625l0 2.9375q0 0.21875 -0.03125 1.1875q-0.03125 0.96875 -0.03125 0.984375q1.21875 -1.453125 3.265625 -1.453125q1.703125 0 2.640625 0.984375q0.953125 0.984375 0.953125 3.015625l0 6.453125l-2.4375 0l0 -6.1875q0 -1.25 -0.40625 -1.828125q-0.390625 -0.59375 -1.34375 -0.59375q-0.8125 0 -1.453125 0.421875q-0.625 0.40625 -0.9375 1.046875q-0.21875 0.859375 -0.21875 2.234375l0 4.90625l-2.4375 0zm11.476685 0l0 -10.203125l2.421875 0l0 10.203125l-2.421875 0zm0 -11.6875l0 -2.078125l2.4375 0l0 2.078125l-2.4375 0zm4.865753 11.6875l0 -10.203125l1.953125 0l0.265625 1.296875q1.5625 -1.546875 3.46875 -1.546875q1.78125 0 2.65625 1.03125q0.890625 1.03125 0.890625 2.96875l0 6.453125l-2.4375 0l0 -6.15625q0 -1.234375 -0.390625 -1.84375q-0.390625 -0.609375 -1.40625 -0.609375q-0.78125 0 -1.4375 0.40625q-0.65625 0.40625 -0.953125 1.015625q-0.171875 0.71875 -0.171875 2.21875l0 4.96875l-2.4375 0zm13.470154 4.5625l-0.140625 -1.96875l1.234375 0q2.140625 0 2.984375 -0.578125q0.859375 -0.5625 0.859375 -2.078125q0 -0.625 -0.046875 -1.34375q-0.25 0.328125 -0.46875 0.546875q-0.21875 0.21875 -0.546875 0.4375q-0.328125 0.203125 -0.796875 0.3125q-0.453125 0.109375 -1.03125 0.109375q-2.03125 0 -3.328125 -1.453125q-1.296875 -1.453125 -1.296875 -3.765625q0 -1.21875 0.359375 -2.21875q0.359375 -1.015625 0.96875 -1.65625q0.625 -0.65625 1.4375 -1.0q0.8125 -0.359375 1.734375 -0.359375q2.046875 0 3.046875 1.5l0.171875 -1.25l2.171875 0l0 9.484375q0 0.75 -0.078125 1.359375q-0.0625 0.609375 -0.25 1.171875q-0.1875 0.5625 -0.5 0.96875q-0.296875 0.421875 -0.75 0.765625q-0.453125 0.34375 -1.078125 0.5625q-0.609375 0.21875 -1.421875 0.328125q-0.8125 0.125 -1.84375 0.125l-1.390625 0zm2.4375 -6.265625q2.515625 0 2.53125 -3.359375l0 -0.359375q-0.015625 -1.515625 -0.625 -2.328125q-0.609375 -0.828125 -1.796875 -0.84375q-1.328125 0 -2.015625 0.921875q-0.6875 0.90625 -0.6875 2.453125q0 1.5 0.6875 2.515625q0.703125 1.0 1.90625 1.0zm16.454346 1.890625q-2.34375 0 -3.65625 -1.390625q-1.296875 -1.390625 -1.296875 -3.96875q0 -2.515625 1.359375 -3.890625q1.375 -1.390625 3.609375 -1.390625q1.796875 0 3.03125 0.78125l-0.578125 1.734375q-1.265625 -0.65625 -2.34375 -0.65625q-1.234375 0 -1.953125 0.875q-0.703125 0.875 -0.703125 2.5625q0 1.71875 0.703125 2.609375q0.703125 0.890625 1.984375 0.890625q1.328125 0 2.5625 -0.796875l0.234375 1.84375q-0.640625 0.4375 -1.328125 0.609375q-0.6875 0.1875 -1.625 0.1875zm7.401123 0q-1.421875 0 -2.296875 -0.78125q-0.875 -0.78125 -0.875 -2.25q0 -1.59375 1.03125 -2.359375q1.046875 -0.765625 3.140625 -0.96875q0.296875 -0.03125 0.625 -0.0625q0.328125 -0.046875 0.75 -0.078125q0.421875 -0.046875 0.65625 -0.078125l0 -0.53125q0 -0.921875 -0.421875 -1.34375q-0.421875 -0.421875 -1.296875 -0.421875q-1.25 0 -3.078125 0.6875q0 -0.03125 -0.296875 -0.84375q-0.296875 -0.8125 -0.3125 -0.828125q1.796875 -0.78125 3.90625 -0.78125q2.046875 0 2.984375 0.90625q0.9375 0.890625 0.9375 2.890625l0 6.65625l-1.796875 0q0 -0.03125 -0.203125 -0.609375q-0.1875 -0.59375 -0.1875 -0.640625q-0.765625 0.75 -1.5 1.09375q-0.71875 0.34375 -1.765625 0.34375zm0.65625 -1.71875q0.84375 0 1.46875 -0.40625q0.640625 -0.40625 0.90625 -0.96875l0 -1.96875q-0.03125 0 -0.5 0.03125q-0.453125 0.03125 -0.484375 0.03125q-1.484375 0.140625 -2.171875 0.5625q-0.671875 0.421875 -0.671875 1.375q0 0.640625 0.375 1.0q0.375 0.34375 1.078125 0.34375zm10.637451 1.671875q-1.0625 0 -1.75 -0.25q-0.6875 -0.25 -1.09375 -0.78125q-0.390625 -0.53125 -0.546875 -1.265625q-0.15625 -0.75 -0.15625 -1.859375l0 -9.9375l2.421875 -0.15625l0 10.046875q0 1.375 0.328125 1.859375q0.328125 0.484375 1.265625 0.484375q0.46875 0 1.171875 -0.09375l0.0625 1.734375q0 0 -0.21875 0.046875q-0.21875 0.046875 -0.421875 0.078125q-0.203125 0.03125 -0.515625 0.0625q-0.296875 0.03125 -0.546875 0.03125zm6.376648 0q-1.0625 0 -1.75 -0.25q-0.6875 -0.25 -1.09375 -0.78125q-0.390625 -0.53125 -0.546875 -1.265625q-0.15625 -0.75 -0.15625 -1.859375l0 -9.9375l2.421875 -0.15625l0 10.046875q0 1.375 0.328125 1.859375q0.328125 0.484375 1.265625 0.484375q0.46875 0 1.171875 -0.09375l0.0625 1.734375q0 0 -0.21875 0.046875q-0.21875 0.046875 -0.421875 0.078125q-0.203125 0.03125 -0.515625 0.0625q-0.296875 0.03125 -0.546875 0.03125zm2.861023 -0.140625l0 -10.203125l2.421875 0l0 10.203125l-2.421875 0zm0 -11.6875l0 -2.078125l2.4375 0l0 2.078125l-2.4375 0zm4.8657227 11.6875l0 -10.203125l1.953125 0l0.265625 1.296875q1.5625 -1.546875 3.46875 -1.546875q1.78125 0 2.65625 1.03125q0.890625 1.03125 0.890625 2.96875l0 6.453125l-2.4375 0l0 -6.15625q0 -1.234375 -0.390625 -1.84375q-0.390625 -0.609375 -1.40625 -0.609375q-0.78125 0 -1.4375 0.40625q-0.65625 0.40625 -0.953125 1.015625q-0.171875 0.71875 -0.171875 2.21875l0 4.96875l-2.4375 0zm13.470215 4.5625l-0.140625 -1.96875l1.234375 0q2.140625 0 2.984375 -0.578125q0.859375 -0.5625 0.859375 -2.078125q0 -0.625 -0.046875 -1.34375q-0.25 0.328125 -0.46875 0.546875q-0.21875 0.21875 -0.546875 0.4375q-0.328125 0.203125 -0.796875 0.3125q-0.453125 0.109375 -1.03125 0.109375q-2.03125 0 -3.328125 -1.453125q-1.296875 -1.453125 -1.296875 -3.765625q0 -1.21875 0.359375 -2.21875q0.359375 -1.015625 0.96875 -1.65625q0.625 -0.65625 1.4375 -1.0q0.8125 -0.359375 1.734375 -0.359375q2.046875 0 3.046875 1.5l0.171875 -1.25l2.171875 0l0 9.484375q0 0.75 -0.078125 1.359375q-0.0625 0.609375 -0.25 1.171875q-0.1875 0.5625 -0.5 0.96875q-0.296875 0.421875 -0.75 0.765625q-0.453125 0.34375 -1.078125 0.5625q-0.609375 0.21875 -1.421875 0.328125q-0.8125 0.125 -1.84375 0.125l-1.390625 0zm2.4375 -6.265625q2.515625 0 2.53125 -3.359375l0 -0.359375q-0.015625 -1.515625 -0.625 -2.328125q-0.609375 -0.828125 -1.796875 -0.84375q-1.328125 0 -2.015625 0.921875q-0.6875 0.90625 -0.6875 2.453125q0 1.5 0.6875 2.515625q0.703125 1.0 1.90625 1.0z" fill-rule="nonzero"></path><path fill="#000000" d="m476.96744 384.17575q-2.34375 0 -3.65625 -1.390625q-1.296875 -1.390625 -1.296875 -3.96875q0 -2.515625 1.359375 -3.890625q1.375 -1.390625 3.609375 -1.390625q1.796875 0 3.03125 0.78125l-0.578125 1.734375q-1.265625 -0.65625 -2.34375 -0.65625q-1.234375 0 -1.953125 0.875q-0.703125 0.875 -0.703125 2.5625q0 1.71875 0.703125 2.609375q0.703125 0.890625 1.984375 0.890625q1.328125 0 2.5625 -0.796875l0.234375 1.84375q-0.640625 0.4375 -1.328125 0.609375q-0.6875 0.1875 -1.625 0.1875zm9.151123 -1.84375q1.234375 0 1.859375 -0.890625q0.625 -0.90625 0.625 -2.578125q0 -1.703125 -0.625 -2.59375q-0.625 -0.890625 -1.875 -0.890625q-1.234375 0 -1.859375 0.90625q-0.625 0.890625 -0.625 2.578125q0 1.671875 0.625 2.578125q0.640625 0.890625 1.875 0.890625zm-0.0625 1.84375q-2.265625 0 -3.5625 -1.453125q-1.296875 -1.46875 -1.296875 -3.859375q0 -2.46875 1.296875 -3.890625q1.296875 -1.4375 3.671875 -1.4375q2.28125 0 3.5625 1.453125q1.296875 1.453125 1.296875 3.875q0 2.4375 -1.3125 3.875q-1.296875 1.4375 -3.65625 1.4375zm6.7568054 -0.1875l0 -10.203125l1.953125 0l0.265625 1.296875q1.5625 -1.546875 3.46875 -1.546875q1.78125 0 2.65625 1.03125q0.890625 1.03125 0.890625 2.96875l0 6.453125l-2.4375 0l0 -6.15625q0 -1.234375 -0.390625 -1.84375q-0.390625 -0.609375 -1.40625 -0.609375q-0.78125 0 -1.4375 0.40625q-0.65625 0.40625 -0.953125 1.015625q-0.171875 0.71875 -0.171875 2.21875l0 4.96875l-2.4375 0zm14.282684 0l-4.0625 -10.203125l2.578125 0q0.140625 0.421875 0.9375 2.609375q0.796875 2.171875 1.0625 2.953125q0.515625 1.546875 0.75 2.328125q0 0 0.15625 -0.59375q0.15625 -0.59375 0.296875 -1.125q0.15625 -0.53125 0.1875 -0.640625q0.015625 -0.015625 0.84375 -2.546875q0.84375 -2.546875 1.0 -2.984375l2.5625305 0l-3.8594055 10.203125l-2.453125 0zm12.107574 0.1875q-2.46875 0 -3.84375 -1.40625q-1.359375 -1.421875 -1.359375 -3.90625q0 -2.4375 1.28125 -3.875q1.296875 -1.4375 3.53125 -1.453125q2.09375 0 3.25 1.328125q1.171875 1.3125 1.171875 3.5q0 0.15625 0 0.515625q0 0.34375 0 0.5l-6.78125 0q0.03125 1.4375 0.78125 2.21875q0.75 0.78125 2.0625 0.78125q1.65625 0 3.203125 -0.875l0.34375 1.734375q-1.53125 0.9375 -3.640625 0.9375zm-2.703125 -6.3125l4.453125 0q0 -1.25 -0.578125 -1.921875q-0.5625 -0.671875 -1.5625 -0.671875q-0.9375 0 -1.578125 0.65625q-0.640625 0.65625 -0.734375 1.9375zm8.524048 6.125l0 -10.203125l1.953125 0l0.265625 1.296875q1.5625 -1.546875 3.46875 -1.546875q1.78125 0 2.65625 1.03125q0.890625 1.03125 0.890625 2.96875l0 6.453125l-2.4375 0l0 -6.15625q0 -1.234375 -0.390625 -1.84375q-0.390625 -0.609375 -1.40625 -0.609375q-0.78125 0 -1.4375 0.40625q-0.65625 0.40625 -0.953125 1.015625q-0.171875 0.71875 -0.171875 2.21875l0 4.96875l-2.4375 0zm15.501465 0.140625q-1.046875 0 -1.734375 -0.25q-0.6875 -0.25 -1.078125 -0.765625q-0.390625 -0.53125 -0.5625 -1.25q-0.15625 -0.71875 -0.15625 -1.78125l0 -4.8125l-1.671875 0l0.09375 -1.3125l1.75 -0.171875l0.78125 -2.75l1.484375 -0.015625l0 2.765625l2.53125 0l0 1.484375l-2.53125 0l0 4.859375q0 1.15625 0.328125 1.65625q0.328125 0.484375 1.234375 0.484375q0.53125 0 1.125 -0.09375l0.078125 1.75q-0.03125 0 -0.234375 0.046875q-0.203125 0.03125 -0.40625 0.0625q-0.1875 0.03125 -0.484375 0.0625q-0.296875 0.03125 -0.546875 0.03125zm3.2992554 -0.140625l0 -10.203125l2.421875 0l0 10.203125l-2.421875 0zm0 -11.6875l0 -2.078125l2.4375 0l0 2.078125l-2.4375 0zm9.303284 10.03125q1.234375 0 1.859375 -0.890625q0.625 -0.90625 0.625 -2.578125q0 -1.703125 -0.625 -2.59375q-0.625 -0.890625 -1.875 -0.890625q-1.234375 0 -1.859375 0.90625q-0.625 0.890625 -0.625 2.578125q0 1.671875 0.625 2.578125q0.640625 0.890625 1.875 0.890625zm-0.0625 1.84375q-2.265625 0 -3.5625 -1.453125q-1.296875 -1.46875 -1.296875 -3.859375q0 -2.46875 1.296875 -3.890625q1.296875 -1.4375 3.671875 -1.4375q2.28125 0 3.5625 1.453125q1.296875 1.453125 1.296875 3.875q0 2.4375 -1.3125 3.875q-1.296875 1.4375 -3.65625 1.4375zm6.756775 -0.1875l0 -10.203125l1.953125 0l0.265625 1.296875q1.5625 -1.546875 3.46875 -1.546875q1.78125 0 2.65625 1.03125q0.890625 1.03125 0.890625 2.96875l0 6.453125l-2.4375 0l0 -6.15625q0 -1.234375 -0.390625 -1.84375q-0.390625 -0.609375 -1.40625 -0.609375q-0.78125 0 -1.4375 0.40625q-0.65625 0.40625 -0.953125 1.015625q-0.171875 0.71875 -0.171875 2.21875l0 4.96875l-2.4375 0z" fill-rule="nonzero"></path><path fill="#000000" fill-opacity="0.0" d="m429.44095 362.34384l-81.13385 0" fill-rule="nonzero"></path><path stroke="#000000" stroke-width="2.0" stroke-linejoin="round" stroke-linecap="butt" d="m429.44095 362.34384l-69.13385 0" fill-rule="evenodd"></path><path fill="#000000" stroke="#000000" stroke-width="2.0" stroke-linecap="butt" d="m360.3071 359.04037l-9.076202 3.3034668l9.076202 3.3034668z" fill-rule="evenodd"></path><path fill="#000000" fill-opacity="0.0" d="m429.44095 188.40651l197.03934 0l0 54.551178l-197.03934 0z" fill-rule="nonzero"></path><path fill="#000000" d="m452.0631 215.514q-2.96875 0 -4.71875 -1.859375q-1.75 -1.875 -1.75 -5.1875q0 -3.125 1.828125 -5.015625q1.828125 -1.90625 4.78125 -1.90625q2.375 0 4.03125 1.09375l-0.796875 1.90625q-1.578125 -0.96875 -3.1875 -0.96875q-1.875 0 -2.96875 1.34375q-1.078125 1.34375 -1.078125 3.625q0 2.359375 1.046875 3.65625q1.046875 1.28125 3.0 1.28125q1.703125 0 3.390625 -0.859375l0.328125 1.96875q-1.5625 0.921875 -3.90625 0.921875zm8.382721 0q-1.421875 0 -2.296875 -0.78125q-0.875 -0.78125 -0.875 -2.25q0 -1.59375 1.03125 -2.359375q1.046875 -0.765625 3.140625 -0.96875q0.296875 -0.03125 0.625 -0.0625q0.328125 -0.046875 0.75 -0.078125q0.421875 -0.046875 0.65625 -0.078125l0 -0.53125q0 -0.921875 -0.421875 -1.34375q-0.421875 -0.421875 -1.296875 -0.421875q-1.25 0 -3.078125 0.6875q0 -0.03125 -0.296875 -0.84375q-0.296875 -0.8125 -0.3125 -0.828125q1.796875 -0.78125 3.90625 -0.78125q2.046875 0 2.984375 0.90625q0.9375 0.890625 0.9375 2.890625l0 6.65625l-1.796875 0q0 -0.03125 -0.203125 -0.609375q-0.1875 -0.59375 -0.1875 -0.640625q-0.765625 0.75 -1.5 1.09375q-0.71875 0.34375 -1.765625 0.34375zm0.65625 -1.71875q0.84375 0 1.46875 -0.40625q0.640625 -0.40625 0.90625 -0.96875l0 -1.96875q-0.03125 0 -0.5 0.03125q-0.453125 0.03125 -0.484375 0.03125q-1.484375 0.140625 -2.171875 0.5625q-0.671875 0.421875 -0.671875 1.375q0 0.640625 0.375 1.0q0.375 0.34375 1.078125 0.34375zm10.637421 1.671875q-1.0625 0 -1.75 -0.25q-0.6875 -0.25 -1.09375 -0.78125q-0.390625 -0.53125 -0.546875 -1.265625q-0.15625 -0.75 -0.15625 -1.859375l0 -9.9375l2.421875 -0.15625l0 10.046875q0 1.375 0.328125 1.859375q0.328125 0.484375 1.265625 0.484375q0.46875 0 1.171875 -0.09375l0.0625 1.734375q0 0 -0.21875 0.046875q-0.21875 0.046875 -0.421875 0.078125q-0.203125 0.03125 -0.515625 0.0625q-0.296875 0.03125 -0.546875 0.03125zm6.376648 0q-1.0625 0 -1.75 -0.25q-0.6875 -0.25 -1.09375 -0.78125q-0.390625 -0.53125 -0.546875 -1.265625q-0.15625 -0.75 -0.15625 -1.859375l0 -9.9375l2.421875 -0.15625l0 10.046875q0 1.375 0.328125 1.859375q0.328125 0.484375 1.265625 0.484375q0.46875 0 1.171875 -0.09375l0.0625 1.734375q0 0 -0.21875 0.046875q-0.21875 0.046875 -0.421875 0.078125q-0.203125 0.03125 -0.515625 0.0625q-0.296875 0.03125 -0.546875 0.03125zm2.861023 -0.140625l0 -10.203125l2.421875 0l0 10.203125l-2.421875 0zm0 -11.6875l0 -2.078125l2.4375 0l0 2.078125l-2.4375 0zm4.8657227 11.6875l0 -10.203125l1.953125 0l0.265625 1.296875q1.5625 -1.546875 3.46875 -1.546875q1.78125 0 2.65625 1.03125q0.890625 1.03125 0.890625 2.96875l0 6.453125l-2.4375 0l0 -6.15625q0 -1.234375 -0.390625 -1.84375q-0.390625 -0.609375 -1.40625 -0.609375q-0.78125 0 -1.4375 0.40625q-0.65625 0.40625 -0.953125 1.015625q-0.171875 0.71875 -0.171875 2.21875l0 4.96875l-2.4375 0zm13.470184 4.5625l-0.140625 -1.96875l1.234375 0q2.140625 0 2.984375 -0.578125q0.859375 -0.5625 0.859375 -2.078125q0 -0.625 -0.046875 -1.34375q-0.25 0.328125 -0.46875 0.546875q-0.21875 0.21875 -0.546875 0.4375q-0.328125 0.203125 -0.796875 0.3125q-0.453125 0.109375 -1.03125 0.109375q-2.03125 0 -3.328125 -1.453125q-1.296875 -1.453125 -1.296875 -3.765625q0 -1.21875 0.359375 -2.21875q0.359375 -1.015625 0.96875 -1.65625q0.625 -0.65625 1.4375 -1.0q0.8125 -0.359375 1.734375 -0.359375q2.046875 0 3.046875 1.5l0.171875 -1.25l2.171875 0l0 9.484375q0 0.75 -0.078125 1.359375q-0.0625 0.609375 -0.25 1.171875q-0.1875 0.5625 -0.5 0.96875q-0.296875 0.421875 -0.75 0.765625q-0.453125 0.34375 -1.078125 0.5625q-0.609375 0.21875 -1.421875 0.328125q-0.8125 0.125 -1.84375 0.125l-1.390625 0zm2.4375 -6.265625q2.515625 0 2.53125 -3.359375l0 -0.359375q-0.015625 -1.515625 -0.625 -2.328125q-0.609375 -0.828125 -1.796875 -0.84375q-1.328125 0 -2.015625 0.921875q-0.6875 0.90625 -0.6875 2.453125q0 1.5 0.6875 2.515625q0.703125 1.0 1.90625 1.0zm16.454376 1.890625q-2.34375 0 -3.65625 -1.390625q-1.296875 -1.390625 -1.296875 -3.96875q0 -2.515625 1.359375 -3.890625q1.375 -1.390625 3.609375 -1.390625q1.796875 0 3.03125 0.78125l-0.578125 1.734375q-1.265625 -0.65625 -2.34375 -0.65625q-1.234375 0 -1.953125 0.875q-0.703125 0.875 -0.703125 2.5625q0 1.71875 0.703125 2.609375q0.703125 0.890625 1.984375 0.890625q1.328125 0 2.5625 -0.796875l0.234375 1.84375q-0.640625 0.4375 -1.328125 0.609375q-0.6875 0.1875 -1.625 0.1875zm9.151123 -1.84375q1.234375 0 1.859375 -0.890625q0.625 -0.90625 0.625 -2.578125q0 -1.703125 -0.625 -2.59375q-0.625 -0.890625 -1.875 -0.890625q-1.234375 0 -1.859375 0.90625q-0.625 0.890625 -0.625 2.578125q0 1.671875 0.625 2.578125q0.640625 0.890625 1.875 0.890625zm-0.0625 1.84375q-2.265625 0 -3.5625 -1.453125q-1.296875 -1.46875 -1.296875 -3.859375q0 -2.46875 1.296875 -3.890625q1.296875 -1.4375 3.671875 -1.4375q2.28125 0 3.5625 1.453125q1.296875 1.453125 1.296875 3.875q0 2.4375 -1.3125 3.875q-1.296875 1.4375 -3.65625 1.4375zm6.756775 -0.1875l0 -10.203125l1.953125 0l0.265625 1.296875q1.5625 -1.546875 3.46875 -1.546875q1.78125 0 2.65625 1.03125q0.890625 1.03125 0.890625 2.96875l0 6.453125l-2.4375 0l0 -6.15625q0 -1.234375 -0.390625 -1.84375q-0.390625 -0.609375 -1.40625 -0.609375q-0.78125 0 -1.4375 0.40625q-0.65625 0.40625 -0.953125 1.015625q-0.171875 0.71875 -0.171875 2.21875l0 4.96875l-2.4375 0zm14.282715 0l-4.0625 -10.203125l2.578125 0q0.140625 0.421875 0.9375 2.609375q0.796875 2.171875 1.0625 2.953125q0.515625 1.546875 0.75 2.328125q0 0 0.15625 -0.59375q0.15625 -0.59375 0.296875 -1.125q0.15625 -0.53125 0.1875 -0.640625q0.015625 -0.015625 0.84375 -2.546875q0.84375 -2.546875 1.0 -2.984375l2.5625 0l-3.859375 10.203125l-2.453125 0zm12.107544 0.1875q-2.46875 0 -3.84375 -1.40625q-1.359375 -1.421875 -1.359375 -3.90625q0 -2.4375 1.28125 -3.875q1.296875 -1.4375 3.53125 -1.453125q2.09375 0 3.25 1.328125q1.171875 1.3125 1.171875 3.5q0 0.15625 0 0.515625q0 0.34375 0 0.5l-6.78125 0q0.03125 1.4375 0.78125 2.21875q0.75 0.78125 2.0625 0.78125q1.65625 0 3.203125 -0.875l0.34375 1.734375q-1.53125 0.9375 -3.640625 0.9375zm-2.703125 -6.3125l4.453125 0q0 -1.25 -0.578125 -1.921875q-0.5625 -0.671875 -1.5625 -0.671875q-0.9375 0 -1.578125 0.65625q-0.640625 0.65625 -0.734375 1.9375zm8.524048 6.125l0 -10.203125l1.953125 0l0.265625 1.296875q1.5625 -1.546875 3.46875 -1.546875q1.78125 0 2.65625 1.03125q0.890625 1.03125 0.890625 2.96875l0 6.453125l-2.4375 0l0 -6.15625q0 -1.234375 -0.390625 -1.84375q-0.390625 -0.609375 -1.40625 -0.609375q-0.78125 0 -1.4375 0.40625q-0.65625 0.40625 -0.953125 1.015625q-0.171875 0.71875 -0.171875 2.21875l0 4.96875l-2.4375 0zm15.501465 0.140625q-1.046875 0 -1.734375 -0.25q-0.6875 -0.25 -1.078125 -0.765625q-0.390625 -0.53125 -0.5625 -1.25q-0.15625 -0.71875 -0.15625 -1.78125l0 -4.8125l-1.671875 0l0.09375 -1.3125l1.75 -0.171875l0.78125 -2.75l1.484375 -0.015625l0 2.765625l2.53125 0l0 1.484375l-2.53125 0l0 4.859375q0 1.15625 0.328125 1.65625q0.328125 0.484375 1.234375 0.484375q0.53125 0 1.125 -0.09375l0.078125 1.75q-0.03125 0 -0.234375 0.046875q-0.203125 0.03125 -0.40625 0.0625q-0.1875 0.03125 -0.484375 0.0625q-0.296875 0.03125 -0.546875 0.03125zm3.2992554 -0.140625l0 -10.203125l2.421875 0l0 10.203125l-2.421875 0zm0 -11.6875l0 -2.078125l2.4375 0l0 2.078125l-2.4375 0zm9.303284 10.03125q1.234375 0 1.859375 -0.890625q0.625 -0.90625 0.625 -2.578125q0 -1.703125 -0.625 -2.59375q-0.625 -0.890625 -1.875 -0.890625q-1.234375 0 -1.859375 0.90625q-0.625 0.890625 -0.625 2.578125q0 1.671875 0.625 2.578125q0.640625 0.890625 1.875 0.890625zm-0.0625 1.84375q-2.265625 0 -3.5625 -1.453125q-1.296875 -1.46875 -1.296875 -3.859375q0 -2.46875 1.296875 -3.890625q1.296875 -1.4375 3.671875 -1.4375q2.28125 0 3.5625 1.453125q1.296875 1.453125 1.296875 3.875q0 2.4375 -1.3125 3.875q-1.296875 1.4375 -3.65625 1.4375zm6.756775 -0.1875l0 -10.203125l1.953125 0l0.265625 1.296875q1.5625 -1.546875 3.46875 -1.546875q1.78125 0 2.65625 1.03125q0.890625 1.03125 0.890625 2.96875l0 6.453125l-2.4375 0l0 -6.15625q0 -1.234375 -0.390625 -1.84375q-0.390625 -0.609375 -1.40625 -0.609375q-0.78125 0 -1.4375 0.40625q-0.65625 0.40625 -0.953125 1.015625q-0.171875 0.71875 -0.171875 2.21875l0 4.96875l-2.4375 0z" fill-rule="nonzero"></path><path fill="#000000" d="m485.67892 237.3265l0 -10.203125l1.96875 0l0.28125 1.3125q0.1875 -0.234375 0.359375 -0.40625q0.171875 -0.1875 0.46875 -0.421875q0.296875 -0.234375 0.625 -0.375q0.34375 -0.15625 0.84375 -0.25q0.5 -0.109375 1.0625 -0.109375q1.21875 0 1.9375 0.5q0.734375 0.484375 1.03125 1.15625q0.546875 -0.796875 1.421875 -1.21875q0.875 -0.4375 1.9375 -0.4375q1.75 0 2.5625 1.0q0.828125 0.984375 0.828125 2.9375l0 6.515625l-2.4375 0l0 -5.796875q0 -1.484375 -0.328125 -2.140625q-0.328125 -0.671875 -1.25 -0.671875q-1.421875 0 -2.046875 1.28125q-0.25 0.5625 -0.34375 1.359375l0 5.96875l-2.4375 0l0 -5.90625q0 -1.359375 -0.359375 -2.015625q-0.359375 -0.671875 -1.3125 -0.671875q-0.765625 0 -1.328125 0.390625q-0.546875 0.375 -0.84375 1.015625q-0.203125 0.9375 -0.203125 2.25l0 4.9375l-2.4375 0zm17.470764 0l0 -10.203125l2.421875 0l0 10.203125l-2.421875 0zm0 -11.6875l0 -2.078125l2.4375 0l0 2.078125l-2.4375 0zm8.115723 11.875q-2.25 0 -3.609375 -0.765625l0.25 -1.828125q0.625 0.328125 1.5625 0.59375q0.953125 0.265625 1.734375 0.265625q0.796875 0 1.2500305 -0.296875q0.453125 -0.3125 0.453125 -0.890625q0 -0.53125 -0.421875 -0.828125q-0.421875 -0.3125 -1.6094055 -0.765625q-0.40625 -0.15625 -0.515625 -0.203125q-1.421875 -0.546875 -2.046875 -1.21875q-0.609375 -0.671875 -0.609375 -1.828125q0 -1.390625 1.0 -2.125q1.015625 -0.75 2.8125 -0.75q1.9531555 0 3.4219055 0.734375l-0.609375 1.6875q-1.453125 -0.6875 -2.7656555 -0.6875q-0.734375 0 -1.15625 0.25q-0.40625 0.25 -0.40625 0.75q0 0.46875 0.390625 0.734375q0.40625 0.265625 1.5625 0.6875q0.046875 0.015625 0.25003052 0.09375q0.203125 0.078125 0.3125 0.109375q1.40625 0.515625 2.0625 1.234375q0.65625 0.703125 0.65625 1.84375q-0.015625 1.53125 -1.046875 2.375q-1.015625 0.828125 -2.9219055 0.828125zm5.72287 -0.1875l0 -10.203125l1.96875 0l0.28125 1.3125q0.1875 -0.234375 0.359375 -0.40625q0.171875 -0.1875 0.46875 -0.421875q0.296875 -0.234375 0.625 -0.375q0.34375 -0.15625 0.84375 -0.25q0.5 -0.109375 1.0625 -0.109375q1.21875 0 1.9375 0.5q0.734375 0.484375 1.03125 1.15625q0.546875 -0.796875 1.421875 -1.21875q0.875 -0.4375 1.9375 -0.4375q1.75 0 2.5625 1.0q0.828125 0.984375 0.828125 2.9375l0 6.515625l-2.4375 0l0 -5.796875q0 -1.484375 -0.328125 -2.140625q-0.328125 -0.671875 -1.25 -0.671875q-1.421875 0 -2.046875 1.28125q-0.25 0.5625 -0.34375 1.359375l0 5.96875l-2.4375 0l0 -5.90625q0 -1.359375 -0.359375 -2.015625q-0.359375 -0.671875 -1.3125 -0.671875q-0.765625 0 -1.328125 0.390625q-0.546875 0.375 -0.84375 1.015625q-0.203125 0.9375 -0.203125 2.25l0 4.9375l-2.4375 0zm20.095764 0.1875q-1.421875 0 -2.296875 -0.78125q-0.875 -0.78125 -0.875 -2.25q0 -1.59375 1.03125 -2.359375q1.046875 -0.765625 3.140625 -0.96875q0.296875 -0.03125 0.625 -0.0625q0.328125 -0.046875 0.75 -0.078125q0.421875 -0.046875 0.65625 -0.078125l0 -0.53125q0 -0.921875 -0.421875 -1.34375q-0.421875 -0.421875 -1.296875 -0.421875q-1.25 0 -3.078125 0.6875q0 -0.03125 -0.296875 -0.84375q-0.296875 -0.8125 -0.3125 -0.828125q1.796875 -0.78125 3.90625 -0.78125q2.046875 0 2.984375 0.90625q0.9375 0.890625 0.9375 2.890625l0 6.65625l-1.796875 0q0 -0.03125 -0.203125 -0.609375q-0.1875 -0.59375 -0.1875 -0.640625q-0.765625 0.75 -1.5 1.09375q-0.71875 0.34375 -1.765625 0.34375zm0.65625 -1.71875q0.84375 0 1.46875 -0.40625q0.640625 -0.40625 0.90625 -0.96875l0 -1.96875q-0.03125 0 -0.5 0.03125q-0.453125 0.03125 -0.484375 0.03125q-1.484375 0.140625 -2.171875 0.5625q-0.671875 0.421875 -0.671875 1.375q0 0.640625 0.375 1.0q0.375 0.34375 1.078125 0.34375zm11.13739 1.671875q-1.046875 0 -1.734375 -0.25q-0.6875 -0.25 -1.078125 -0.765625q-0.390625 -0.53125 -0.5625 -1.25q-0.15625 -0.71875 -0.15625 -1.78125l0 -4.8125l-1.671875 0l0.09375 -1.3125l1.75 -0.171875l0.78125 -2.75l1.484375 -0.015625l0 2.765625l2.53125 0l0 1.484375l-2.53125 0l0 4.859375q0 1.15625 0.328125 1.65625q0.328125 0.484375 1.234375 0.484375q0.53125 0 1.125 -0.09375l0.078125 1.75q-0.03125 0 -0.234375 0.046875q-0.203125 0.03125 -0.40625 0.0625q-0.1875 0.03125 -0.484375 0.0625q-0.296875 0.03125 -0.546875 0.03125zm7.7055664 0.046875q-2.34375 0 -3.65625 -1.390625q-1.296875 -1.390625 -1.296875 -3.96875q0 -2.515625 1.359375 -3.890625q1.375 -1.390625 3.609375 -1.390625q1.796875 0 3.03125 0.78125l-0.578125 1.734375q-1.265625 -0.65625 -2.34375 -0.65625q-1.234375 0 -1.953125 0.875q-0.703125 0.875 -0.703125 2.5625q0 1.71875 0.703125 2.609375q0.703125 0.890625 1.984375 0.890625q1.328125 0 2.5625 -0.796875l0.234375 1.84375q-0.640625 0.4375 -1.328125 0.609375q-0.6875 0.1875 -1.625 0.1875zm4.713623 -0.1875l0 -13.953125l2.4375 -0.15625l0 2.9375q0 0.21875 -0.03125 1.1875q-0.03125 0.96875 -0.03125 0.984375q1.21875 -1.453125 3.265625 -1.453125q1.703125 0 2.640625 0.984375q0.953125 0.984375 0.953125 3.015625l0 6.453125l-2.4375 0l0 -6.1875q0 -1.25 -0.40625 -1.828125q-0.390625 -0.59375 -1.34375 -0.59375q-0.8125 0 -1.453125 0.421875q-0.625 0.40625 -0.9375 1.046875q-0.21875 0.859375 -0.21875 2.234375l0 4.90625l-2.4375 0z" fill-rule="nonzero"></path><path fill="#000000" fill-opacity="0.0" d="m429.44095 215.6821l-81.13385 0" fill-rule="nonzero"></path><path stroke="#000000" stroke-width="2.0" stroke-linejoin="round" stroke-linecap="butt" d="m429.44095 215.68208l-69.13385 0" fill-rule="evenodd"></path><path fill="#000000" stroke="#000000" stroke-width="2.0" stroke-linecap="butt" d="m360.3071 212.37862l-9.076202 3.3034668l9.076202 3.3034668z" fill-rule="evenodd"></path><path fill="#000000" fill-opacity="0.0" d="m429.44095 116.4065l197.03934 0l0 54.551186l-197.03934 0z" fill-rule="nonzero"></path><path fill="#000000" d="m452.0631 143.514q-2.96875 0 -4.71875 -1.859375q-1.75 -1.875 -1.75 -5.1875q0 -3.125 1.828125 -5.015625q1.828125 -1.90625 4.78125 -1.90625q2.375 0 4.03125 1.09375l-0.796875 1.90625q-1.578125 -0.96875 -3.1875 -0.96875q-1.875 0 -2.96875 1.34375q-1.078125 1.34375 -1.078125 3.625q0 2.359375 1.046875 3.65625q1.046875 1.28125 3.0 1.28125q1.703125 0 3.390625 -0.859375l0.328125 1.96875q-1.5625 0.921875 -3.90625 0.921875zm8.382721 0q-1.421875 0 -2.296875 -0.78125q-0.875 -0.78125 -0.875 -2.25q0 -1.59375 1.03125 -2.359375q1.046875 -0.765625 3.140625 -0.96875q0.296875 -0.03125 0.625 -0.0625q0.328125 -0.046875 0.75 -0.078125q0.421875 -0.046875 0.65625 -0.078125l0 -0.53125q0 -0.921875 -0.421875 -1.34375q-0.421875 -0.421875 -1.296875 -0.421875q-1.25 0 -3.078125 0.6875q0 -0.03125 -0.296875 -0.84375q-0.296875 -0.8125 -0.3125 -0.828125q1.796875 -0.78125 3.90625 -0.78125q2.046875 0 2.984375 0.90625q0.9375 0.890625 0.9375 2.890625l0 6.65625l-1.796875 0q0 -0.03125 -0.203125 -0.609375q-0.1875 -0.59375 -0.1875 -0.640625q-0.765625 0.75 -1.5 1.09375q-0.71875 0.34375 -1.765625 0.34375zm0.65625 -1.71875q0.84375 0 1.46875 -0.40625q0.640625 -0.40625 0.90625 -0.96875l0 -1.96875q-0.03125 0 -0.5 0.03125q-0.453125 0.03125 -0.484375 0.03125q-1.484375 0.140625 -2.171875 0.5625q-0.671875 0.421875 -0.671875 1.375q0 0.640625 0.375 1.0q0.375 0.34375 1.078125 0.34375zm10.637421 1.671875q-1.0625 0 -1.75 -0.25q-0.6875 -0.25 -1.09375 -0.78125q-0.390625 -0.53125 -0.546875 -1.265625q-0.15625 -0.75 -0.15625 -1.859375l0 -9.9375l2.421875 -0.15625l0 10.046875q0 1.375 0.328125 1.859375q0.328125 0.484375 1.265625 0.484375q0.46875 0 1.171875 -0.09375l0.0625 1.734375q0 0 -0.21875 0.046875q-0.21875 0.046875 -0.421875 0.078125q-0.203125 0.03125 -0.515625 0.0625q-0.296875 0.03125 -0.546875 0.03125zm6.376648 0q-1.0625 0 -1.75 -0.25q-0.6875 -0.25 -1.09375 -0.78125q-0.390625 -0.53125 -0.546875 -1.265625q-0.15625 -0.75 -0.15625 -1.859375l0 -9.9375l2.421875 -0.15625l0 10.046875q0 1.375 0.328125 1.859375q0.328125 0.484375 1.265625 0.484375q0.46875 0 1.171875 -0.09375l0.0625 1.734375q0 0 -0.21875 0.046875q-0.21875 0.046875 -0.421875 0.078125q-0.203125 0.03125 -0.515625 0.0625q-0.296875 0.03125 -0.546875 0.03125zm2.861023 -0.140625l0 -10.203125l2.421875 0l0 10.203125l-2.421875 0zm0 -11.6875l0 -2.078125l2.4375 0l0 2.078125l-2.4375 0zm4.8657227 11.6875l0 -10.203125l1.953125 0l0.265625 1.296875q1.5625 -1.546875 3.46875 -1.546875q1.78125 0 2.65625 1.03125q0.890625 1.03125 0.890625 2.96875l0 6.453125l-2.4375 0l0 -6.15625q0 -1.234375 -0.390625 -1.84375q-0.390625 -0.609375 -1.40625 -0.609375q-0.78125 0 -1.4375 0.40625q-0.65625 0.40625 -0.953125 1.015625q-0.171875 0.71875 -0.171875 2.21875l0 4.96875l-2.4375 0zm13.470184 4.5625l-0.140625 -1.96875l1.234375 0q2.140625 0 2.984375 -0.578125q0.859375 -0.5625 0.859375 -2.078125q0 -0.625 -0.046875 -1.34375q-0.25 0.328125 -0.46875 0.546875q-0.21875 0.21875 -0.546875 0.4375q-0.328125 0.203125 -0.796875 0.3125q-0.453125 0.109375 -1.03125 0.109375q-2.03125 0 -3.328125 -1.453125q-1.296875 -1.453125 -1.296875 -3.765625q0 -1.21875 0.359375 -2.21875q0.359375 -1.015625 0.96875 -1.65625q0.625 -0.65625 1.4375 -1.0q0.8125 -0.359375 1.734375 -0.359375q2.046875 0 3.046875 1.5l0.171875 -1.25l2.171875 0l0 9.484375q0 0.75 -0.078125 1.359375q-0.0625 0.609375 -0.25 1.171875q-0.1875 0.5625 -0.5 0.96875q-0.296875 0.421875 -0.75 0.765625q-0.453125 0.34375 -1.078125 0.5625q-0.609375 0.21875 -1.421875 0.328125q-0.8125 0.125 -1.84375 0.125l-1.390625 0zm2.4375 -6.265625q2.515625 0 2.53125 -3.359375l0 -0.359375q-0.015625 -1.515625 -0.625 -2.328125q-0.609375 -0.828125 -1.796875 -0.84375q-1.328125 0 -2.015625 0.921875q-0.6875 0.90625 -0.6875 2.453125q0 1.5 0.6875 2.515625q0.703125 1.0 1.90625 1.0zm16.454376 1.890625q-2.34375 0 -3.65625 -1.390625q-1.296875 -1.390625 -1.296875 -3.96875q0 -2.515625 1.359375 -3.890625q1.375 -1.390625 3.609375 -1.390625q1.796875 0 3.03125 0.78125l-0.578125 1.734375q-1.265625 -0.65625 -2.34375 -0.65625q-1.234375 0 -1.953125 0.875q-0.703125 0.875 -0.703125 2.5625q0 1.71875 0.703125 2.609375q0.703125 0.890625 1.984375 0.890625q1.328125 0 2.5625 -0.796875l0.234375 1.84375q-0.640625 0.4375 -1.328125 0.609375q-0.6875 0.1875 -1.625 0.1875zm9.151123 -1.84375q1.234375 0 1.859375 -0.890625q0.625 -0.90625 0.625 -2.578125q0 -1.703125 -0.625 -2.59375q-0.625 -0.890625 -1.875 -0.890625q-1.234375 0 -1.859375 0.90625q-0.625 0.890625 -0.625 2.578125q0 1.671875 0.625 2.578125q0.640625 0.890625 1.875 0.890625zm-0.0625 1.84375q-2.265625 0 -3.5625 -1.453125q-1.296875 -1.46875 -1.296875 -3.859375q0 -2.46875 1.296875 -3.890625q1.296875 -1.4375 3.671875 -1.4375q2.28125 0 3.5625 1.453125q1.296875 1.453125 1.296875 3.875q0 2.4375 -1.3125 3.875q-1.296875 1.4375 -3.65625 1.4375zm6.756775 -0.1875l0 -10.203125l1.953125 0l0.265625 1.296875q1.5625 -1.546875 3.46875 -1.546875q1.78125 0 2.65625 1.03125q0.890625 1.03125 0.890625 2.96875l0 6.453125l-2.4375 0l0 -6.15625q0 -1.234375 -0.390625 -1.84375q-0.390625 -0.609375 -1.40625 -0.609375q-0.78125 0 -1.4375 0.40625q-0.65625 0.40625 -0.953125 1.015625q-0.171875 0.71875 -0.171875 2.21875l0 4.96875l-2.4375 0zm14.282715 0l-4.0625 -10.203125l2.578125 0q0.140625 0.421875 0.9375 2.609375q0.796875 2.171875 1.0625 2.953125q0.515625 1.546875 0.75 2.328125q0 0 0.15625 -0.59375q0.15625 -0.59375 0.296875 -1.125q0.15625 -0.53125 0.1875 -0.640625q0.015625 -0.015625 0.84375 -2.546875q0.84375 -2.546875 1.0 -2.984375l2.5625 0l-3.859375 10.203125l-2.453125 0zm12.107544 0.1875q-2.46875 0 -3.84375 -1.40625q-1.359375 -1.421875 -1.359375 -3.90625q0 -2.4375 1.28125 -3.875q1.296875 -1.4375 3.53125 -1.453125q2.09375 0 3.25 1.328125q1.171875 1.3125 1.171875 3.5q0 0.15625 0 0.515625q0 0.34375 0 0.5l-6.78125 0q0.03125 1.4375 0.78125 2.21875q0.75 0.78125 2.0625 0.78125q1.65625 0 3.203125 -0.875l0.34375 1.734375q-1.53125 0.9375 -3.640625 0.9375zm-2.703125 -6.3125l4.453125 0q0 -1.25 -0.578125 -1.921875q-0.5625 -0.671875 -1.5625 -0.671875q-0.9375 0 -1.578125 0.65625q-0.640625 0.65625 -0.734375 1.9375zm8.524048 6.125l0 -10.203125l1.953125 0l0.265625 1.296875q1.5625 -1.546875 3.46875 -1.546875q1.78125 0 2.65625 1.03125q0.890625 1.03125 0.890625 2.96875l0 6.453125l-2.4375 0l0 -6.15625q0 -1.234375 -0.390625 -1.84375q-0.390625 -0.609375 -1.40625 -0.609375q-0.78125 0 -1.4375 0.40625q-0.65625 0.40625 -0.953125 1.015625q-0.171875 0.71875 -0.171875 2.21875l0 4.96875l-2.4375 0zm15.501465 0.140625q-1.046875 0 -1.734375 -0.25q-0.6875 -0.25 -1.078125 -0.765625q-0.390625 -0.53125 -0.5625 -1.25q-0.15625 -0.71875 -0.15625 -1.78125l0 -4.8125l-1.671875 0l0.09375 -1.3125l1.75 -0.171875l0.78125 -2.75l1.484375 -0.015625l0 2.765625l2.53125 0l0 1.484375l-2.53125 0l0 4.859375q0 1.15625 0.328125 1.65625q0.328125 0.484375 1.234375 0.484375q0.53125 0 1.125 -0.09375l0.078125 1.75q-0.03125 0 -0.234375 0.046875q-0.203125 0.03125 -0.40625 0.0625q-0.1875 0.03125 -0.484375 0.0625q-0.296875 0.03125 -0.546875 0.03125zm3.2992554 -0.140625l0 -10.203125l2.421875 0l0 10.203125l-2.421875 0zm0 -11.6875l0 -2.078125l2.4375 0l0 2.078125l-2.4375 0zm9.303284 10.03125q1.234375 0 1.859375 -0.890625q0.625 -0.90625 0.625 -2.578125q0 -1.703125 -0.625 -2.59375q-0.625 -0.890625 -1.875 -0.890625q-1.234375 0 -1.859375 0.90625q-0.625 0.890625 -0.625 2.578125q0 1.671875 0.625 2.578125q0.640625 0.890625 1.875 0.890625zm-0.0625 1.84375q-2.265625 0 -3.5625 -1.453125q-1.296875 -1.46875 -1.296875 -3.859375q0 -2.46875 1.296875 -3.890625q1.296875 -1.4375 3.671875 -1.4375q2.28125 0 3.5625 1.453125q1.296875 1.453125 1.296875 3.875q0 2.4375 -1.3125 3.875q-1.296875 1.4375 -3.65625 1.4375zm6.756775 -0.1875l0 -10.203125l1.953125 0l0.265625 1.296875q1.5625 -1.546875 3.46875 -1.546875q1.78125 0 2.65625 1.03125q0.890625 1.03125 0.890625 2.96875l0 6.453125l-2.4375 0l0 -6.15625q0 -1.234375 -0.390625 -1.84375q-0.390625 -0.609375 -1.40625 -0.609375q-0.78125 0 -1.4375 0.40625q-0.65625 0.40625 -0.953125 1.015625q-0.171875 0.71875 -0.171875 2.21875l0 4.96875l-2.4375 0z" fill-rule="nonzero"></path><path fill="#000000" d="m485.67892 165.3265l0 -10.203125l1.96875 0l0.28125 1.3125q0.1875 -0.234375 0.359375 -0.40625q0.171875 -0.1875 0.46875 -0.421875q0.296875 -0.234375 0.625 -0.375q0.34375 -0.15625 0.84375 -0.25q0.5 -0.109375 1.0625 -0.109375q1.21875 0 1.9375 0.5q0.734375 0.484375 1.03125 1.15625q0.546875 -0.796875 1.421875 -1.21875q0.875 -0.4375 1.9375 -0.4375q1.75 0 2.5625 1.0q0.828125 0.984375 0.828125 2.9375l0 6.515625l-2.4375 0l0 -5.796875q0 -1.484375 -0.328125 -2.140625q-0.328125 -0.671875 -1.25 -0.671875q-1.421875 0 -2.046875 1.28125q-0.25 0.5625 -0.34375 1.359375l0 5.96875l-2.4375 0l0 -5.90625q0 -1.359375 -0.359375 -2.015625q-0.359375 -0.671875 -1.3125 -0.671875q-0.765625 0 -1.328125 0.390625q-0.546875 0.375 -0.84375 1.015625q-0.203125 0.9375 -0.203125 2.25l0 4.9375l-2.4375 0zm17.470764 0l0 -10.203125l2.421875 0l0 10.203125l-2.421875 0zm0 -11.6875l0 -2.078125l2.4375 0l0 2.078125l-2.4375 0zm8.115723 11.875q-2.25 0 -3.609375 -0.765625l0.25 -1.828125q0.625 0.328125 1.5625 0.59375q0.953125 0.265625 1.734375 0.265625q0.796875 0 1.2500305 -0.296875q0.453125 -0.3125 0.453125 -0.890625q0 -0.53125 -0.421875 -0.828125q-0.421875 -0.3125 -1.6094055 -0.765625q-0.40625 -0.15625 -0.515625 -0.203125q-1.421875 -0.546875 -2.046875 -1.21875q-0.609375 -0.671875 -0.609375 -1.828125q0 -1.390625 1.0 -2.125q1.015625 -0.75 2.8125 -0.75q1.9531555 0 3.4219055 0.734375l-0.609375 1.6875q-1.453125 -0.6875 -2.7656555 -0.6875q-0.734375 0 -1.15625 0.25q-0.40625 0.25 -0.40625 0.75q0 0.46875 0.390625 0.734375q0.40625 0.265625 1.5625 0.6875q0.046875 0.015625 0.25003052 0.09375q0.203125 0.078125 0.3125 0.109375q1.40625 0.515625 2.0625 1.234375q0.65625 0.703125 0.65625 1.84375q-0.015625 1.53125 -1.046875 2.375q-1.015625 0.828125 -2.9219055 0.828125zm5.72287 -0.1875l0 -10.203125l1.96875 0l0.28125 1.3125q0.1875 -0.234375 0.359375 -0.40625q0.171875 -0.1875 0.46875 -0.421875q0.296875 -0.234375 0.625 -0.375q0.34375 -0.15625 0.84375 -0.25q0.5 -0.109375 1.0625 -0.109375q1.21875 0 1.9375 0.5q0.734375 0.484375 1.03125 1.15625q0.546875 -0.796875 1.421875 -1.21875q0.875 -0.4375 1.9375 -0.4375q1.75 0 2.5625 1.0q0.828125 0.984375 0.828125 2.9375l0 6.515625l-2.4375 0l0 -5.796875q0 -1.484375 -0.328125 -2.140625q-0.328125 -0.671875 -1.25 -0.671875q-1.421875 0 -2.046875 1.28125q-0.25 0.5625 -0.34375 1.359375l0 5.96875l-2.4375 0l0 -5.90625q0 -1.359375 -0.359375 -2.015625q-0.359375 -0.671875 -1.3125 -0.671875q-0.765625 0 -1.328125 0.390625q-0.546875 0.375 -0.84375 1.015625q-0.203125 0.9375 -0.203125 2.25l0 4.9375l-2.4375 0zm20.095764 0.1875q-1.421875 0 -2.296875 -0.78125q-0.875 -0.78125 -0.875 -2.25q0 -1.59375 1.03125 -2.359375q1.046875 -0.765625 3.140625 -0.96875q0.296875 -0.03125 0.625 -0.0625q0.328125 -0.046875 0.75 -0.078125q0.421875 -0.046875 0.65625 -0.078125l0 -0.53125q0 -0.921875 -0.421875 -1.34375q-0.421875 -0.421875 -1.296875 -0.421875q-1.25 0 -3.078125 0.6875q0 -0.03125 -0.296875 -0.84375q-0.296875 -0.8125 -0.3125 -0.828125q1.796875 -0.78125 3.90625 -0.78125q2.046875 0 2.984375 0.90625q0.9375 0.890625 0.9375 2.890625l0 6.65625l-1.796875 0q0 -0.03125 -0.203125 -0.609375q-0.1875 -0.59375 -0.1875 -0.640625q-0.765625 0.75 -1.5 1.09375q-0.71875 0.34375 -1.765625 0.34375zm0.65625 -1.71875q0.84375 0 1.46875 -0.40625q0.640625 -0.40625 0.90625 -0.96875l0 -1.96875q-0.03125 0 -0.5 0.03125q-0.453125 0.03125 -0.484375 0.03125q-1.484375 0.140625 -2.171875 0.5625q-0.671875 0.421875 -0.671875 1.375q0 0.640625 0.375 1.0q0.375 0.34375 1.078125 0.34375zm11.13739 1.671875q-1.046875 0 -1.734375 -0.25q-0.6875 -0.25 -1.078125 -0.765625q-0.390625 -0.53125 -0.5625 -1.25q-0.15625 -0.71875 -0.15625 -1.78125l0 -4.8125l-1.671875 0l0.09375 -1.3125l1.75 -0.171875l0.78125 -2.75l1.484375 -0.015625l0 2.765625l2.53125 0l0 1.484375l-2.53125 0l0 4.859375q0 1.15625 0.328125 1.65625q0.328125 0.484375 1.234375 0.484375q0.53125 0 1.125 -0.09375l0.078125 1.75q-0.03125 0 -0.234375 0.046875q-0.203125 0.03125 -0.40625 0.0625q-0.1875 0.03125 -0.484375 0.0625q-0.296875 0.03125 -0.546875 0.03125zm7.7055664 0.046875q-2.34375 0 -3.65625 -1.390625q-1.296875 -1.390625 -1.296875 -3.96875q0 -2.515625 1.359375 -3.890625q1.375 -1.390625 3.609375 -1.390625q1.796875 0 3.03125 0.78125l-0.578125 1.734375q-1.265625 -0.65625 -2.34375 -0.65625q-1.234375 0 -1.953125 0.875q-0.703125 0.875 -0.703125 2.5625q0 1.71875 0.703125 2.609375q0.703125 0.890625 1.984375 0.890625q1.328125 0 2.5625 -0.796875l0.234375 1.84375q-0.640625 0.4375 -1.328125 0.609375q-0.6875 0.1875 -1.625 0.1875zm4.713623 -0.1875l0 -13.953125l2.4375 -0.15625l0 2.9375q0 0.21875 -0.03125 1.1875q-0.03125 0.96875 -0.03125 0.984375q1.21875 -1.453125 3.265625 -1.453125q1.703125 0 2.640625 0.984375q0.953125 0.984375 0.953125 3.015625l0 6.453125l-2.4375 0l0 -6.1875q0 -1.25 -0.40625 -1.828125q-0.390625 -0.59375 -1.34375 -0.59375q-0.8125 0 -1.453125 0.421875q-0.625 0.40625 -0.9375 1.046875q-0.21875 0.859375 -0.21875 2.234375l0 4.90625l-2.4375 0z" fill-rule="nonzero"></path><path fill="#000000" fill-opacity="0.0" d="m429.44095 143.6821l-81.13385 0" fill-rule="nonzero"></path><path stroke="#000000" stroke-width="2.0" stroke-linejoin="round" stroke-linecap="butt" d="m429.44095 143.6821l-69.13385 0" fill-rule="evenodd"></path><path fill="#000000" stroke="#000000" stroke-width="2.0" stroke-linecap="butt" d="m360.3071 140.37863l-9.076202 3.3034668l9.076202 3.3034668z" fill-rule="evenodd"></path><path fill="#000000" fill-opacity="0.0" d="m12.939632 74.2336l0 359.33856" fill-rule="nonzero"></path><path stroke="#000000" stroke-width="3.0" stroke-linejoin="round" stroke-linecap="butt" d="m12.939632 84.514854l0 349.0573" fill-rule="evenodd"></path><path fill="#000000" stroke="#000000" stroke-width="3.0" stroke-linecap="butt" d="m12.939632 84.514854l3.3737507 3.3737488l-3.3737507 -9.269302l-3.3737507 9.269302z" fill-rule="evenodd"></path><path fill="#000000" fill-opacity="0.0" d="m153.10976 7.6902885l151.71654 0l0 54.55118l-151.71654 0z" fill-rule="nonzero"></path><path fill="#000000" d="m193.11131 34.797787q-2.96875 0 -4.71875 -1.859375q-1.75 -1.875 -1.75 -5.1875q0 -3.125 1.828125 -5.015625q1.828125 -1.90625 4.78125 -1.90625q2.375 0 4.03125 1.09375l-0.796875 1.90625q-1.578125 -0.96875 -3.1875 -0.96875q-1.875 0 -2.96875 1.34375q-1.078125 1.34375 -1.078125 3.625q0 2.359375 1.046875 3.65625q1.046875 1.28125 3.0 1.28125q1.703125 0 3.390625 -0.859375l0.328125 1.96875q-1.5625 0.921875 -3.90625 0.921875zm8.382706 0q-1.421875 0 -2.296875 -0.78125q-0.875 -0.78125 -0.875 -2.25q0 -1.59375 1.03125 -2.359375q1.046875 -0.765625 3.140625 -0.96875q0.296875 -0.03125 0.625 -0.0625q0.328125 -0.046875 0.75 -0.078125q0.421875 -0.046875 0.65625 -0.078125l0 -0.53125q0 -0.921875 -0.421875 -1.34375q-0.421875 -0.421875 -1.296875 -0.421875q-1.25 0 -3.078125 0.6875q0 -0.03125 -0.296875 -0.84375q-0.296875 -0.8125 -0.3125 -0.828125q1.796875 -0.78125 3.90625 -0.78125q2.046875 0 2.984375 0.90625q0.9375 0.890625 0.9375 2.890625l0 6.65625l-1.796875 0q0 -0.03125 -0.203125 -0.609375q-0.1875 -0.59375 -0.1875 -0.640625q-0.765625 0.75 -1.5 1.09375q-0.71875 0.34375 -1.765625 0.34375zm0.65625 -1.71875q0.84375 0 1.46875 -0.40625q0.640625 -0.40625 0.90625 -0.96875l0 -1.96875q-0.03125 0 -0.5 0.03125q-0.453125 0.03125 -0.484375 0.03125q-1.484375 0.140625 -2.171875 0.5625q-0.671875 0.421875 -0.671875 1.375q0 0.640625 0.375 1.0q0.375 0.34375 1.078125 0.34375zm10.637421 1.671875q-1.0625 0 -1.75 -0.25q-0.6875 -0.25 -1.09375 -0.78125q-0.390625 -0.53125 -0.546875 -1.265625q-0.15625 -0.75 -0.15625 -1.859375l0 -9.9375l2.421875 -0.15625l0 10.046875q0 1.375 0.328125 1.859375q0.328125 0.484375 1.265625 0.484375q0.46875 0 1.171875 -0.09375l0.0625 1.734375q0 0 -0.21875 0.046875q-0.21875 0.046875 -0.421875 0.078125q-0.203125 0.03125 -0.515625 0.0625q-0.296875 0.03125 -0.546875 0.03125zm6.376648 0q-1.0625 0 -1.75 -0.25q-0.6875 -0.25 -1.09375 -0.78125q-0.390625 -0.53125 -0.546875 -1.265625q-0.15625 -0.75 -0.15625 -1.859375l0 -9.9375l2.421875 -0.15625l0 10.046875q0 1.375 0.328125 1.859375q0.328125 0.484375 1.265625 0.484375q0.46875 0 1.171875 -0.09375l0.0625 1.734375q0 0 -0.21875 0.046875q-0.21875 0.046875 -0.421875 0.078125q-0.203125 0.03125 -0.515625 0.0625q-0.296875 0.03125 -0.546875 0.03125zm10.976761 0.046875q-2.25 0 -3.609375 -0.765625l0.25 -1.828125q0.625 0.328125 1.5625 0.59375q0.953125 0.265625 1.734375 0.265625q0.796875 0 1.25 -0.296875q0.453125 -0.3125 0.453125 -0.890625q0 -0.53125 -0.421875 -0.828125q-0.421875 -0.3125 -1.609375 -0.765625q-0.40625 -0.15625 -0.515625 -0.203125q-1.421875 -0.546875 -2.046875 -1.21875q-0.609375 -0.671875 -0.609375 -1.828125q0 -1.390625 1.0 -2.125q1.015625 -0.75 2.8125 -0.75q1.953125 0 3.421875 0.734375l-0.609375 1.6875q-1.453125 -0.6875 -2.765625 -0.6875q-0.734375 0 -1.15625 0.25q-0.40625 0.25 -0.40625 0.75q0 0.46875 0.390625 0.734375q0.40625 0.265625 1.5625 0.6875q0.046875 0.015625 0.25 0.09375q0.203125 0.078125 0.3125 0.109375q1.40625 0.515625 2.0625 1.234375q0.65625 0.703125 0.65625 1.84375q-0.015625 1.53125 -1.046875 2.375q-1.015625 0.828125 -2.921875 0.828125zm9.80098 -0.046875q-1.046875 0 -1.734375 -0.25q-0.6875 -0.25 -1.078125 -0.765625q-0.390625 -0.53125 -0.5625 -1.25q-0.15625 -0.71875 -0.15625 -1.78125l0 -4.8125l-1.671875 0l0.09375 -1.3125l1.75 -0.171875l0.78125 -2.75l1.484375 -0.015625l0 2.765625l2.53125 0l0 1.484375l-2.53125 0l0 4.859375q0 1.15625 0.328125 1.65625q0.328125 0.484375 1.234375 0.484375q0.53125 0 1.125 -0.09375l0.078125 1.75q-0.03125 0 -0.234375 0.046875q-0.203125 0.03125 -0.40625 0.0625q-0.1875 0.03125 -0.484375 0.0625q-0.296875 0.03125 -0.546875 0.03125zm5.924301 0.046875q-1.421875 0 -2.296875 -0.78125q-0.875 -0.78125 -0.875 -2.25q0 -1.59375 1.03125 -2.359375q1.046875 -0.765625 3.140625 -0.96875q0.296875 -0.03125 0.625 -0.0625q0.328125 -0.046875 0.75 -0.078125q0.421875 -0.046875 0.65625 -0.078125l0 -0.53125q0 -0.921875 -0.421875 -1.34375q-0.421875 -0.421875 -1.296875 -0.421875q-1.25 0 -3.078125 0.6875q0 -0.03125 -0.296875 -0.84375q-0.296875 -0.8125 -0.3125 -0.828125q1.796875 -0.78125 3.90625 -0.78125q2.046875 0 2.984375 0.90625q0.9375 0.890625 0.9375 2.890625l0 6.65625l-1.796875 0q0 -0.03125 -0.203125 -0.609375q-0.1875 -0.59375 -0.1875 -0.640625q-0.765625 0.75 -1.5 1.09375q-0.71875 0.34375 -1.765625 0.34375zm0.65625 -1.71875q0.84375 0 1.46875 -0.40625q0.640625 -0.40625 0.90625 -0.96875l0 -1.96875q-0.03125 0 -0.5 0.03125q-0.453125 0.03125 -0.484375 0.03125q-1.484375 0.140625 -2.171875 0.5625q-0.671875 0.421875 -0.671875 1.375q0 0.640625 0.375 1.0q0.375 0.34375 1.078125 0.34375zm11.52803 1.71875q-2.3437347 0 -3.6562347 -1.390625q-1.296875 -1.390625 -1.296875 -3.96875q0 -2.515625 1.359375 -3.890625q1.375 -1.390625 3.6093597 -1.390625q1.796875 0 3.03125 0.78125l-0.578125 1.734375q-1.265625 -0.65625 -2.34375 -0.65625q-1.234375 0 -1.953125 0.875q-0.70310974 0.875 -0.70310974 2.5625q0 1.71875 0.70310974 2.609375q0.703125 0.890625 1.984375 0.890625q1.328125 0 2.5625 -0.796875l0.234375 1.84375q-0.640625 0.4375 -1.328125 0.609375q-0.6875 0.1875 -1.625 0.1875zm4.713623 -0.1875l0 -13.953125l2.4375 -0.15625l0 6.265625l-0.0625 2.046875q0.015625 0 0.1875 -0.171875q0.1875 -0.1875 0.203125 -0.203125q0.515625 -0.59375 1.109375 -1.234375q0.59375 -0.640625 1.5 -1.5625q0.921875 -0.9375 1.203125 -1.234375l2.890625 0l-4.1875 4.34375l4.453125 5.859375l-2.9375 0l-3.359375 -4.625l-1.0 0.796875l0 3.828125l-2.4375 0z" fill-rule="nonzero"></path></g></svg>

