<?xml version="1.0" standalone="yes"?>

<svg version="1.1" viewBox="0.0 0.0 817.503937007874 230.79265091863516" fill="none" stroke="none" stroke-linecap="square" stroke-miterlimit="10" xmlns="http://www.w3.org/2000/svg" xmlns:xlink="http://www.w3.org/1999/xlink"><clipPath id="p.0"><path d="m0 0l817.50397 0l0 230.79265l-817.50397 0l0 -230.79265z" clip-rule="nonzero"></path></clipPath><g clip-path="url(#p.0)"><path fill="#000000" fill-opacity="0.0" d="m0 0l817.50397 0l0 230.79265l-817.50397 0z" fill-rule="nonzero"></path><path fill="#f9cb9c" d="m32.0 32.0l248.0 0l0 96.0l-248.0 0z" fill-rule="nonzero"></path><path stroke="#e69138" stroke-width="4.0" stroke-linejoin="round" stroke-linecap="butt" d="m32.0 32.0l248.0 0l0 96.0l-248.0 0z" fill-rule="nonzero"></path><path fill="#a2c4c9" d="m42.32398 43.475784l227.59055 0l0 73.22835l-227.59055 0z" fill-rule="nonzero"></path><path stroke="#45818e" stroke-width="4.0" stroke-linejoin="round" stroke-linecap="butt" d="m42.32398 43.475784l227.59055 0l0 73.22835l-227.59055 0z" fill-rule="nonzero"></path><path fill="#000000" d="m104.880455 76.00996l0 -13.59375l2.515625 0l0 5.5625l6.140625 0l0 -5.5625l2.515625 0l0 13.59375l-2.515625 0l0 -6.046875l-6.140625 0l0 6.046875l-2.515625 0zm16.29956 0.1875q-1.421875 0 -2.296875 -0.78125q-0.875 -0.78125 -0.875 -2.25q0 -1.59375 1.03125 -2.359375q1.046875 -0.765625 3.140625 -0.96875q0.296875 -0.03125 0.625 -0.0625q0.328125 -0.046875 0.75 -0.078125q0.421875 -0.046875 0.65625 -0.078125l0 -0.53125q0 -0.921875 -0.421875 -1.34375q-0.421875 -0.421875 -1.296875 -0.421875q-1.25 0 -3.078125 0.6875q0 -0.03125 -0.296875 -0.84375q-0.296875 -0.8125 -0.3125 -0.828125q1.796875 -0.78125 3.90625 -0.78125q2.046875 0 2.984375 0.90625q0.9375 0.890625 0.9375 2.890625l0 6.65625l-1.796875 0q0 -0.03125 -0.203125 -0.609375q-0.1875 -0.59375 -0.1875 -0.640625q-0.765625 0.75 -1.5 1.09375q-0.71875 0.34375 -1.765625 0.34375zm0.65625 -1.71875q0.84375 0 1.46875 -0.40625q0.640625 -0.40625 0.90625 -0.96875l0 -1.96875q-0.03125 0 -0.5 0.03125q-0.453125 0.03125 -0.484375 0.03125q-1.484375 0.140625 -2.171875 0.5625q-0.671875 0.421875 -0.671875 1.375q0 0.640625 0.375 1.0q0.375 0.34375 1.078125 0.34375zm10.309288 1.71875q-2.25 0 -3.609375 -0.765625l0.25 -1.828125q0.625 0.328125 1.5625 0.59375q0.953125 0.265625 1.734375 0.265625q0.796875 0 1.25 -0.296875q0.453125 -0.3125 0.453125 -0.890625q0 -0.53125 -0.421875 -0.828125q-0.421875 -0.3125 -1.609375 -0.765625q-0.40625 -0.15625 -0.515625 -0.203125q-1.421875 -0.546875 -2.046875 -1.21875q-0.609375 -0.671875 -0.609375 -1.828125q0 -1.390625 1.0 -2.125q1.015625 -0.75 2.8125 -0.75q1.953125 0 3.421875 0.734375l-0.609375 1.6875q-1.453125 -0.6875 -2.765625 -0.6875q-0.734375 0 -1.15625 0.25q-0.40625 0.25 -0.40625 0.75q0 0.46875 0.390625 0.734375q0.40625 0.265625 1.5625 0.6875q0.046875 0.015625 0.25 0.09375q0.203125 0.078125 0.3125 0.109375q1.40625 0.515625 2.0625 1.234375q0.65625 0.703125 0.65625 1.84375q-0.015625 1.53125 -1.046875 2.375q-1.015625 0.828125 -2.921875 0.828125zm5.7228546 -0.1875l0 -13.953125l2.4375 -0.15625l0 6.265625l-0.0625 2.046875q0.015625 0 0.1875 -0.171875q0.1875 -0.1875 0.203125 -0.203125q0.515625 -0.59375 1.109375 -1.234375q0.59375 -0.640625 1.5 -1.5625q0.921875 -0.9375 1.203125 -1.234375l2.890625 0l-4.1875 4.34375l4.453125 5.859375l-2.9375 0l-3.359375 -4.625l-1.0 0.796875l0 3.828125l-2.4375 0zm15.40419 0.1875q-2.46875 0 -3.84375 -1.40625q-1.359375 -1.421875 -1.359375 -3.90625q0 -2.4375 1.28125 -3.875q1.296875 -1.4375 3.53125 -1.453125q2.09375 0 3.25 1.328125q1.171875 1.3125 1.171875 3.5q0 0.15625 0 0.515625q0 0.34375 0 0.5l-6.78125 0q0.03125 1.4375 0.78125 2.21875q0.75 0.78125 2.0625 0.78125q1.65625 0 3.203125 -0.875l0.34375 1.734375q-1.53125 0.9375 -3.640625 0.9375zm-2.703125 -6.3125l4.453125 0q0 -1.25 -0.578125 -1.921875q-0.5625 -0.671875 -1.5625 -0.671875q-0.9375 0 -1.578125 0.65625q-0.640625 0.65625 -0.734375 1.9375zm12.102188 6.265625q-1.0625 0 -1.75 -0.25q-0.6875 -0.25 -1.09375 -0.78125q-0.390625 -0.53125 -0.546875 -1.265625q-0.15625 -0.75 -0.15625 -1.859375l0 -9.9375l2.421875 -0.15625l0 10.046875q0 1.375 0.328125 1.859375q0.328125 0.484375 1.265625 0.484375q0.46875 0 1.171875 -0.09375l0.0625 1.734375q0 0 -0.21875 0.046875q-0.21875 0.046875 -0.421875 0.078125q-0.203125 0.03125 -0.515625 0.0625q-0.296875 0.03125 -0.546875 0.03125zm6.376648 0q-1.0625 0 -1.75 -0.25q-0.6875 -0.25 -1.09375 -0.78125q-0.390625 -0.53125 -0.546875 -1.265625q-0.15625 -0.75 -0.15625 -1.859375l0 -9.9375l2.421875 -0.15625l0 10.046875q0 1.375 0.328125 1.859375q0.328125 0.484375 1.265625 0.484375q0.46875 0 1.171875 -0.09375l0.0625 1.734375q0 0 -0.21875 0.046875q-0.21875 0.046875 -0.421875 0.078125q-0.203125 0.03125 -0.515625 0.0625q-0.296875 0.03125 -0.546875 0.03125zm10.414261 0.046875q-1.421875 0 -2.296875 -0.78125q-0.875 -0.78125 -0.875 -2.25q0 -1.59375 1.03125 -2.359375q1.046875 -0.765625 3.140625 -0.96875q0.296875 -0.03125 0.625 -0.0625q0.328125 -0.046875 0.75 -0.078125q0.421875 -0.046875 0.65625 -0.078125l0 -0.53125q0 -0.921875 -0.421875 -1.34375q-0.421875 -0.421875 -1.296875 -0.421875q-1.25 0 -3.078125 0.6875q0 -0.03125 -0.296875 -0.84375q-0.296875 -0.8125 -0.3125 -0.828125q1.796875 -0.78125 3.90625 -0.78125q2.046875 0 2.984375 0.90625q0.9375 0.890625 0.9375 2.890625l0 6.65625l-1.796875 0q0 -0.03125 -0.203125 -0.609375q-0.1875 -0.59375 -0.1875 -0.640625q-0.765625 0.75 -1.5 1.09375q-0.71875 0.34375 -1.765625 0.34375zm0.65625 -1.71875q0.84375 0 1.46875 -0.40625q0.640625 -0.40625 0.90625 -0.96875l0 -1.96875q-0.03125 0 -0.5 0.03125q-0.453125 0.03125 -0.484375 0.03125q-1.484375 0.140625 -2.171875 0.5625q-0.671875 0.421875 -0.671875 1.375q0 0.640625 0.375 1.0q0.375 0.34375 1.078125 0.34375zm7.0592957 5.765625l0 -14.4375l2.09375 0l0.25 1.4375q0.5 -0.8125 1.328125 -1.25q0.84375 -0.4375 1.859375 -0.4375q1.25 0 2.203125 0.703125q0.953125 0.6875 1.4375 1.890625q0.5 1.203125 0.5 2.703125q0 2.375 -1.15625 3.859375q-1.140625 1.484375 -3.09375 1.484375q-0.96875 0 -1.75 -0.375q-0.78125 -0.390625 -1.3125 -1.046875q0.078125 1.34375 0.078125 1.5l0 3.859375l-2.4375 0.109375zm4.890625 -5.890625q1.09375 0 1.71875 -0.90625q0.625 -0.921875 0.625 -2.609375q0 -1.71875 -0.640625 -2.578125q-0.625 -0.859375 -1.734375 -0.859375q-2.421875 0 -2.453125 3.28125q0 1.890625 0.625 2.78125q0.640625 0.890625 1.859375 0.890625zm6.5509033 5.890625l0 -14.4375l2.09375 0l0.25 1.4375q0.5 -0.8125 1.328125 -1.25q0.84375 -0.4375 1.859375 -0.4375q1.25 0 2.203125 0.703125q0.953125 0.6875 1.4375 1.890625q0.5 1.203125 0.5 2.703125q0 2.375 -1.15625 3.859375q-1.140625 1.484375 -3.09375 1.484375q-0.96875 0 -1.75 -0.375q-0.78125 -0.390625 -1.3125 -1.046875q0.078125 1.34375 0.078125 1.5l0 3.859375l-2.4375 0.109375zm4.890625 -5.890625q1.09375 0 1.71875 -0.90625q0.625 -0.921875 0.625 -2.609375q0 -1.71875 -0.640625 -2.578125q-0.625 -0.859375 -1.734375 -0.859375q-2.421875 0 -2.453125 3.28125q0 1.890625 0.625 2.78125q0.640625 0.890625 1.859375 0.890625z" fill-rule="nonzero"></path><path fill="#000000" d="m61.917934 100.57246q-2.625 -3.59375 -2.625 -8.09375q0 -4.609375 2.625 -8.28125l2.1875038 0q-0.9375038 1.328125 -1.7343788 3.65625q-0.78125 2.328125 -0.78125 4.59375q0 2.234375 0.796875 4.53125q0.796875 2.296875 1.7031288 3.59375l-2.1718788 0zm3.733677 -2.5625l0 -10.203125l2.421875 0l0 10.203125l-2.421875 0zm0 -11.6875l0 -2.078125l2.4375 0l0 2.078125l-2.4375 0zm4.865738 11.6875l0 -10.203125l1.953125 0l0.265625 1.296875q1.5625 -1.546875 3.46875 -1.546875q1.78125 0 2.65625 1.03125q0.890625 1.03125 0.890625 2.96875l0 6.453125l-2.4375 0l0 -6.15625q0 -1.234375 -0.390625 -1.84375q-0.390625 -0.609375 -1.40625 -0.609375q-0.78125 0 -1.4375 0.40625q-0.65625 0.40625 -0.953125 1.015625q-0.171875 0.71875 -0.171875 2.21875l0 4.96875l-2.4375 0zm15.892059 0.1875q-2.34375 0 -3.65625 -1.390625q-1.296875 -1.390625 -1.296875 -3.96875q0 -2.515625 1.359375 -3.890625q1.375 -1.390625 3.609375 -1.390625q1.796875 0 3.03125 0.78125l-0.578125 1.734375q-1.265625 -0.65625 -2.34375 -0.65625q-1.234375 0 -1.953125 0.875q-0.703125 0.875 -0.703125 2.5625q0 1.71875 0.703125 2.609375q0.703125 0.890625 1.984375 0.890625q1.328125 0 2.5625 -0.796875l0.234375 1.84375q-0.640625 0.4375 -1.328125 0.609375q-0.6875 0.1875 -1.625 0.1875zm8.291748 -0.046875q-1.0625 0 -1.75 -0.25q-0.6875 -0.25 -1.09375 -0.78125q-0.390625 -0.53125 -0.546875 -1.265625q-0.15625 -0.75 -0.15625 -1.859375l0 -9.9375l2.421875 -0.15625l0 10.046875q0 1.375 0.328125 1.859375q0.328125 0.484375 1.265625 0.484375q0.46875 0 1.171875 -0.09375l0.0625 1.734375q0 0 -0.21875 0.046875q-0.21875 0.046875 -0.421875 0.078125q-0.203125 0.03125 -0.515625 0.0625q-0.296875 0.03125 -0.546875 0.03125zm10.157898 -0.9375q-1.21875 0.984375 -3.203125 0.984375q-1.984375 0 -3.203125 -0.984375q-1.203125 -1.0 -1.203125 -2.921875l0 -6.484375l2.4375 0l0 6.40625q0 1.140625 0.46875 1.65625q0.484375 0.5 1.53125 0.5q1.015625 0 1.484375 -0.5q0.46875 -0.515625 0.46875 -1.65625l0 -6.40625l2.4375 0l0 6.484375q0 1.921875 -1.21875 2.921875zm7.031845 0.984375q-2.0 0 -3.140625 -1.453125q-1.140625 -1.46875 -1.140625 -3.921875q0 -2.375 1.140625 -3.8125q1.140625 -1.453125 3.125 -1.453125q2.171875 0 3.078125 1.546875q-0.09375 -0.90625 -0.09375 -1.75l0 -3.296875l2.421875 -0.15625l0 14.109375l-2.09375 0l-0.28125 -1.390625q-0.15625 0.25 -0.296875 0.4375q-0.125 0.171875 -0.390625 0.40625q-0.25 0.234375 -0.5625 0.390625q-0.296875 0.140625 -0.765625 0.234375q-0.453125 0.109375 -1.0 0.109375zm0.578125 -1.84375q2.4375 0 2.484375 -3.328125q0 -1.875 -0.640625 -2.734375q-0.625 -0.875 -1.875 -0.875q-1.09375 0 -1.75 0.875q-0.65625 0.875 -0.65625 2.59375q0 1.6875 0.65625 2.578125q0.65625 0.890625 1.78125 0.890625zm7.156357 1.65625l0 -10.203125l2.421875 0l0 10.203125l-2.421875 0zm0 -11.6875l0 -2.078125l2.4375 0l0 2.078125l-2.4375 0zm4.865738 11.6875l0 -10.203125l1.953125 0l0.265625 1.296875q1.5625 -1.546875 3.46875 -1.546875q1.78125 0 2.65625 1.03125q0.890625 1.03125 0.890625 2.96875l0 6.453125l-2.4375 0l0 -6.15625q0 -1.234375 -0.390625 -1.84375q-0.390625 -0.609375 -1.40625 -0.609375q-0.78125 0 -1.4375 0.40625q-0.65625 0.40625 -0.953125 1.015625q-0.171875 0.71875 -0.171875 2.21875l0 4.96875l-2.4375 0zm13.470184 4.5625l-0.140625 -1.96875l1.234375 0q2.140625 0 2.984375 -0.578125q0.859375 -0.5625 0.859375 -2.078125q0 -0.625 -0.046875 -1.34375q-0.25 0.328125 -0.46875 0.546875q-0.21875 0.21875 -0.546875 0.4375q-0.328125 0.203125 -0.796875 0.3125q-0.453125 0.109375 -1.03125 0.109375q-2.03125 0 -3.328125 -1.453125q-1.296875 -1.453125 -1.296875 -3.765625q0 -1.21875 0.359375 -2.21875q0.359375 -1.015625 0.96875 -1.65625q0.625 -0.65625 1.4375 -1.0q0.8125 -0.359375 1.734375 -0.359375q2.046875 0 3.046875 1.5l0.171875 -1.25l2.171875 0l0 9.484375q0 0.75 -0.078125 1.359375q-0.0625 0.609375 -0.25 1.171875q-0.1875 0.5625 -0.5 0.96875q-0.296875 0.421875 -0.75 0.765625q-0.453125 0.34375 -1.078125 0.5625q-0.609375 0.21875 -1.421875 0.328125q-0.8125 0.125 -1.84375 0.125l-1.390625 0zm2.4375 -6.265625q2.515625 0 2.53125 -3.359375l0 -0.359375q-0.015625 -1.515625 -0.625 -2.328125q-0.609375 -0.828125 -1.796875 -0.84375q-1.328125 0 -2.015625 0.921875q-0.6875 0.90625 -0.6875 2.453125q0 1.5 0.6875 2.515625q0.703125 1.0 1.90625 1.0zm15.235596 1.890625q-2.25 0 -3.609375 -0.765625l0.25 -1.828125q0.625 0.328125 1.5625 0.59375q0.953125 0.265625 1.734375 0.265625q0.796875 0 1.25 -0.296875q0.453125 -0.3125 0.453125 -0.890625q0 -0.53125 -0.421875 -0.828125q-0.421875 -0.3125 -1.609375 -0.765625q-0.40625 -0.15625 -0.515625 -0.203125q-1.421875 -0.546875 -2.046875 -1.21875q-0.609375 -0.671875 -0.609375 -1.828125q0 -1.390625 1.0 -2.125q1.015625 -0.75 2.8125 -0.75q1.953125 0 3.421875 0.734375l-0.609375 1.6875q-1.453125 -0.6875 -2.765625 -0.6875q-0.734375 0 -1.15625 0.25q-0.40625 0.25 -0.40625 0.75q0 0.46875 0.390625 0.734375q0.40625 0.265625 1.5625 0.6875q0.046875 0.015625 0.25 0.09375q0.203125 0.078125 0.3125 0.109375q1.40625 0.515625 2.0625 1.234375q0.65625 0.703125 0.65625 1.84375q-0.015625 1.53125 -1.046875 2.375q-1.015625 0.828125 -2.921875 0.828125zm5.7228546 -0.1875l0 -13.953125l2.4375 -0.15625l0 2.9375q0 0.21875 -0.03125 1.1875q-0.03125 0.96875 -0.03125 0.984375q1.21875 -1.453125 3.265625 -1.453125q1.703125 0 2.640625 0.984375q0.95310974 0.984375 0.95310974 3.015625l0 6.453125l-2.4374847 0l0 -6.1875q0 -1.25 -0.40625 -1.828125q-0.390625 -0.59375 -1.34375 -0.59375q-0.8125 0 -1.453125 0.421875q-0.625 0.40625 -0.9375 1.046875q-0.21875 0.859375 -0.21875 2.234375l0 4.90625l-2.4375 0zm14.1017 0.1875q-1.421875 0 -2.296875 -0.78125q-0.875 -0.78125 -0.875 -2.25q0 -1.59375 1.03125 -2.359375q1.046875 -0.765625 3.140625 -0.96875q0.296875 -0.03125 0.625 -0.0625q0.328125 -0.046875 0.75 -0.078125q0.421875 -0.046875 0.65625 -0.078125l0 -0.53125q0 -0.921875 -0.421875 -1.34375q-0.421875 -0.421875 -1.296875 -0.421875q-1.25 0 -3.078125 0.6875q0 -0.03125 -0.296875 -0.84375q-0.296875 -0.8125 -0.3125 -0.828125q1.796875 -0.78125 3.90625 -0.78125q2.046875 0 2.984375 0.90625q0.9375 0.890625 0.9375 2.890625l0 6.65625l-1.796875 0q0 -0.03125 -0.203125 -0.609375q-0.1875 -0.59375 -0.1875 -0.640625q-0.765625 0.75 -1.5 1.09375q-0.71875 0.34375 -1.765625 0.34375zm0.65625 -1.71875q0.84375 0 1.46875 -0.40625q0.640625 -0.40625 0.90625 -0.96875l0 -1.96875q-0.03125 0 -0.5 0.03125q-0.453125 0.03125 -0.484375 0.03125q-1.484375 0.140625 -2.171875 0.5625q-0.671875 0.421875 -0.671875 1.375q0 0.640625 0.375 1.0q0.375 0.34375 1.078125 0.34375zm7.0749207 1.53125l0 -10.203125l2.03125 0l0.3125 1.5625q1.015625 -1.609375 2.90625 -1.609375q0.40625 0 0.65625 0.046875l-0.046875 2.03125q-0.359375 -0.0625 -0.765625 -0.0625q-1.34375 0 -2.015625 0.71875q-0.65625 0.71875 -0.65625 1.984375l0 5.53125l-2.421875 0zm11.972504 0.1875q-2.46875 0 -3.84375 -1.40625q-1.359375 -1.421875 -1.359375 -3.90625q0 -2.4375 1.28125 -3.875q1.296875 -1.4375 3.53125 -1.453125q2.09375 0 3.25 1.328125q1.171875 1.3125 1.171875 3.5q0 0.15625 0 0.515625q0 0.34375 0 0.5l-6.78125 0q0.03125 1.4375 0.78125 2.21875q0.75 0.78125 2.0625 0.78125q1.65625 0 3.203125 -0.875l0.34375 1.734375q-1.53125 0.9375 -3.640625 0.9375zm-2.703125 -6.3125l4.453125 0q0 -1.25 -0.578125 -1.921875q-0.5625 -0.671875 -1.5625 -0.671875q-0.9375 0 -1.578125 0.65625q-0.640625 0.65625 -0.734375 1.9375zm12.320923 6.3125q-2.0 0 -3.140625 -1.453125q-1.140625 -1.46875 -1.140625 -3.921875q0 -2.375 1.140625 -3.8125q1.140625 -1.453125 3.125 -1.453125q2.171875 0 3.078125 1.546875q-0.09375 -0.90625 -0.09375 -1.75l0 -3.296875l2.421875 -0.15625l0 14.109375l-2.09375 0l-0.28125 -1.390625q-0.15625 0.25 -0.296875 0.4375q-0.125 0.171875 -0.390625 0.40625q-0.25 0.234375 -0.5625 0.390625q-0.296875 0.140625 -0.765625 0.234375q-0.453125 0.109375 -1.0 0.109375zm0.578125 -1.84375q2.4375 0 2.484375 -3.328125q0 -1.875 -0.640625 -2.734375q-0.625 -0.875 -1.875 -0.875q-1.09375 0 -1.75 0.875q-0.65625 0.875 -0.65625 2.59375q0 1.6875 0.65625 2.578125q0.65625 0.890625 1.78125 0.890625zm15.60022 1.796875q-1.0625 0 -1.75 -0.25q-0.6875 -0.25 -1.09375 -0.78125q-0.390625 -0.53125 -0.546875 -1.265625q-0.15625 -0.75 -0.15625 -1.859375l0 -9.9375l2.421875 -0.15625l0 10.046875q0 1.375 0.328125 1.859375q0.328125 0.484375 1.265625 0.484375q0.46875 0 1.171875 -0.09375l0.0625 1.734375q0 0 -0.21875 0.046875q-0.21875 0.046875 -0.421875 0.078125q-0.203125 0.03125 -0.515625 0.0625q-0.296875 0.03125 -0.546875 0.03125zm2.861023 -0.140625l0 -10.203125l2.421875 0l0 10.203125l-2.421875 0zm0 -11.6875l0 -2.078125l2.4375 0l0 2.078125l-2.4375 0zm10.334503 11.875q-1.046875 0 -1.890625 -0.453125q-0.84375 -0.453125 -1.234375 -1.046875l-0.234375 1.296875l-2.109375 0l0 -13.9375l2.4375 -0.15625l0 3.15625q0 0.921875 -0.0625 2.078125q1.203125 -1.578125 3.140625 -1.578125q1.953125 0 3.0625 1.453125q1.109375 1.453125 1.109375 3.78125q0 2.4375 -1.15625 3.921875q-1.140625 1.484375 -3.0625 1.484375zm-0.59375 -1.84375q1.09375 0 1.734375 -0.90625q0.65625 -0.921875 0.65625 -2.609375q0 -1.703125 -0.640625 -2.578125q-0.625 -0.875 -1.71875 -0.875q-2.46875 0 -2.5 3.34375q0 1.859375 0.625 2.75q0.625 0.875 1.84375 0.875zm9.834747 1.84375q-2.25 0 -3.609375 -0.765625l0.25 -1.828125q0.625 0.328125 1.5625 0.59375q0.953125 0.265625 1.734375 0.265625q0.796875 0 1.25 -0.296875q0.453125 -0.3125 0.453125 -0.890625q0 -0.53125 -0.421875 -0.828125q-0.421875 -0.3125 -1.609375 -0.765625q-0.40625 -0.15625 -0.515625 -0.203125q-1.421875 -0.546875 -2.046875 -1.21875q-0.609375 -0.671875 -0.609375 -1.828125q0 -1.390625 1.0 -2.125q1.015625 -0.75 2.8125 -0.75q1.953125 0 3.421875 0.734375l-0.609375 1.6875q-1.453125 -0.6875 -2.765625 -0.6875q-0.734375 0 -1.15625 0.25q-0.40625 0.25 -0.40625 0.75q0 0.46875 0.390625 0.734375q0.40625 0.265625 1.5625 0.6875q0.046875 0.015625 0.25 0.09375q0.203125 0.078125 0.3125 0.109375q1.40625 0.515625 2.0625 1.234375q0.65625 0.703125 0.65625 1.84375q-0.015625 1.53125 -1.046875 2.375q-1.015625 0.828125 -2.921875 0.828125zm4.8634644 2.375q0.5625 -0.796875 1.09375 -2.0q0.546875 -1.203125 0.96875 -2.890625q0.421875 -1.703125 0.421875 -3.234375q0 -2.265625 -0.78125 -4.578125q-0.78125 -2.328125 -1.703125 -3.671875l2.171875 0q2.625 3.703125 2.625 8.28125q0 4.484375 -2.625 8.09375l-2.171875 0z" fill-rule="nonzero"></path><path fill="#f9cb9c" d="m288.0 32.0l248.0 0l0 96.0l-248.0 0z" fill-rule="nonzero"></path><path stroke="#e69138" stroke-width="4.0" stroke-linejoin="round" stroke-linecap="butt" d="m288.0 32.0l248.0 0l0 96.0l-248.0 0z" fill-rule="nonzero"></path><path fill="#000000" d="m373.81067 89.90437l-0.109375 -1.984375q0.453125 0.078125 0.96875 0.078125q1.03125 0 1.390625 -0.53125q0.375 -0.53125 0.375 -1.75l0 -12.421875l2.515625 0l0 12.265625q0 1.171875 -0.21875 1.96875q-0.203125 0.796875 -0.703125 1.359375q-0.484375 0.5625 -1.3125 0.8125q-0.8125 0.265625 -2.03125 0.265625q-0.515625 0 -0.875 -0.0625zm10.360046 -2.796875q-1.421875 0 -2.296875 -0.78125q-0.875 -0.78125 -0.875 -2.25q0 -1.59375 1.03125 -2.359375q1.046875 -0.765625 3.140625 -0.96875q0.296875 -0.03125 0.625 -0.0625q0.328125 -0.046875 0.75 -0.078125q0.421875 -0.046875 0.65625 -0.078125l0 -0.53125q0 -0.921875 -0.421875 -1.34375q-0.421875 -0.421875 -1.296875 -0.421875q-1.25 0 -3.078125 0.6875q0 -0.03125 -0.296875 -0.84375q-0.296875 -0.8125 -0.3125 -0.828125q1.796875 -0.78125 3.90625 -0.78125q2.046875 0 2.984375 0.90625q0.9375 0.890625 0.9375 2.890625l0 6.65625l-1.796875 0q0 -0.03125 -0.203125 -0.609375q-0.1875 -0.59375 -0.1875 -0.640625q-0.765625 0.75 -1.5 1.09375q-0.71875 0.34375 -1.765625 0.34375zm0.65625 -1.71875q0.84375 0 1.46875 -0.40625q0.640625 -0.40625 0.90625 -0.96875l0 -1.96875q-0.03125 0 -0.5 0.03125q-0.453125 0.03125 -0.484375 0.03125q-1.484375 0.140625 -2.171875 0.5625q-0.671875 0.421875 -0.671875 1.375q0 0.640625 0.375 1.0q0.375 0.34375 1.078125 0.34375zm9.918671 1.53125l-4.0625 -10.203125l2.578125 0q0.140625 0.421875 0.9375 2.609375q0.796875 2.171875 1.0625 2.953125q0.515625 1.546875 0.75 2.328125q0 0 0.15625 -0.59375q0.15625 -0.59375 0.296875 -1.125q0.15625 -0.53125 0.1875 -0.640625q0.015625 -0.015625 0.84375 -2.546875q0.84375 -2.546875 1.0 -2.984375l2.5625 0l-3.859375 10.203125l-2.453125 0zm10.076324 0.1875q-1.421875 0 -2.296875 -0.78125q-0.875 -0.78125 -0.875 -2.25q0 -1.59375 1.03125 -2.359375q1.046875 -0.765625 3.140625 -0.96875q0.296875 -0.03125 0.625 -0.0625q0.328125 -0.046875 0.75 -0.078125q0.421875 -0.046875 0.65625 -0.078125l0 -0.53125q0 -0.921875 -0.421875 -1.34375q-0.421875 -0.421875 -1.296875 -0.421875q-1.25 0 -3.078125 0.6875q0 -0.03125 -0.296875 -0.84375q-0.296875 -0.8125 -0.3125 -0.828125q1.796875 -0.78125 3.90625 -0.78125q2.046875 0 2.984375 0.90625q0.9375 0.890625 0.9375 2.890625l0 6.65625l-1.796875 0q0 -0.03125 -0.203125 -0.609375q-0.1875 -0.59375 -0.1875 -0.640625q-0.765625 0.75 -1.5 1.09375q-0.71875 0.34375 -1.765625 0.34375zm0.65625 -1.71875q0.84375 0 1.46875 -0.40625q0.640625 -0.40625 0.90625 -0.96875l0 -1.96875q-0.03125 0 -0.5 0.03125q-0.453125 0.03125 -0.484375 0.03125q-1.484375 0.140625 -2.171875 0.5625q-0.671875 0.421875 -0.671875 1.375q0 0.640625 0.375 1.0q0.375 0.34375 1.078125 0.34375zm14.675018 1.71875q-1.421875 0 -2.296875 -0.78125q-0.875 -0.78125 -0.875 -2.25q0 -1.59375 1.03125 -2.359375q1.046875 -0.765625 3.140625 -0.96875q0.296875 -0.03125 0.625 -0.0625q0.328125 -0.046875 0.75 -0.078125q0.421875 -0.046875 0.65625 -0.078125l0 -0.53125q0 -0.921875 -0.421875 -1.34375q-0.421875 -0.421875 -1.296875 -0.421875q-1.25 0 -3.078125 0.6875q0 -0.03125 -0.296875 -0.84375q-0.296875 -0.8125 -0.3125 -0.828125q1.796875 -0.78125 3.90625 -0.78125q2.046875 0 2.984375 0.90625q0.9375 0.890625 0.9375 2.890625l0 6.65625l-1.796875 0q0 -0.03125 -0.203125 -0.609375q-0.1875 -0.59375 -0.1875 -0.640625q-0.765625 0.75 -1.5 1.09375q-0.71875 0.34375 -1.765625 0.34375zm0.65625 -1.71875q0.84375 0 1.46875 -0.40625q0.640625 -0.40625 0.90625 -0.96875l0 -1.96875q-0.03125 0 -0.5 0.03125q-0.453125 0.03125 -0.484375 0.03125q-1.484375 0.140625 -2.171875 0.5625q-0.671875 0.421875 -0.671875 1.375q0 0.640625 0.375 1.0q0.375 0.34375 1.078125 0.34375zm7.0592957 5.765625l0 -14.4375l2.09375 0l0.25 1.4375q0.5 -0.8125 1.328125 -1.25q0.84375 -0.4375 1.859375 -0.4375q1.25 0 2.203125 0.703125q0.953125 0.6875 1.4375 1.890625q0.5 1.203125 0.5 2.703125q0 2.375 -1.15625 3.859375q-1.140625 1.484375 -3.09375 1.484375q-0.96875 0 -1.75 -0.375q-0.78125 -0.390625 -1.3125 -1.046875q0.078125 1.34375 0.078125 1.5l0 3.859375l-2.4375 0.109375zm4.890625 -5.890625q1.09375 0 1.71875 -0.90625q0.625 -0.921875 0.625 -2.609375q0 -1.71875 -0.640625 -2.578125q-0.625 -0.859375 -1.734375 -0.859375q-2.421875 0 -2.453125 3.28125q0 1.890625 0.625 2.78125q0.640625 0.890625 1.859375 0.890625zm6.5509033 5.890625l0 -14.4375l2.09375 0l0.25 1.4375q0.5 -0.8125 1.328125 -1.25q0.84375 -0.4375 1.859375 -0.4375q1.25 0 2.203125 0.703125q0.953125 0.6875 1.4375 1.890625q0.5 1.203125 0.5 2.703125q0 2.375 -1.15625 3.859375q-1.140625 1.484375 -3.09375 1.484375q-0.96875 0 -1.75 -0.375q-0.78125 -0.390625 -1.3125 -1.046875q0.078125 1.34375 0.078125 1.5l0 3.859375l-2.4375 0.109375zm4.890625 -5.890625q1.09375 0 1.71875 -0.90625q0.625 -0.921875 0.625 -2.609375q0 -1.71875 -0.640625 -2.578125q-0.625 -0.859375 -1.734375 -0.859375q-2.421875 0 -2.453125 3.28125q0 1.890625 0.625 2.78125q0.640625 0.890625 1.859375 0.890625z" fill-rule="nonzero"></path><path fill="#f9cb9c" d="m544.0 32.0l248.0 0l0 96.0l-248.0 0z" fill-rule="nonzero"></path><path stroke="#e69138" stroke-width="4.0" stroke-linejoin="round" stroke-linecap="butt" d="m544.0 32.0l248.0 0l0 96.0l-248.0 0z" fill-rule="nonzero"></path><path fill="#000000" d="m627.8704 87.1075q-2.453125 0 -4.40625 -1.140625l0.609375 -1.984375q0.875 0.484375 1.890625 0.78125q1.03125 0.296875 2.0 0.296875q1.203125 0 1.8125 -0.515625q0.609375 -0.515625 0.609375 -1.484375q0 -1.28125 -1.703125 -1.765625q-0.125 -0.046875 -0.6875 -0.203125q-0.546875 -0.171875 -1.03125 -0.3125q-0.484375 -0.15625 -0.703125 -0.25q-2.734375 -0.953125 -2.734375 -3.59375q0 -1.84375 1.3125 -2.84375q1.3125 -1.0 3.484375 -1.0q2.453125 0 4.234375 1.0l-0.75 1.84375q-1.828125 -0.8125 -3.390625 -0.8125q-1.109375 0 -1.6875 0.390625q-0.5625 0.390625 -0.609375 1.3125q0 1.125 1.125 1.46875q0.21875 0.09375 1.09375 0.375q0.875 0.265625 1.140625 0.359375q1.859375 0.609375 2.65625 1.515625q0.8125 0.90625 0.8125 2.53125q0 1.9375 -1.375 2.984375q-1.375 1.046875 -3.703125 1.046875zm6.7843018 4.046875l0 -14.4375l2.09375 0l0.25 1.4375q0.5 -0.8125 1.328125 -1.25q0.84375 -0.4375 1.859375 -0.4375q1.25 0 2.203125 0.703125q0.953125 0.6875 1.4375 1.890625q0.5 1.203125 0.5 2.703125q0 2.375 -1.15625 3.859375q-1.140625 1.484375 -3.09375 1.484375q-0.96875 0 -1.75 -0.375q-0.78125 -0.390625 -1.3125 -1.046875q0.078125 1.34375 0.078125 1.5l0 3.859375l-2.4375 0.109375zm4.890625 -5.890625q1.09375 0 1.71875 -0.90625q0.625 -0.921875 0.625 -2.609375q0 -1.71875 -0.640625 -2.578125q-0.625 -0.859375 -1.734375 -0.859375q-2.421875 0 -2.453125 3.28125q0 1.890625 0.625 2.78125q0.640625 0.890625 1.859375 0.890625zm9.238403 1.84375q-1.421875 0 -2.296875 -0.78125q-0.875 -0.78125 -0.875 -2.25q0 -1.59375 1.03125 -2.359375q1.046875 -0.765625 3.140625 -0.96875q0.296875 -0.03125 0.625 -0.0625q0.328125 -0.046875 0.75 -0.078125q0.421875 -0.046875 0.65625 -0.078125l0 -0.53125q0 -0.921875 -0.421875 -1.34375q-0.421875 -0.421875 -1.296875 -0.421875q-1.25 0 -3.078125 0.6875q0 -0.03125 -0.296875 -0.84375q-0.296875 -0.8125 -0.3125 -0.828125q1.796875 -0.78125 3.90625 -0.78125q2.046875 0 2.984375 0.90625q0.9375 0.890625 0.9375 2.890625l0 6.65625l-1.796875 0q0 -0.03125 -0.203125 -0.609375q-0.1875 -0.59375 -0.1875 -0.640625q-0.765625 0.75 -1.5 1.09375q-0.71875 0.34375 -1.765625 0.34375zm0.65625 -1.71875q0.84375 0 1.46875 -0.40625q0.640625 -0.40625 0.90625 -0.96875l0 -1.96875q-0.03125 0 -0.5 0.03125q-0.453125 0.03125 -0.484375 0.03125q-1.484375 0.140625 -2.171875 0.5625q-0.671875 0.421875 -0.671875 1.375q0 0.640625 0.375 1.0q0.375 0.34375 1.078125 0.34375zm7.07489 1.53125l0 -10.203125l2.03125 0l0.3125 1.5625q1.015625 -1.609375 2.90625 -1.609375q0.40625 0 0.65625 0.046875l-0.046875 2.03125q-0.359375 -0.0625 -0.765625 -0.0625q-1.34375 0 -2.015625 0.71875q-0.65625 0.71875 -0.65625 1.984375l0 5.53125l-2.421875 0zm7.253784 0l0 -13.953125l2.4375 -0.15625l0 6.265625l-0.0625 2.046875q0.015625 0 0.1875 -0.171875q0.1875 -0.1875 0.203125 -0.203125q0.515625 -0.59375 1.109375 -1.234375q0.59375 -0.640625 1.5 -1.5625q0.921875 -0.9375 1.203125 -1.234375l2.890625 0l-4.1875 4.34375l4.453125 5.859375l-2.9375 0l-3.359375 -4.625l-1.0 0.796875l0 3.828125l-2.4375 0zm14.348022 0l5.0 -13.59375l2.734375 0l4.9375 13.59375l-2.578125 0l-1.34375 -3.84375l-4.765625 0l-1.359375 3.84375l-2.625 0zm4.609375 -5.71875l3.5 0q-1.671875 -5.34375 -1.71875 -5.53125l-1.78125 5.53125zm9.036072 9.953125l0 -14.4375l2.09375 0l0.25 1.4375q0.5 -0.8125 1.328125 -1.25q0.84375 -0.4375 1.859375 -0.4375q1.25 0 2.203125 0.703125q0.953125 0.6875 1.4375 1.890625q0.5 1.203125 0.5 2.703125q0 2.375 -1.15625 3.859375q-1.140625 1.484375 -3.09375 1.484375q-0.96875 0 -1.75 -0.375q-0.78125 -0.390625 -1.3125 -1.046875q0.078125 1.34375 0.078125 1.5l0 3.859375l-2.4375 0.109375zm4.890625 -5.890625q1.09375 0 1.71875 -0.90625q0.625 -0.921875 0.625 -2.609375q0 -1.71875 -0.640625 -2.578125q-0.625 -0.859375 -1.734375 -0.859375q-2.421875 0 -2.453125 3.28125q0 1.890625 0.625 2.78125q0.640625 0.890625 1.859375 0.890625zm6.5509033 5.890625l0 -14.4375l2.09375 0l0.25 1.4375q0.5 -0.8125 1.328125 -1.25q0.84375 -0.4375 1.859375 -0.4375q1.25 0 2.203125 0.703125q0.953125 0.6875 1.4375 1.890625q0.5 1.203125 0.5 2.703125q0 2.375 -1.15625 3.859375q-1.140625 1.484375 -3.09375 1.484375q-0.96875 0 -1.75 -0.375q-0.78125 -0.390625 -1.3125 -1.046875q0.078125 1.34375 0.078125 1.5l0 3.859375l-2.4375 0.109375zm4.890625 -5.890625q1.09375 0 1.71875 -0.90625q0.625 -0.921875 0.625 -2.609375q0 -1.71875 -0.640625 -2.578125q-0.625 -0.859375 -1.734375 -0.859375q-2.421875 0 -2.453125 3.28125q0 1.890625 0.625 2.78125q0.640625 0.890625 1.859375 0.890625z" fill-rule="nonzero"></path><path fill="#e06666" d="m32.0 128.0l760.0 0l0 96.0l-760.0 0z" fill-rule="nonzero"></path><path stroke="#cc0000" stroke-width="4.0" stroke-linejoin="round" stroke-linecap="butt" d="m32.0 128.0l760.0 0l0 96.0l-760.0 0z" fill-rule="nonzero"></path><path fill="#000000" d="m350.41754 183.1075q-2.453125 0 -4.40625 -1.140625l0.609375 -1.984375q0.875 0.484375 1.890625 0.78125q1.03125 0.296875 2.0 0.296875q1.203125 0 1.8125 -0.515625q0.609375 -0.515625 0.609375 -1.484375q0 -1.28125 -1.703125 -1.765625q-0.125 -0.046875 -0.6875 -0.203125q-0.546875 -0.171875 -1.03125 -0.3125q-0.484375 -0.15625 -0.703125 -0.25q-2.734375 -0.953125 -2.734375 -3.59375q0 -1.84375 1.3125 -2.84375q1.3125 -1.0 3.484375 -1.0q2.453125 0 4.234375 1.0l-0.75 1.84375q-1.828125 -0.8125 -3.390625 -0.8125q-1.109375 0 -1.6875 0.390625q-0.5625 0.390625 -0.609375 1.3125q0 1.125 1.125 1.46875q0.21875 0.09375 1.09375 0.375q0.875 0.265625 1.140625 0.359375q1.859375 0.609375 2.65625 1.515625q0.8125 0.90625 0.8125 2.53125q0 1.9375 -1.375 2.984375q-1.375 1.046875 -3.703125 1.046875zm6.7843018 4.046875l0 -14.4375l2.09375 0l0.25 1.4375q0.5 -0.8125 1.328125 -1.25q0.84375 -0.4375 1.859375 -0.4375q1.25 0 2.203125 0.703125q0.953125 0.6875 1.4375 1.890625q0.5 1.203125 0.5 2.703125q0 2.375 -1.15625 3.859375q-1.140625 1.484375 -3.09375 1.484375q-0.96875 0 -1.75 -0.375q-0.78125 -0.390625 -1.3125 -1.046875q0.078125 1.34375 0.078125 1.5l0 3.859375l-2.4375 0.109375zm4.890625 -5.890625q1.09375 0 1.71875 -0.90625q0.625 -0.921875 0.625 -2.609375q0 -1.71875 -0.640625 -2.578125q-0.625 -0.859375 -1.734375 -0.859375q-2.421875 0 -2.453125 3.28125q0 1.890625 0.625 2.78125q0.640625 0.890625 1.859375 0.890625zm9.238403 1.84375q-1.421875 0 -2.296875 -0.78125q-0.875 -0.78125 -0.875 -2.25q0 -1.59375 1.03125 -2.359375q1.046875 -0.765625 3.140625 -0.96875q0.296875 -0.03125 0.625 -0.0625q0.328125 -0.046875 0.75 -0.078125q0.421875 -0.046875 0.65625 -0.078125l0 -0.53125q0 -0.921875 -0.421875 -1.34375q-0.421875 -0.421875 -1.296875 -0.421875q-1.25 0 -3.078125 0.6875q0 -0.03125 -0.296875 -0.84375q-0.296875 -0.8125 -0.3125 -0.828125q1.796875 -0.78125 3.90625 -0.78125q2.046875 0 2.984375 0.90625q0.9375 0.890625 0.9375 2.890625l0 6.65625l-1.796875 0q0 -0.03125 -0.203125 -0.609375q-0.1875 -0.59375 -0.1875 -0.640625q-0.765625 0.75 -1.5 1.09375q-0.71875 0.34375 -1.765625 0.34375zm0.65625 -1.71875q0.84375 0 1.46875 -0.40625q0.640625 -0.40625 0.90625 -0.96875l0 -1.96875q-0.03125 0 -0.5 0.03125q-0.453125 0.03125 -0.484375 0.03125q-1.484375 0.140625 -2.171875 0.5625q-0.671875 0.421875 -0.671875 1.375q0 0.640625 0.375 1.0q0.375 0.34375 1.078125 0.34375zm7.074951 1.53125l0 -10.203125l2.03125 0l0.3125 1.5625q1.015625 -1.609375 2.90625 -1.609375q0.40625 0 0.65625 0.046875l-0.046875 2.03125q-0.359375 -0.0625 -0.765625 -0.0625q-1.34375 0 -2.015625 0.71875q-0.65625 0.71875 -0.65625 1.984375l0 5.53125l-2.421875 0zm7.253723 0l0 -13.953125l2.4375 -0.15625l0 6.265625l-0.0625 2.046875q0.015625 0 0.1875 -0.171875q0.1875 -0.1875 0.203125 -0.203125q0.515625 -0.59375 1.109375 -1.234375q0.59375 -0.640625 1.5 -1.5625q0.921875 -0.9375 1.203125 -1.234375l2.890625 0l-4.1875 4.34375l4.453125 5.859375l-2.9375 0l-3.359375 -4.625l-1.0 0.796875l0 3.828125l-2.4375 0zm15.7855835 0l0 -13.625l4.515625 0q1.609375 0 2.75 0.421875q1.140625 0.40625 1.796875 1.328125q0.671875 0.921875 0.671875 2.328125q0 0.96875 -0.25 1.734375q-0.25 0.75 -0.828125 1.375q-0.578125 0.609375 -1.625 0.953125q-1.03125 0.328125 -2.515625 0.328125q-1.25 0 -2.046875 -0.078125l0 5.234375l-2.46875 0zm4.25 -6.984375q0.765625 0 1.34375 -0.140625q0.578125 -0.15625 0.890625 -0.375q0.3125 -0.234375 0.5 -0.578125q0.203125 -0.34375 0.265625 -0.65625q0.0625 -0.328125 0.0625 -0.734375q0 -1.109375 -0.734375 -1.6875q-0.71875 -0.59375 -2.03125 -0.59375l-2.078125 0l0 4.75q0.109375 0.015625 1.78125 0.015625zm10.497559 7.125q-1.0625 0 -1.75 -0.25q-0.6875 -0.25 -1.09375 -0.78125q-0.390625 -0.53125 -0.546875 -1.265625q-0.15625 -0.75 -0.15625 -1.859375l0 -9.9375l2.421875 -0.15625l0 10.046875q0 1.375 0.328125 1.859375q0.328125 0.484375 1.265625 0.484375q0.46875 0 1.171875 -0.09375l0.0625 1.734375q0 0 -0.21875 0.046875q-0.21875 0.046875 -0.421875 0.078125q-0.203125 0.03125 -0.515625 0.0625q-0.296875 0.03125 -0.546875 0.03125zm5.486023 0.046875q-1.421875 0 -2.296875 -0.78125q-0.875 -0.78125 -0.875 -2.25q0 -1.59375 1.03125 -2.359375q1.046875 -0.765625 3.140625 -0.96875q0.296875 -0.03125 0.625 -0.0625q0.328125 -0.046875 0.75 -0.078125q0.421875 -0.046875 0.65625 -0.078125l0 -0.53125q0 -0.921875 -0.421875 -1.34375q-0.421875 -0.421875 -1.296875 -0.421875q-1.25 0 -3.078125 0.6875q0 -0.03125 -0.296875 -0.84375q-0.296875 -0.8125 -0.3125 -0.828125q1.796875 -0.78125 3.90625 -0.78125q2.046875 0 2.984375 0.90625q0.9375 0.890625 0.9375 2.890625l0 6.65625l-1.796875 0q0 -0.03125 -0.203125 -0.609375q-0.1875 -0.59375 -0.1875 -0.640625q-0.765625 0.75 -1.5 1.09375q-0.71875 0.34375 -1.765625 0.34375zm0.65625 -1.71875q0.84375 0 1.46875 -0.40625q0.640625 -0.40625 0.90625 -0.96875l0 -1.96875q-0.03125 0 -0.5 0.03125q-0.453125 0.03125 -0.484375 0.03125q-1.484375 0.140625 -2.171875 0.5625q-0.671875 0.421875 -0.671875 1.375q0 0.640625 0.375 1.0q0.375 0.34375 1.078125 0.34375zm11.137421 1.671875q-1.046875 0 -1.734375 -0.25q-0.6875 -0.25 -1.078125 -0.765625q-0.390625 -0.53125 -0.5625 -1.25q-0.15625 -0.71875 -0.15625 -1.78125l0 -4.8125l-1.671875 0l0.09375 -1.3125l1.75 -0.171875l0.78125 -2.75l1.484375 -0.015625l0 2.765625l2.53125 0l0 1.484375l-2.53125 0l0 4.859375q0 1.15625 0.328125 1.65625q0.328125 0.484375 1.234375 0.484375q0.53125 0 1.125 -0.09375l0.078125 1.75q-0.03125 0 -0.234375 0.046875q-0.203125 0.03125 -0.40625 0.0625q-0.1875 0.03125 -0.484375 0.0625q-0.296875 0.03125 -0.546875 0.03125zm3.893036 -0.140625l0 -8.578125l-1.625 0l0.15625 -1.4375l1.46875 -0.1875l0 -0.5625q0 -0.921875 0.171875 -1.578125q0.171875 -0.65625 0.546875 -1.125q0.390625 -0.46875 1.046875 -0.703125q0.65625 -0.234375 1.609375 -0.234375q0.9375 0 1.890625 0.1875l-0.203125 1.8125q-0.765625 -0.109375 -1.203125 -0.109375q-0.78125 0 -1.109375 0.375q-0.328125 0.375 -0.328125 1.25l0 0.6875l2.390625 0l0 1.625l-2.390625 0l0 8.578125l-2.421875 0zm10.704468 -1.65625q1.234375 0 1.859375 -0.890625q0.625 -0.90625 0.625 -2.578125q0 -1.703125 -0.625 -2.59375q-0.625 -0.890625 -1.875 -0.890625q-1.234375 0 -1.859375 0.90625q-0.625 0.890625 -0.625 2.578125q0 1.671875 0.625 2.578125q0.640625 0.890625 1.875 0.890625zm-0.0625 1.84375q-2.265625 0 -3.5625 -1.453125q-1.296875 -1.46875 -1.296875 -3.859375q0 -2.46875 1.296875 -3.890625q1.296875 -1.4375 3.671875 -1.4375q2.28125 0 3.5625 1.453125q1.296875 1.453125 1.296875 3.875q0 2.4375 -1.3125 3.875q-1.296875 1.4375 -3.65625 1.4375zm6.772461 -0.1875l0 -10.203125l2.03125 0l0.3125 1.5625q1.015625 -1.609375 2.90625 -1.609375q0.40625 0 0.65625 0.046875l-0.046875 2.03125q-0.359375 -0.0625 -0.765625 -0.0625q-1.34375 0 -2.015625 0.71875q-0.65625 0.71875 -0.65625 1.984375l0 5.53125l-2.421875 0zm7.253723 0l0 -10.203125l1.96875 0l0.28125 1.3125q0.1875 -0.234375 0.359375 -0.40625q0.171875 -0.1875 0.46875 -0.421875q0.296875 -0.234375 0.625 -0.375q0.34375 -0.15625 0.84375 -0.25q0.5 -0.109375 1.0625 -0.109375q1.21875 0 1.9375 0.5q0.734375 0.484375 1.03125 1.15625q0.546875 -0.796875 1.421875 -1.21875q0.875 -0.4375 1.9375 -0.4375q1.75 0 2.5625 1.0q0.828125 0.984375 0.828125 2.9375l0 6.515625l-2.4375 0l0 -5.796875q0 -1.484375 -0.328125 -2.140625q-0.328125 -0.671875 -1.25 -0.671875q-1.421875 0 -2.046875 1.28125q-0.25 0.5625 -0.34375 1.359375l0 5.96875l-2.4375 0l0 -5.90625q0 -1.359375 -0.359375 -2.015625q-0.359375 -0.671875 -1.3125 -0.671875q-0.765625 0 -1.328125 0.390625q-0.546875 0.375 -0.84375 1.015625q-0.203125 0.9375 -0.203125 2.25l0 4.9375l-2.4375 0z" fill-rule="nonzero"></path><path fill="#f9cb9c" d="m298.08548 43.991028l227.59055 0l0 73.22835l-227.59055 0z" fill-rule="nonzero"></path><path stroke="#e69138" stroke-width="4.0" stroke-linejoin="round" stroke-linecap="butt" d="m298.08548 43.991028l227.59055 0l0 73.22835l-227.59055 0z" fill-rule="nonzero"></path><path fill="#000000" d="m373.6914 90.509575l-0.109375 -1.984375q0.453125 0.078125 0.96875 0.078125q1.03125 0 1.390625 -0.53125q0.375 -0.53125 0.375 -1.75l0 -12.421875l2.515625 0l0 12.265625q0 1.171875 -0.21875 1.96875q-0.203125 0.796875 -0.703125 1.359375q-0.484375 0.5625 -1.3125 0.8125q-0.8125 0.265625 -2.03125 0.265625q-0.515625 0 -0.875 -0.0625zm10.360046 -2.796875q-1.421875 0 -2.296875 -0.78125q-0.875 -0.78125 -0.875 -2.25q0 -1.59375 1.03125 -2.359375q1.046875 -0.765625 3.140625 -0.96875q0.296875 -0.03125 0.625 -0.0625q0.328125 -0.046875 0.75 -0.078125q0.421875 -0.046875 0.65625 -0.078125l0 -0.53125q0 -0.921875 -0.421875 -1.34375q-0.421875 -0.421875 -1.296875 -0.421875q-1.25 0 -3.078125 0.6875q0 -0.03125 -0.296875 -0.84375q-0.296875 -0.8125 -0.3125 -0.828125q1.796875 -0.78125 3.90625 -0.78125q2.046875 0 2.984375 0.90625q0.9375 0.890625 0.9375 2.890625l0 6.65625l-1.796875 0q0 -0.03125 -0.203125 -0.609375q-0.1875 -0.59375 -0.1875 -0.640625q-0.765625 0.75 -1.5 1.09375q-0.71875 0.34375 -1.765625 0.34375zm0.65625 -1.71875q0.84375 0 1.46875 -0.40625q0.640625 -0.40625 0.90625 -0.96875l0 -1.96875q-0.03125 0 -0.5 0.03125q-0.453125 0.03125 -0.484375 0.03125q-1.484375 0.140625 -2.171875 0.5625q-0.671875 0.421875 -0.671875 1.375q0 0.640625 0.375 1.0q0.375 0.34375 1.078125 0.34375zm9.918671 1.53125l-4.0625 -10.203125l2.578125 0q0.140625 0.421875 0.9375 2.609375q0.796875 2.171875 1.0625 2.953125q0.515625 1.546875 0.75 2.328125q0 0 0.15625 -0.59375q0.15625 -0.59375 0.296875 -1.125q0.15625 -0.53125 0.1875 -0.640625q0.015625 -0.015625 0.84375 -2.546875q0.84375 -2.546875 1.0 -2.984375l2.5625 0l-3.859375 10.203125l-2.453125 0zm10.076324 0.1875q-1.421875 0 -2.296875 -0.78125q-0.875 -0.78125 -0.875 -2.25q0 -1.59375 1.03125 -2.359375q1.046875 -0.765625 3.140625 -0.96875q0.296875 -0.03125 0.625 -0.0625q0.328125 -0.046875 0.75 -0.078125q0.421875 -0.046875 0.65625 -0.078125l0 -0.53125q0 -0.921875 -0.421875 -1.34375q-0.421875 -0.421875 -1.296875 -0.421875q-1.25 0 -3.078125 0.6875q0 -0.03125 -0.296875 -0.84375q-0.296875 -0.8125 -0.3125 -0.828125q1.796875 -0.78125 3.90625 -0.78125q2.046875 0 2.984375 0.90625q0.9375 0.890625 0.9375 2.890625l0 6.65625l-1.796875 0q0 -0.03125 -0.203125 -0.609375q-0.1875 -0.59375 -0.1875 -0.640625q-0.765625 0.75 -1.5 1.09375q-0.71875 0.34375 -1.765625 0.34375zm0.65625 -1.71875q0.84375 0 1.46875 -0.40625q0.640625 -0.40625 0.90625 -0.96875l0 -1.96875q-0.03125 0 -0.5 0.03125q-0.453125 0.03125 -0.484375 0.03125q-1.484375 0.140625 -2.171875 0.5625q-0.671875 0.421875 -0.671875 1.375q0 0.640625 0.375 1.0q0.375 0.34375 1.078125 0.34375zm14.675018 1.71875q-1.421875 0 -2.296875 -0.78125q-0.875 -0.78125 -0.875 -2.25q0 -1.59375 1.03125 -2.359375q1.046875 -0.765625 3.140625 -0.96875q0.296875 -0.03125 0.625 -0.0625q0.328125 -0.046875 0.75 -0.078125q0.421875 -0.046875 0.65625 -0.078125l0 -0.53125q0 -0.921875 -0.421875 -1.34375q-0.421875 -0.421875 -1.296875 -0.421875q-1.25 0 -3.078125 0.6875q0 -0.03125 -0.296875 -0.84375q-0.296875 -0.8125 -0.3125 -0.828125q1.796875 -0.78125 3.90625 -0.78125q2.046875 0 2.984375 0.90625q0.9375 0.890625 0.9375 2.890625l0 6.65625l-1.796875 0q0 -0.03125 -0.203125 -0.609375q-0.1875 -0.59375 -0.1875 -0.640625q-0.765625 0.75 -1.5 1.09375q-0.71875 0.34375 -1.765625 0.34375zm0.65625 -1.71875q0.84375 0 1.46875 -0.40625q0.640625 -0.40625 0.90625 -0.96875l0 -1.96875q-0.03125 0 -0.5 0.03125q-0.453125 0.03125 -0.484375 0.03125q-1.484375 0.140625 -2.171875 0.5625q-0.671875 0.421875 -0.671875 1.375q0 0.640625 0.375 1.0q0.375 0.34375 1.078125 0.34375zm7.059326 5.765625l0 -14.4375l2.09375 0l0.25 1.4375q0.5 -0.8125 1.328125 -1.25q0.84375 -0.4375 1.859375 -0.4375q1.25 0 2.203125 0.703125q0.953125 0.6875 1.4375 1.890625q0.5 1.203125 0.5 2.703125q0 2.375 -1.15625 3.859375q-1.140625 1.484375 -3.09375 1.484375q-0.96875 0 -1.75 -0.375q-0.78125 -0.390625 -1.3125 -1.046875q0.078125 1.34375 0.078125 1.5l0 3.859375l-2.4375 0.109375zm4.890625 -5.890625q1.09375 0 1.71875 -0.90625q0.625 -0.921875 0.625 -2.609375q0 -1.71875 -0.640625 -2.578125q-0.625 -0.859375 -1.734375 -0.859375q-2.421875 0 -2.453125 3.28125q0 1.890625 0.625 2.78125q0.640625 0.890625 1.859375 0.890625zm6.5509033 5.890625l0 -14.4375l2.09375 0l0.25 1.4375q0.5 -0.8125 1.328125 -1.25q0.84375 -0.4375 1.859375 -0.4375q1.25 0 2.203125 0.703125q0.953125 0.6875 1.4375 1.890625q0.5 1.203125 0.5 2.703125q0 2.375 -1.15625 3.859375q-1.140625 1.484375 -3.09375 1.484375q-0.96875 0 -1.75 -0.375q-0.78125 -0.390625 -1.3125 -1.046875q0.078125 1.34375 0.078125 1.5l0 3.859375l-2.4375 0.109375zm4.890625 -5.890625q1.09375 0 1.71875 -0.90625q0.625 -0.921875 0.625 -2.609375q0 -1.71875 -0.640625 -2.578125q-0.625 -0.859375 -1.734375 -0.859375q-2.421875 0 -2.453125 3.28125q0 1.890625 0.625 2.78125q0.640625 0.890625 1.859375 0.890625z" fill-rule="nonzero"></path><path fill="#f9cb9c" d="m555.01917 44.686184l227.59052 0l0 73.22835l-227.59052 0z" fill-rule="nonzero"></path><path stroke="#e69138" stroke-width="4.0" stroke-linejoin="round" stroke-linecap="butt" d="m555.01917 44.686184l227.59052 0l0 73.22835l-227.59052 0z" fill-rule="nonzero"></path><path fill="#000000" d="m631.3903 88.40785q-2.453125 0 -4.40625 -1.140625l0.609375 -1.984375q0.875 0.484375 1.890625 0.78125q1.03125 0.296875 2.0 0.296875q1.203125 0 1.8125 -0.515625q0.609375 -0.515625 0.609375 -1.484375q0 -1.28125 -1.703125 -1.765625q-0.125 -0.046875 -0.6875 -0.203125q-0.546875 -0.171875 -1.03125 -0.3125q-0.484375 -0.15625 -0.703125 -0.25q-2.734375 -0.953125 -2.734375 -3.59375q0 -1.84375 1.3125 -2.84375q1.3125 -1.0 3.484375 -1.0q2.453125 0 4.234375 1.0l-0.75 1.84375q-1.828125 -0.8125 -3.390625 -0.8125q-1.109375 0 -1.6875 0.390625q-0.5625 0.390625 -0.609375 1.3125q0 1.125 1.125 1.46875q0.21875 0.09375 1.09375 0.375q0.875 0.265625 1.140625 0.359375q1.859375 0.609375 2.65625 1.515625q0.8125 0.90625 0.8125 2.53125q0 1.9375 -1.375 2.984375q-1.375 1.046875 -3.703125 1.046875zm11.253113 0q-2.34375 0 -3.65625 -1.390625q-1.296875 -1.390625 -1.296875 -3.96875q0 -2.515625 1.359375 -3.890625q1.375 -1.390625 3.609375 -1.390625q1.796875 0 3.03125 0.78125l-0.578125 1.734375q-1.265625 -0.65625 -2.34375 -0.65625q-1.234375 0 -1.953125 0.875q-0.703125 0.875 -0.703125 2.5625q0 1.71875 0.703125 2.609375q0.703125 0.890625 1.984375 0.890625q1.328125 0 2.5625 -0.796875l0.234375 1.84375q-0.640625 0.4375 -1.328125 0.609375q-0.6875 0.1875 -1.625 0.1875zm7.401123 0q-1.421875 0 -2.296875 -0.78125q-0.875 -0.78125 -0.875 -2.25q0 -1.59375 1.03125 -2.359375q1.046875 -0.765625 3.140625 -0.96875q0.296875 -0.03125 0.625 -0.0625q0.328125 -0.046875 0.75 -0.078125q0.421875 -0.046875 0.65625 -0.078125l0 -0.53125q0 -0.921875 -0.421875 -1.34375q-0.421875 -0.421875 -1.296875 -0.421875q-1.25 0 -3.078125 0.6875q0 -0.03125 -0.296875 -0.84375q-0.296875 -0.8125 -0.3125 -0.828125q1.796875 -0.78125 3.90625 -0.78125q2.046875 0 2.984375 0.90625q0.9375 0.890625 0.9375 2.890625l0 6.65625l-1.796875 0q0 -0.03125 -0.203125 -0.609375q-0.1875 -0.59375 -0.1875 -0.640625q-0.765625 0.75 -1.5 1.09375q-0.71875 0.34375 -1.765625 0.34375zm0.65625 -1.71875q0.84375 0 1.46875 -0.40625q0.640625 -0.40625 0.90625 -0.96875l0 -1.96875q-0.03125 0 -0.5 0.03125q-0.453125 0.03125 -0.484375 0.03125q-1.484375 0.140625 -2.171875 0.5625q-0.671875 0.421875 -0.671875 1.375q0 0.640625 0.375 1.0q0.375 0.34375 1.078125 0.34375zm10.63739 1.671875q-1.0625 0 -1.75 -0.25q-0.6875 -0.25 -1.09375 -0.78125q-0.390625 -0.53125 -0.546875 -1.265625q-0.15625 -0.75 -0.15625 -1.859375l0 -9.9375l2.421875 -0.15625l0 10.046875q0 1.375 0.328125 1.859375q0.328125 0.484375 1.265625 0.484375q0.46875 0 1.171875 -0.09375l0.0625 1.734375q0 0 -0.21875 0.046875q-0.21875 0.046875 -0.421875 0.078125q-0.203125 0.03125 -0.515625 0.0625q-0.296875 0.03125 -0.546875 0.03125zm5.486023 0.046875q-1.421875 0 -2.296875 -0.78125q-0.875 -0.78125 -0.875 -2.25q0 -1.59375 1.03125 -2.359375q1.046875 -0.765625 3.140625 -0.96875q0.296875 -0.03125 0.625 -0.0625q0.328125 -0.046875 0.75 -0.078125q0.421875 -0.046875 0.65625 -0.078125l0 -0.53125q0 -0.921875 -0.421875 -1.34375q-0.421875 -0.421875 -1.296875 -0.421875q-1.25 0 -3.078125 0.6875q0 -0.03125 -0.296875 -0.84375q-0.296875 -0.8125 -0.3125 -0.828125q1.796875 -0.78125 3.90625 -0.78125q2.046875 0 2.984375 0.90625q0.9375 0.890625 0.9375 2.890625l0 6.65625l-1.796875 0q0 -0.03125 -0.203125 -0.609375q-0.1875 -0.59375 -0.1875 -0.640625q-0.765625 0.75 -1.5 1.09375q-0.71875 0.34375 -1.765625 0.34375zm0.65625 -1.71875q0.84375 0 1.46875 -0.40625q0.640625 -0.40625 0.90625 -0.96875l0 -1.96875q-0.03125 0 -0.5 0.03125q-0.453125 0.03125 -0.484375 0.03125q-1.484375 0.140625 -2.171875 0.5625q-0.671875 0.421875 -0.671875 1.375q0 0.640625 0.375 1.0q0.375 0.34375 1.078125 0.34375zm14.675049 1.71875q-1.421875 0 -2.296875 -0.78125q-0.875 -0.78125 -0.875 -2.25q0 -1.59375 1.03125 -2.359375q1.046875 -0.765625 3.140625 -0.96875q0.296875 -0.03125 0.625 -0.0625q0.328125 -0.046875 0.75 -0.078125q0.421875 -0.046875 0.65625 -0.078125l0 -0.53125q0 -0.921875 -0.421875 -1.34375q-0.421875 -0.421875 -1.296875 -0.421875q-1.25 0 -3.078125 0.6875q0 -0.03125 -0.296875 -0.84375q-0.296875 -0.8125 -0.3125 -0.828125q1.796875 -0.78125 3.90625 -0.78125q2.046875 0 2.984375 0.90625q0.9375 0.890625 0.9375 2.890625l0 6.65625l-1.796875 0q0 -0.03125 -0.203125 -0.609375q-0.1875 -0.59375 -0.1875 -0.640625q-0.765625 0.75 -1.5 1.09375q-0.71875 0.34375 -1.765625 0.34375zm0.65625 -1.71875q0.84375 0 1.46875 -0.40625q0.640625 -0.40625 0.90625 -0.96875l0 -1.96875q-0.03125 0 -0.5 0.03125q-0.453125 0.03125 -0.484375 0.03125q-1.484375 0.140625 -2.171875 0.5625q-0.671875 0.421875 -0.671875 1.375q0 0.640625 0.375 1.0q0.375 0.34375 1.078125 0.34375zm7.059265 5.765625l0 -14.4375l2.09375 0l0.25 1.4375q0.5 -0.8125 1.328125 -1.25q0.84375 -0.4375 1.859375 -0.4375q1.25 0 2.203125 0.703125q0.953125 0.6875 1.4375 1.890625q0.5 1.203125 0.5 2.703125q0 2.375 -1.15625 3.859375q-1.140625 1.484375 -3.09375 1.484375q-0.96875 0 -1.75 -0.375q-0.78125 -0.390625 -1.3125 -1.046875q0.078125 1.34375 0.078125 1.5l0 3.859375l-2.4375 0.109375zm4.890625 -5.890625q1.09375 0 1.71875 -0.90625q0.625 -0.921875 0.625 -2.609375q0 -1.71875 -0.640625 -2.578125q-0.625 -0.859375 -1.734375 -0.859375q-2.421875 0 -2.453125 3.28125q0 1.890625 0.625 2.78125q0.640625 0.890625 1.859375 0.890625zm6.5509033 5.890625l0 -14.4375l2.09375 0l0.25 1.4375q0.5 -0.8125 1.328125 -1.25q0.84375 -0.4375 1.859375 -0.4375q1.25 0 2.203125 0.703125q0.953125 0.6875 1.4375 1.890625q0.5 1.203125 0.5 2.703125q0 2.375 -1.15625 3.859375q-1.140625 1.484375 -3.09375 1.484375q-0.96875 0 -1.75 -0.375q-0.78125 -0.390625 -1.3125 -1.046875q0.078125 1.34375 0.078125 1.5l0 3.859375l-2.4375 0.109375zm4.890625 -5.890625q1.09375 0 1.71875 -0.90625q0.625 -0.921875 0.625 -2.609375q0 -1.71875 -0.640625 -2.578125q-0.625 -0.859375 -1.734375 -0.859375q-2.421875 0 -2.453125 3.28125q0 1.890625 0.625 2.78125q0.640625 0.890625 1.859375 0.890625z" fill-rule="nonzero"></path><path fill="#000000" fill-opacity="0.0" d="m24.0 0l112.0 0l0 44.09449l-112.0 0z" fill-rule="nonzero"></path><path fill="#000000" d="m32.53125 23.83125l-0.0625 -1.34375q0.296875 0.046875 0.671875 0.046875q0.703125 0 0.9375 -0.359375q0.25 -0.359375 0.25 -1.1875l0 -8.515625l1.734375 0l0 8.390625q0 0.796875 -0.140625 1.34375q-0.140625 0.5625 -0.484375 0.9375q-0.34375 0.390625 -0.90625 0.5625q-0.5625 0.1875 -1.390625 0.1875q-0.34375 0 -0.609375 -0.0625zm4.5726166 -2.03125l3.421875 -9.3125l1.875 0l3.359375 9.3125l-1.765625 0l-0.921875 -2.625l-3.25 0l-0.921875 2.625l-1.796875 0zm3.15625 -3.90625l2.375 0q-1.140625 -3.671875 -1.171875 -3.78125l-1.203125 3.78125zm6.656708 3.90625l0 -9.328125l3.453125 0q0.703125 0 1.21875 0.0625q0.515625 0.0625 0.984375 0.234375q0.46875 0.171875 0.75 0.453125q0.296875 0.28125 0.453125 0.75q0.171875 0.453125 0.171875 1.09375q0 1.84375 -1.671875 2.4375q0.34375 0.375 0.84375 1.421875l1.390625 2.875l-1.875 0l-1.09375 -2.4375q-0.609375 -1.296875 -0.765625 -1.546875q-0.109375 0 -0.71875 0l-1.4375 -0.015625l0 4.0l-1.703125 0zm3.609375 -5.234375q0.984375 0 1.40625 -0.34375q0.4375 -0.359375 0.4375 -1.140625q0 -0.6875 -0.4375 -1.0q-0.4375 -0.328125 -1.328125 -0.328125l-1.984375 0l0 2.8125q0.09375 0 0.9375 0q0.859375 0 0.96875 0zm11.920868 5.375q-1.59375 0 -2.484375 -0.953125q-0.890625 -0.953125 -0.890625 -2.734375q0 -1.703125 0.9375 -2.640625q0.9375 -0.953125 2.46875 -0.953125q1.21875 0 2.0625 0.515625l-0.390625 1.1875q-0.859375 -0.453125 -1.609375 -0.453125q-0.84375 0 -1.328125 0.609375q-0.484375 0.609375 -0.484375 1.765625q0 1.15625 0.46875 1.765625q0.484375 0.609375 1.359375 0.609375q0.921875 0 1.765625 -0.53125l0.15625 1.265625q-0.4375 0.28125 -0.90625 0.40625q-0.46875 0.140625 -1.125 0.140625zm6.5599365 -1.265625q0.84375 0 1.265625 -0.609375q0.421875 -0.625 0.421875 -1.78125q0 -1.15625 -0.421875 -1.765625q-0.421875 -0.609375 -1.28125 -0.609375q-0.84375 0 -1.28125 0.609375q-0.421875 0.609375 -0.421875 1.78125q0 1.140625 0.421875 1.765625q0.4375 0.609375 1.296875 0.609375zm-0.046875 1.265625q-1.546875 0 -2.4375 -1.0q-0.890625 -1.015625 -0.890625 -2.65625q0 -1.6875 0.890625 -2.65625q0.890625 -0.96875 2.5 -0.96875q1.5625 0 2.453125 1.0q0.890625 0.984375 0.890625 2.625q0 1.671875 -0.90625 2.671875q-0.890625 0.984375 -2.5 0.984375zm4.9526215 -0.140625l0 -6.96875l1.34375 0l0.1875 0.875q1.0625 -1.046875 2.359375 -1.046875q1.21875 0 1.828125 0.703125q0.609375 0.6875 0.609375 2.03125l0 4.40625l-1.671875 0l0 -4.203125q-0.015625 -0.84375 -0.28125 -1.265625q-0.265625 -0.421875 -0.953125 -0.421875q-0.546875 0 -1.0 0.28125q-0.4375 0.265625 -0.640625 0.6875q-0.125 0.5 -0.125 1.53125l0 3.390625l-1.65625 0zm10.942123 0.09375q-0.703125 0 -1.1875 -0.15625q-0.46875 -0.171875 -0.734375 -0.53125q-0.265625 -0.375 -0.375 -0.859375q-0.109375 -0.5 -0.109375 -1.21875l0 -3.296875l-1.140625 0l0.0625 -0.90625l1.1875 -0.09375l0.53125 -1.90625l1.015625 0l0 1.90625l1.734375 0l0 1.0l-1.734375 0l0 3.328125q0 0.796875 0.234375 1.140625q0.234375 0.328125 0.84375 0.328125q0.359375 0 0.78125 -0.0625l0.046875 1.1875q-0.015625 0 -0.171875 0.03125q-0.140625 0.03125 -0.265625 0.046875q-0.125 0.03125 -0.328125 0.046875q-0.203125 0.015625 -0.390625 0.015625zm4.28833 0.046875q-0.96875 0 -1.578125 -0.53125q-0.59375 -0.546875 -0.59375 -1.5625q0 -1.078125 0.703125 -1.59375q0.71875 -0.53125 2.15625 -0.671875q0.1875 -0.03125 0.421875 -0.046875q0.234375 -0.03125 0.515625 -0.046875q0.28125 -0.03125 0.453125 -0.0625l0 -0.359375q0 -0.640625 -0.296875 -0.921875q-0.296875 -0.296875 -0.890625 -0.296875q-0.84375 0 -2.09375 0.484375q-0.015625 -0.015625 -0.21875 -0.578125q-0.203125 -0.5625 -0.203125 -0.578125q1.234375 -0.515625 2.65625 -0.515625q1.421875 0 2.0625 0.609375q0.640625 0.609375 0.640625 1.984375l0 4.546875l-1.234375 0q0 -0.03125 -0.140625 -0.421875q-0.140625 -0.40625 -0.140625 -0.421875q-0.515625 0.5 -1.015625 0.75q-0.5 0.234375 -1.203125 0.234375zm0.453125 -1.1875q0.578125 0 1.0 -0.265625q0.4375 -0.28125 0.609375 -0.6875l0 -1.34375q-0.015625 0 -0.328125 0.03125q-0.3125 0.03125 -0.34375 0.03125q-1.0 0.078125 -1.46875 0.375q-0.46875 0.296875 -0.46875 0.9375q0 0.4375 0.25 0.6875q0.265625 0.234375 0.75 0.234375zm5.1663666 1.046875l0 -6.96875l1.671875 0l0 6.96875l-1.671875 0zm0 -7.984375l0 -1.421875l1.671875 0l0 1.421875l-1.671875 0zm3.4895172 7.984375l0 -6.96875l1.34375 0l0.1875 0.875q1.0625 -1.046875 2.359375 -1.046875q1.21875 0 1.828125 0.703125q0.609375 0.6875 0.609375 2.03125l0 4.40625l-1.671875 0l0 -4.203125q-0.015625 -0.84375 -0.28125 -1.265625q-0.265625 -0.421875 -0.953125 -0.421875q-0.546875 0 -1.0 0.28125q-0.4375 0.265625 -0.640625 0.6875q-0.125 0.5 -0.125 1.53125l0 3.390625l-1.65625 0zm11.379623 0.140625q-1.671875 0 -2.609375 -0.96875q-0.9375 -0.96875 -0.9375 -2.6875q0 -1.65625 0.875 -2.640625q0.890625 -0.984375 2.40625 -0.984375q1.453125 0 2.25 0.90625q0.796875 0.890625 0.796875 2.375q0 0.109375 -0.015625 0.359375q0 0.234375 0 0.34375l-4.640625 0q0.03125 0.984375 0.53125 1.53125q0.515625 0.53125 1.40625 0.53125q1.15625 0 2.203125 -0.59375l0.234375 1.171875q-1.046875 0.65625 -2.5 0.65625zm-1.84375 -4.34375l3.046875 0q0 -0.84375 -0.390625 -1.296875q-0.375 -0.453125 -1.0625 -0.453125q-0.640625 0 -1.09375 0.4375q-0.4375 0.4375 -0.5 1.3125zm6.1546173 4.203125l0 -6.96875l1.40625 0l0.21875 1.0625q0.6875 -1.109375 1.984375 -1.109375q0.265625 0 0.4375 0.03125l-0.015625 1.390625q-0.265625 -0.03125 -0.53125 -0.03125q-0.921875 0 -1.375 0.484375q-0.453125 0.484375 -0.453125 1.359375l0 3.78125l-1.671875 0z" fill-rule="nonzero"></path><path fill="#000000" fill-opacity="0.0" d="m280.0 0l112.0 0l0 44.09449l-112.0 0z" fill-rule="nonzero"></path><path fill="#000000" d="m288.53125 23.83125l-0.0625 -1.34375q0.296875 0.046875 0.671875 0.046875q0.703125 0 0.9375 -0.359375q0.25 -0.359375 0.25 -1.1875l0 -8.515625l1.734375 0l0 8.390625q0 0.796875 -0.140625 1.34375q-0.140625 0.5625 -0.484375 0.9375q-0.34375 0.390625 -0.90625 0.5625q-0.5625 0.1875 -1.390625 0.1875q-0.34375 0 -0.609375 -0.0625zm4.572632 -2.03125l3.421875 -9.3125l1.875 0l3.359375 9.3125l-1.765625 0l-0.921875 -2.625l-3.25 0l-0.921875 2.625l-1.796875 0zm3.15625 -3.90625l2.375 0q-1.140625 -3.671875 -1.171875 -3.78125l-1.203125 3.78125zm6.6566772 3.90625l0 -9.328125l3.453125 0q0.703125 0 1.21875 0.0625q0.515625 0.0625 0.984375 0.234375q0.46875 0.171875 0.75 0.453125q0.296875 0.28125 0.453125 0.75q0.171875 0.453125 0.171875 1.09375q0 1.84375 -1.671875 2.4375q0.34375 0.375 0.84375 1.421875l1.390625 2.875l-1.875 0l-1.09375 -2.4375q-0.609375 -1.296875 -0.765625 -1.546875q-0.109375 0 -0.71875 0l-1.4375 -0.015625l0 4.0l-1.703125 0zm3.609375 -5.234375q0.984375 0 1.40625 -0.34375q0.4375 -0.359375 0.4375 -1.140625q0 -0.6875 -0.4375 -1.0q-0.4375 -0.328125 -1.328125 -0.328125l-1.984375 0l0 2.8125q0.09375 0 0.9375 0q0.859375 0 0.96875 0zm11.920898 5.375q-1.59375 0 -2.484375 -0.953125q-0.890625 -0.953125 -0.890625 -2.734375q0 -1.703125 0.9375 -2.640625q0.9375 -0.953125 2.46875 -0.953125q1.21875 0 2.0625 0.515625l-0.390625 1.1875q-0.859375 -0.453125 -1.609375 -0.453125q-0.84375 0 -1.328125 0.609375q-0.484375 0.609375 -0.484375 1.765625q0 1.15625 0.46875 1.765625q0.484375 0.609375 1.359375 0.609375q0.921875 0 1.765625 -0.53125l0.15625 1.265625q-0.4375 0.28125 -0.90625 0.40625q-0.46875 0.140625 -1.125 0.140625zm6.5599365 -1.265625q0.84375 0 1.265625 -0.609375q0.421875 -0.625 0.421875 -1.78125q0 -1.15625 -0.421875 -1.765625q-0.421875 -0.609375 -1.28125 -0.609375q-0.84375 0 -1.28125 0.609375q-0.421875 0.609375 -0.421875 1.78125q0 1.140625 0.421875 1.765625q0.4375 0.609375 1.296875 0.609375zm-0.046875 1.265625q-1.546875 0 -2.4375 -1.0q-0.890625 -1.015625 -0.890625 -2.65625q0 -1.6875 0.890625 -2.65625q0.890625 -0.96875 2.5 -0.96875q1.5625 0 2.453125 1.0q0.890625 0.984375 0.890625 2.625q0 1.671875 -0.90625 2.671875q-0.890625 0.984375 -2.5 0.984375zm4.952606 -0.140625l0 -6.96875l1.34375 0l0.1875 0.875q1.0625 -1.046875 2.359375 -1.046875q1.21875 0 1.828125 0.703125q0.609375 0.6875 0.609375 2.03125l0 4.40625l-1.671875 0l0 -4.203125q-0.015625 -0.84375 -0.28125 -1.265625q-0.265625 -0.421875 -0.953125 -0.421875q-0.546875 0 -1.0 0.28125q-0.4375 0.265625 -0.640625 0.6875q-0.125 0.5 -0.125 1.53125l0 3.390625l-1.65625 0zm10.942108 0.09375q-0.703125 0 -1.1875 -0.15625q-0.46875 -0.171875 -0.734375 -0.53125q-0.265625 -0.375 -0.375 -0.859375q-0.109375 -0.5 -0.109375 -1.21875l0 -3.296875l-1.140625 0l0.0625 -0.90625l1.1875 -0.09375l0.53125 -1.90625l1.015625 0l0 1.90625l1.734375 0l0 1.0l-1.734375 0l0 3.328125q0 0.796875 0.234375 1.140625q0.234375 0.328125 0.84375 0.328125q0.359375 0 0.78125 -0.0625l0.046875 1.1875q-0.015625 0 -0.171875 0.03125q-0.140625 0.03125 -0.265625 0.046875q-0.125 0.03125 -0.328125 0.046875q-0.203125 0.015625 -0.390625 0.015625zm4.28833 0.046875q-0.96875 0 -1.578125 -0.53125q-0.59375 -0.546875 -0.59375 -1.5625q0 -1.078125 0.703125 -1.59375q0.71875 -0.53125 2.15625 -0.671875q0.1875 -0.03125 0.421875 -0.046875q0.234375 -0.03125 0.515625 -0.046875q0.28125 -0.03125 0.453125 -0.0625l0 -0.359375q0 -0.640625 -0.296875 -0.921875q-0.296875 -0.296875 -0.890625 -0.296875q-0.84375 0 -2.09375 0.484375q-0.015625 -0.015625 -0.21875 -0.578125q-0.203125 -0.5625 -0.203125 -0.578125q1.234375 -0.515625 2.65625 -0.515625q1.421875 0 2.0625 0.609375q0.640625 0.609375 0.640625 1.984375l0 4.546875l-1.234375 0q0 -0.03125 -0.140625 -0.421875q-0.140625 -0.40625 -0.140625 -0.421875q-0.515625 0.5 -1.015625 0.75q-0.5 0.234375 -1.203125 0.234375zm0.453125 -1.1875q0.578125 0 1.0 -0.265625q0.4375 -0.28125 0.609375 -0.6875l0 -1.34375q-0.015625 0 -0.328125 0.03125q-0.3125 0.03125 -0.34375 0.03125q-1.0 0.078125 -1.46875 0.375q-0.46875 0.296875 -0.46875 0.9375q0 0.4375 0.25 0.6875q0.265625 0.234375 0.75 0.234375zm5.166382 1.046875l0 -6.96875l1.671875 0l0 6.96875l-1.671875 0zm0 -7.984375l0 -1.421875l1.671875 0l0 1.421875l-1.671875 0zm3.489502 7.984375l0 -6.96875l1.34375 0l0.1875 0.875q1.0625 -1.046875 2.359375 -1.046875q1.21875 0 1.828125 0.703125q0.609375 0.6875 0.609375 2.03125l0 4.40625l-1.671875 0l0 -4.203125q-0.015625 -0.84375 -0.28125 -1.265625q-0.265625 -0.421875 -0.953125 -0.421875q-0.546875 0 -1.0 0.28125q-0.4375 0.265625 -0.640625 0.6875q-0.125 0.5 -0.125 1.53125l0 3.390625l-1.65625 0zm11.379639 0.140625q-1.671875 0 -2.609375 -0.96875q-0.9375 -0.96875 -0.9375 -2.6875q0 -1.65625 0.875 -2.640625q0.890625 -0.984375 2.40625 -0.984375q1.453125 0 2.25 0.90625q0.796875 0.890625 0.796875 2.375q0 0.109375 -0.015625 0.359375q0 0.234375 0 0.34375l-4.640625 0q0.03125 0.984375 0.53125 1.53125q0.515625 0.53125 1.40625 0.53125q1.15625 0 2.203125 -0.59375l0.234375 1.171875q-1.046875 0.65625 -2.5 0.65625zm-1.84375 -4.34375l3.046875 0q0 -0.84375 -0.390625 -1.296875q-0.375 -0.453125 -1.0625 -0.453125q-0.640625 0 -1.09375 0.4375q-0.4375 0.4375 -0.5 1.3125zm6.154602 4.203125l0 -6.96875l1.40625 0l0.21875 1.0625q0.6875 -1.109375 1.984375 -1.109375q0.265625 0 0.4375 0.03125l-0.015625 1.390625q-0.265625 -0.03125 -0.53125 -0.03125q-0.921875 0 -1.375 0.484375q-0.453125 0.484375 -0.453125 1.359375l0 3.78125l-1.671875 0z" fill-rule="nonzero"></path><path fill="#000000" fill-opacity="0.0" d="m536.0 0l112.0 0l0 44.09449l-112.0 0z" fill-rule="nonzero"></path><path fill="#000000" d="m544.53125 23.83125l-0.0625 -1.34375q0.296875 0.046875 0.671875 0.046875q0.703125 0 0.9375 -0.359375q0.25 -0.359375 0.25 -1.1875l0 -8.515625l1.734375 0l0 8.390625q0 0.796875 -0.140625 1.34375q-0.140625 0.5625 -0.484375 0.9375q-0.34375 0.390625 -0.90625 0.5625q-0.5625 0.1875 -1.390625 0.1875q-0.34375 0 -0.609375 -0.0625zm4.572632 -2.03125l3.421875 -9.3125l1.875 0l3.359375 9.3125l-1.765625 0l-0.921875 -2.625l-3.25 0l-0.921875 2.625l-1.796875 0zm3.15625 -3.90625l2.375 0q-1.140625 -3.671875 -1.171875 -3.78125l-1.203125 3.78125zm6.6566772 3.90625l0 -9.328125l3.453125 0q0.703125 0 1.21875 0.0625q0.515625 0.0625 0.984375 0.234375q0.46875 0.171875 0.75 0.453125q0.296875 0.28125 0.453125 0.75q0.171875 0.453125 0.171875 1.09375q0 1.84375 -1.671875 2.4375q0.34375 0.375 0.84375 1.421875l1.390625 2.875l-1.875 0l-1.09375 -2.4375q-0.609375 -1.296875 -0.765625 -1.546875q-0.109375 0 -0.71875 0l-1.4375 -0.015625l0 4.0l-1.703125 0zm3.609375 -5.234375q0.984375 0 1.40625 -0.34375q0.4375 -0.359375 0.4375 -1.140625q0 -0.6875 -0.4375 -1.0q-0.4375 -0.328125 -1.328125 -0.328125l-1.984375 0l0 2.8125q0.09375 0 0.9375 0q0.859375 0 0.96875 0zm11.920898 5.375q-1.59375 0 -2.484375 -0.953125q-0.890625 -0.953125 -0.890625 -2.734375q0 -1.703125 0.9375 -2.640625q0.9375 -0.953125 2.46875 -0.953125q1.21875 0 2.0625 0.515625l-0.390625 1.1875q-0.859375 -0.453125 -1.609375 -0.453125q-0.84375 0 -1.328125 0.609375q-0.484375 0.609375 -0.484375 1.765625q0 1.15625 0.46875 1.765625q0.484375 0.609375 1.359375 0.609375q0.921875 0 1.765625 -0.53125l0.15625 1.265625q-0.4375 0.28125 -0.90625 0.40625q-0.46875 0.140625 -1.125 0.140625zm6.5599365 -1.265625q0.84375 0 1.265625 -0.609375q0.421875 -0.625 0.421875 -1.78125q0 -1.15625 -0.421875 -1.765625q-0.421875 -0.609375 -1.28125 -0.609375q-0.84375 0 -1.28125 0.609375q-0.421875 0.609375 -0.421875 1.78125q0 1.140625 0.421875 1.765625q0.4375 0.609375 1.296875 0.609375zm-0.046875 1.265625q-1.546875 0 -2.4375 -1.0q-0.890625 -1.015625 -0.890625 -2.65625q0 -1.6875 0.890625 -2.65625q0.890625 -0.96875 2.5 -0.96875q1.5625 0 2.453125 1.0q0.890625 0.984375 0.890625 2.625q0 1.671875 -0.90625 2.671875q-0.890625 0.984375 -2.5 0.984375zm4.9525757 -0.140625l0 -6.96875l1.34375 0l0.1875 0.875q1.0625 -1.046875 2.359375 -1.046875q1.21875 0 1.828125 0.703125q0.609375 0.6875 0.609375 2.03125l0 4.40625l-1.671875 0l0 -4.203125q-0.015625 -0.84375 -0.28125 -1.265625q-0.265625 -0.421875 -0.953125 -0.421875q-0.546875 0 -1.0 0.28125q-0.4375 0.265625 -0.640625 0.6875q-0.125 0.5 -0.125 1.53125l0 3.390625l-1.65625 0zm10.942139 0.09375q-0.703125 0 -1.1875 -0.15625q-0.46875 -0.171875 -0.734375 -0.53125q-0.265625 -0.375 -0.375 -0.859375q-0.109375 -0.5 -0.109375 -1.21875l0 -3.296875l-1.140625 0l0.0625 -0.90625l1.1875 -0.09375l0.53125 -1.90625l1.015625 0l0 1.90625l1.734375 0l0 1.0l-1.734375 0l0 3.328125q0 0.796875 0.234375 1.140625q0.234375 0.328125 0.84375 0.328125q0.359375 0 0.78125 -0.0625l0.046875 1.1875q-0.015625 0 -0.171875 0.03125q-0.140625 0.03125 -0.265625 0.046875q-0.125 0.03125 -0.328125 0.046875q-0.203125 0.015625 -0.390625 0.015625zm4.28833 0.046875q-0.96875 0 -1.578125 -0.53125q-0.59375 -0.546875 -0.59375 -1.5625q0 -1.078125 0.703125 -1.59375q0.71875 -0.53125 2.15625 -0.671875q0.1875 -0.03125 0.421875 -0.046875q0.234375 -0.03125 0.515625 -0.046875q0.28125 -0.03125 0.453125 -0.0625l0 -0.359375q0 -0.640625 -0.296875 -0.921875q-0.296875 -0.296875 -0.890625 -0.296875q-0.84375 0 -2.09375 0.484375q-0.015625 -0.015625 -0.21875 -0.578125q-0.203125 -0.5625 -0.203125 -0.578125q1.234375 -0.515625 2.65625 -0.515625q1.421875 0 2.0625 0.609375q0.640625 0.609375 0.640625 1.984375l0 4.546875l-1.234375 0q0 -0.03125 -0.140625 -0.421875q-0.140625 -0.40625 -0.140625 -0.421875q-0.515625 0.5 -1.015625 0.75q-0.5 0.234375 -1.203125 0.234375zm0.453125 -1.1875q0.578125 0 1.0 -0.265625q0.4375 -0.28125 0.609375 -0.6875l0 -1.34375q-0.015625 0 -0.328125 0.03125q-0.3125 0.03125 -0.34375 0.03125q-1.0 0.078125 -1.46875 0.375q-0.46875 0.296875 -0.46875 0.9375q0 0.4375 0.25 0.6875q0.265625 0.234375 0.75 0.234375zm5.166382 1.046875l0 -6.96875l1.671875 0l0 6.96875l-1.671875 0zm0 -7.984375l0 -1.421875l1.671875 0l0 1.421875l-1.671875 0zm3.489502 7.984375l0 -6.96875l1.34375 0l0.1875 0.875q1.0625 -1.046875 2.359375 -1.046875q1.21875 0 1.828125 0.703125q0.609375 0.6875 0.609375 2.03125l0 4.40625l-1.671875 0l0 -4.203125q-0.015625 -0.84375 -0.28125 -1.265625q-0.265625 -0.421875 -0.953125 -0.421875q-0.546875 0 -1.0 0.28125q-0.4375 0.265625 -0.640625 0.6875q-0.125 0.5 -0.125 1.53125l0 3.390625l-1.65625 0zm11.379639 0.140625q-1.671875 0 -2.609375 -0.96875q-0.9375 -0.96875 -0.9375 -2.6875q0 -1.65625 0.875 -2.640625q0.890625 -0.984375 2.40625 -0.984375q1.453125 0 2.25 0.90625q0.796875 0.890625 0.796875 2.375q0 0.109375 -0.015625 0.359375q0 0.234375 0 0.34375l-4.640625 0q0.03125 0.984375 0.53125 1.53125q0.515625 0.53125 1.40625 0.53125q1.15625 0 2.203125 -0.59375l0.234375 1.171875q-1.046875 0.65625 -2.5 0.65625zm-1.84375 -4.34375l3.046875 0q0 -0.84375 -0.390625 -1.296875q-0.375 -0.453125 -1.0625 -0.453125q-0.640625 0 -1.09375 0.4375q-0.4375 0.4375 -0.5 1.3125zm6.154602 4.203125l0 -6.96875l1.40625 0l0.21875 1.0625q0.6875 -1.109375 1.984375 -1.109375q0.265625 0 0.4375 0.03125l-0.015625 1.390625q-0.265625 -0.03125 -0.53125 -0.03125q-0.921875 0 -1.375 0.484375q-0.453125 0.484375 -0.453125 1.359375l0 3.78125l-1.671875 0z" fill-rule="nonzero"></path></g></svg>

