<?xml version="1.0" standalone="yes"?>

<svg version="1.1" viewBox="0.0 0.0 864.0839895013123 193.79265091863516" fill="none" stroke="none" stroke-linecap="square" stroke-miterlimit="10" xmlns="http://www.w3.org/2000/svg" xmlns:xlink="http://www.w3.org/1999/xlink"><clipPath id="p.0"><path d="m0 0l864.084 0l0 193.79265l-864.084 0l0 -193.79265z" clip-rule="nonzero"></path></clipPath><g clip-path="url(#p.0)"><path fill="#000000" fill-opacity="0.0" d="m0 0l864.084 0l0 193.79265l-864.084 0z" fill-rule="nonzero"></path><path fill="#a2c4c9" d="m32.0 24.0l227.59055 0l0 71.244095l-227.59055 0z" fill-rule="nonzero"></path><path stroke="#45818e" stroke-width="4.0" stroke-linejoin="round" stroke-linecap="butt" d="m32.0 24.0l227.59055 0l0 71.244095l-227.59055 0z" fill-rule="nonzero"></path><path fill="#000000" d="m90.03816 66.542046l0 -13.59375l2.515625 0l0 5.5625l6.140625 0l0 -5.5625l2.515625 0l0 13.59375l-2.515625 0l0 -6.046875l-6.140625 0l0 6.046875l-2.515625 0zm16.29956 0.1875q-1.421875 0 -2.296875 -0.78125q-0.875 -0.78125 -0.875 -2.25q0 -1.59375 1.03125 -2.359375q1.046875 -0.765625 3.140625 -0.96875q0.296875 -0.03125 0.625 -0.0625q0.328125 -0.046875 0.75 -0.078125q0.421875 -0.046875 0.65625 -0.078125l0 -0.53125q0 -0.921875 -0.421875 -1.34375q-0.421875 -0.421875 -1.296875 -0.421875q-1.25 0 -3.078125 0.6875q0 -0.03125 -0.296875 -0.84375q-0.296875 -0.8125 -0.3125 -0.828125q1.796875 -0.78125 3.90625 -0.78125q2.046875 0 2.984375 0.90625q0.9375 0.890625 0.9375 2.890625l0 6.65625l-1.796875 0q0 -0.03125 -0.203125 -0.609375q-0.1875 -0.59375 -0.1875 -0.640625q-0.765625 0.75 -1.5 1.09375q-0.71875 0.34375 -1.765625 0.34375zm0.65625 -1.71875q0.84375 0 1.46875 -0.40625q0.640625 -0.40625 0.90625 -0.96875l0 -1.96875q-0.03125 0 -0.5 0.03125q-0.453125 0.03125 -0.484375 0.03125q-1.484375 0.140625 -2.171875 0.5625q-0.671875 0.421875 -0.671875 1.375q0 0.640625 0.375 1.0q0.375 0.34375 1.078125 0.34375zm10.309296 1.71875q-2.25 0 -3.609375 -0.765625l0.25 -1.828125q0.625 0.328125 1.5625 0.59375q0.953125 0.265625 1.734375 0.265625q0.796875 0 1.25 -0.296875q0.453125 -0.3125 0.453125 -0.890625q0 -0.53125 -0.421875 -0.828125q-0.421875 -0.3125 -1.609375 -0.765625q-0.40625 -0.15625 -0.515625 -0.203125q-1.421875 -0.546875 -2.046875 -1.21875q-0.609375 -0.671875 -0.609375 -1.828125q0 -1.390625 1.0 -2.125q1.015625 -0.75 2.8125 -0.75q1.953125 0 3.421875 0.734375l-0.609375 1.6875q-1.453125 -0.6875 -2.765625 -0.6875q-0.734375 0 -1.15625 0.25q-0.40625 0.25 -0.40625 0.75q0 0.46875 0.390625 0.734375q0.40625 0.265625 1.5625 0.6875q0.046875 0.015625 0.25 0.09375q0.203125 0.078125 0.3125 0.109375q1.40625 0.515625 2.0625 1.234375q0.65625 0.703125 0.65625 1.84375q-0.015625 1.53125 -1.046875 2.375q-1.015625 0.828125 -2.921875 0.828125zm5.7228546 -0.1875l0 -13.953125l2.4375 -0.15625l0 6.265625l-0.0625 2.046875q0.015625 0 0.1875 -0.171875q0.1875 -0.1875 0.203125 -0.203125q0.515625 -0.59375 1.109375 -1.234375q0.59375 -0.640625 1.5 -1.5625q0.921875 -0.9375 1.203125 -1.234375l2.890625 0l-4.1875 4.34375l4.453125 5.859375l-2.9375 0l-3.359375 -4.625l-1.0 0.796875l0 3.828125l-2.4375 0zm15.40419 0.1875q-2.46875 0 -3.84375 -1.40625q-1.359375 -1.421875 -1.359375 -3.90625q0 -2.4375 1.28125 -3.875q1.296875 -1.4375 3.53125 -1.453125q2.09375 0 3.25 1.328125q1.171875 1.3125 1.171875 3.5q0 0.15625 0 0.515625q0 0.34375 0 0.5l-6.78125 0q0.03125 1.4375 0.78125 2.21875q0.75 0.78125 2.0625 0.78125q1.65625 0 3.203125 -0.875l0.34375 1.734375q-1.53125 0.9375 -3.640625 0.9375zm-2.703125 -6.3125l4.453125 0q0 -1.25 -0.578125 -1.921875q-0.5625 -0.671875 -1.5625 -0.671875q-0.9375 0 -1.578125 0.65625q-0.640625 0.65625 -0.734375 1.9375zm12.102188 6.265625q-1.0625 0 -1.75 -0.25q-0.6875 -0.25 -1.09375 -0.78125q-0.390625 -0.53125 -0.546875 -1.265625q-0.15625 -0.75 -0.15625 -1.859375l0 -9.9375l2.421875 -0.15625l0 10.046875q0 1.375 0.328125 1.859375q0.328125 0.484375 1.265625 0.484375q0.46875 0 1.171875 -0.09375l0.0625 1.734375q0 0 -0.21875 0.046875q-0.21875 0.046875 -0.421875 0.078125q-0.203125 0.03125 -0.515625 0.0625q-0.296875 0.03125 -0.546875 0.03125zm6.376648 0q-1.0625 0 -1.75 -0.25q-0.6875 -0.25 -1.09375 -0.78125q-0.390625 -0.53125 -0.546875 -1.265625q-0.15625 -0.75 -0.15625 -1.859375l0 -9.9375l2.421875 -0.15625l0 10.046875q0 1.375 0.328125 1.859375q0.328125 0.484375 1.265625 0.484375q0.46875 0 1.171875 -0.09375l0.0625 1.734375q0 0 -0.21875 0.046875q-0.21875 0.046875 -0.421875 0.078125q-0.203125 0.03125 -0.515625 0.0625q-0.296875 0.03125 -0.546875 0.03125zm12.195511 0.046875q-2.34375 0 -3.65625 -1.390625q-1.296875 -1.390625 -1.296875 -3.96875q0 -2.515625 1.359375 -3.890625q1.375 -1.390625 3.609375 -1.390625q1.796875 0 3.03125 0.78125l-0.578125 1.734375q-1.265625 -0.65625 -2.34375 -0.65625q-1.234375 0 -1.953125 0.875q-0.703125 0.875 -0.703125 2.5625q0 1.71875 0.703125 2.609375q0.703125 0.890625 1.984375 0.890625q1.328125 0 2.5625 -0.796875l0.234375 1.84375q-0.640625 0.4375 -1.328125 0.609375q-0.6875 0.1875 -1.625 0.1875zm9.151123 -1.84375q1.234375 0 1.859375 -0.890625q0.625 -0.90625 0.625 -2.578125q0 -1.703125 -0.625 -2.59375q-0.625 -0.890625 -1.875 -0.890625q-1.234375 0 -1.859375 0.90625q-0.625 0.890625 -0.625 2.578125q0 1.671875 0.625 2.578125q0.640625 0.890625 1.875 0.890625zm-0.0625 1.84375q-2.265625 0 -3.5625 -1.453125q-1.296875 -1.46875 -1.296875 -3.859375q0 -2.46875 1.296875 -3.890625q1.296875 -1.4375 3.671875 -1.4375q2.28125 0 3.5625 1.453125q1.296875 1.453125 1.296875 3.875q0 2.4375 -1.3125 3.875q-1.296875 1.4375 -3.65625 1.4375zm10.55368 0q-2.0 0 -3.140625 -1.453125q-1.140625 -1.46875 -1.140625 -3.921875q0 -2.375 1.140625 -3.8125q1.140625 -1.453125 3.125 -1.453125q2.171875 0 3.078125 1.546875q-0.09375 -0.90625 -0.09375 -1.75l0 -3.296875l2.421875 -0.15625l0 14.109375l-2.09375 0l-0.28125 -1.390625q-0.15625 0.25 -0.296875 0.4375q-0.125 0.171875 -0.390625 0.40625q-0.25 0.234375 -0.5625 0.390625q-0.296875 0.140625 -0.765625 0.234375q-0.453125 0.109375 -1.0 0.109375zm0.578125 -1.84375q2.4375 0 2.484375 -3.328125q0 -1.875 -0.640625 -2.734375q-0.625 -0.875 -1.875 -0.875q-1.09375 0 -1.75 0.875q-0.65625 0.875 -0.65625 2.59375q0 1.6875 0.65625 2.578125q0.65625 0.890625 1.78125 0.890625zm11.812607 1.84375q-2.46875 0 -3.84375 -1.40625q-1.359375 -1.421875 -1.359375 -3.90625q0 -2.4375 1.28125 -3.875q1.296875 -1.4375 3.53125 -1.453125q2.09375 0 3.25 1.328125q1.171875 1.3125 1.171875 3.5q0 0.15625 0 0.515625q0 0.34375 0 0.5l-6.78125 0q0.03125 1.4375 0.78125 2.21875q0.75 0.78125 2.0625 0.78125q1.65625 0 3.203125 -0.875l0.34375 1.734375q-1.53125 0.9375 -3.640625 0.9375zm-2.703125 -6.3125l4.453125 0q0 -1.25 -0.578125 -1.921875q-0.5625 -0.671875 -1.5625 -0.671875q-0.9375 0 -1.578125 0.65625q-0.640625 0.65625 -0.734375 1.9375z" fill-rule="nonzero"></path><path fill="#f9cb9c" d="m384.0 94.761826l227.59058 0l0 73.22835l-227.59058 0z" fill-rule="nonzero"></path><path fill="#000000" d="m446.4618 138.29599l-1.609375 0l0 -13.718742l7.625 0l-0.0625 1.421875l-5.953125 0l0 4.8124924l5.671875 0l0 1.359375l-5.671875 0l0 6.125zm8.717377 -5.0625q0 1.8125 0.796875 2.90625q0.8125 1.078125 2.359375 1.078125q1.515625 0 2.28125 -1.078125q0.78125 -1.09375 0.78125 -2.921875q0 -1.875 -0.765625 -2.9375q-0.765625 -1.078125 -2.328125 -1.078125q-1.53125 0 -2.328125 1.09375q-0.796875 1.09375 -0.796875 2.9375zm7.828125 -0.03125q0 2.359375 -1.265625 3.84375q-1.265625 1.46875 -3.484375 1.46875q-2.140625 0 -3.40625 -1.484375q-1.265625 -1.484375 -1.265625 -3.8125q0 -2.375 1.265625 -3.84375q1.265625 -1.4687424 3.484375 -1.4687424q2.1875 0 3.421875 1.4687424q1.25 1.46875 1.25 3.828125zm6.5498657 -5.171875q0.421875 0 0.765625 0.046875l-0.0625 1.4375q-0.421875 -0.078125 -0.734375 -0.078125q-1.296875 0 -2.109375 0.90625q-0.8125 0.90625 -0.8125 2.234375l0 5.71875l-1.5625 0q0 -9.375 0 -10.171875l1.28125 0l0.15625 1.828125q0.53125 -0.875 1.34375 -1.390625q0.8125 -0.53125 1.734375 -0.53125zm8.09256 1.96875q-0.671875 -0.8125 -1.859375 -0.8125q-1.1875 0 -1.9375 0.84375q-0.75 0.828125 -0.890625 2.296875l5.375 0q0 -1.515625 -0.6875 -2.328125zm-1.5625 8.515625q-2.203125 0 -3.484375 -1.40625q-1.28125 -1.421875 -1.28125 -3.875q0 -2.359375 1.234375 -3.828125q1.234375 -1.4687424 3.25 -1.4999924q1.890625 0 3.0 1.2968674q1.109375 1.296875 1.109375 3.453125q0 0.109375 -0.015625 0.40625q0 0.296875 0 0.421875l-6.984375 0q0.03125 1.734375 0.890625 2.71875q0.875 0.96875 2.34375 0.96875q1.609375 0 3.234375 -0.859375l0.25 1.25q-1.5625 0.953125 -3.546875 0.953125zm7.6245728 -10.390625l0 10.171875l-1.5625 0l0 -10.171875l1.5625 0zm0 -3.7031174l0 1.828125l-1.5625 0l0 -1.828125l1.5625 0zm6.7799683 12.546867q0.78125 0 1.375 -0.28125q0.59375 -0.28125 0.921875 -0.765625q0.34375 -0.484375 0.5 -1.09375q0.171875 -0.609375 0.171875 -1.3125l0 -0.75q0 -0.75 -0.171875 -1.375q-0.171875 -0.625 -0.515625 -1.125q-0.34375 -0.5 -0.921875 -0.765625q-0.578125 -0.28125 -1.359375 -0.28125q-0.640625 0 -1.171875 0.25q-0.515625 0.234375 -0.859375 0.625q-0.328125 0.390625 -0.5625 0.921875q-0.234375 0.515625 -0.34375 1.0625q-0.09375 0.53125 -0.09375 1.078125q0 0.53125 0.109375 1.0625q0.109375 0.53125 0.34375 1.03125q0.25 0.5 0.59375 0.875q0.34375 0.375 0.859375 0.609375q0.515625 0.234375 1.125 0.234375zm-2.390625 5.984375l-0.140625 -1.40625l1.890625 0q0.796875 0 1.375 -0.109375q0.59375 -0.109375 0.984375 -0.359375q0.390625 -0.25 0.625 -0.5625q0.25 -0.3125 0.375 -0.8125q0.125 -0.5 0.15625 -0.984375q0.046875 -0.484375 0.046875 -1.1875l0 -0.90625q-0.5625 0.796875 -1.296875 1.234375q-0.734375 0.421875 -1.859375 0.421875q-0.875 0 -1.609375 -0.296875q-0.734375 -0.296875 -1.25 -0.796875q-0.5 -0.5 -0.859375 -1.15625q-0.359375 -0.671875 -0.515625 -1.375q-0.15625 -0.703125 -0.15625 -1.421875q0 -1.109375 0.265625 -2.046875q0.28125 -0.953125 0.8125 -1.6875q0.53125 -0.75 1.40625 -1.171875q0.890625 -0.42186737 2.015625 -0.42186737q1.0 0 1.75 0.39061737q0.75 0.375 1.34375 1.171875l0 -1.34375l1.515625 0l0 9.4375q0 0.65625 -0.046875 1.140625q-0.03125 0.484375 -0.15625 1.078125q-0.125 0.59375 -0.34375 1.015625q-0.203125 0.4375 -0.59375 0.859375q-0.375 0.4375 -0.90625 0.703125q-0.53125 0.265625 -1.328125 0.421875q-0.78125 0.171875 -1.78125 0.171875l-1.71875 0zm9.250458 -4.65625l0 -10.171875l1.296875 0l0.203125 1.453125q0.59375 -0.75 1.5 -1.203125q0.90625 -0.46874237 1.953125 -0.46874237q1.765625 0 2.609375 0.9843674q0.84375 0.984375 0.84375 3.046875l0 6.359375l-1.546875 0q0 -6.125 -0.015625 -6.5625q-0.03125 -1.296875 -0.53125 -1.890625q-0.484375 -0.609375 -1.625 -0.609375q-1.1875 0 -1.984375 0.578125q-0.796875 0.578125 -1.046875 1.484375q-0.09375 0.625 -0.09375 1.4375l0 5.5625l-1.5625 0zm19.737518 0.21875q-2.234375 0 -3.5 -1.453125q-1.265625 -1.46875 -1.265625 -3.828125q0 -2.375 1.28125 -3.84375q1.296875 -1.4843674 3.53125 -1.4843674q0.78125 0 1.515625 0.20311737q0.75 0.1875 1.171875 0.5l-0.421875 1.203125q-1.09375 -0.578125 -2.296875 -0.578125q-1.46875 0 -2.328125 1.078125q-0.859375 1.078125 -0.859375 2.9375q0 1.8125 0.84375 2.875q0.84375 1.0625 2.359375 1.0625q1.1875 0 2.4375 -0.640625l0.203125 1.234375q-1.015625 0.734375 -2.671875 0.734375zm5.646118 -5.28125q0 1.8125 0.796875 2.90625q0.8125 1.078125 2.359375 1.078125q1.515625 0 2.28125 -1.078125q0.78125 -1.09375 0.78125 -2.921875q0 -1.875 -0.765625 -2.9375q-0.765625 -1.078125 -2.328125 -1.078125q-1.53125 0 -2.328125 1.09375q-0.796875 1.09375 -0.796875 2.9375zm7.828125 -0.03125q0 2.359375 -1.265625 3.84375q-1.265625 1.46875 -3.484375 1.46875q-2.140625 0 -3.40625 -1.484375q-1.265625 -1.484375 -1.265625 -3.8125q0 -2.375 1.265625 -3.84375q1.265625 -1.4687424 3.484375 -1.4687424q2.1875 0 3.421875 1.4687424q1.25 1.46875 1.25 3.828125zm5.9560547 3.96875q1.53125 0 2.28125 -0.984375q0.75 -0.984375 0.75 -2.8125q0 -2.0625 -0.71875 -3.09375q-0.71875 -1.046875 -2.328125 -1.046875q-0.71875 0 -1.265625 0.3125q-0.546875 0.296875 -0.890625 0.84375q-0.328125 0.546875 -0.5 1.265625q-0.171875 0.703125 -0.171875 1.546875q0 1.1875 0.296875 2.0625q0.296875 0.875 0.9375 1.390625q0.65625 0.515625 1.609375 0.515625zm3.046875 -0.34375q-0.5 0.765625 -1.34375 1.21875q-0.828125 0.453125 -1.84375 0.453125q-2.015625 0 -3.15625 -1.421875q-1.140625 -1.4375 -1.140625 -3.90625q0 -2.359375 1.15625 -3.8125q1.15625 -1.4531174 3.109375 -1.4531174q1.0 0 1.890625 0.43749237q0.90625 0.4375 1.359375 1.1875l-0.03125 -0.890625l0 -4.4687424l1.53125 -0.09375l0 14.218742l-1.328125 0l-0.203125 -1.46875zm9.875366 -6.828125q-0.671875 -0.8125 -1.859375 -0.8125q-1.1875 0 -1.9375 0.84375q-0.75 0.828125 -0.890625 2.296875l5.375 0q0 -1.515625 -0.6875 -2.328125zm-1.5625 8.515625q-2.203125 0 -3.484375 -1.40625q-1.28125 -1.421875 -1.28125 -3.875q0 -2.359375 1.234375 -3.828125q1.234375 -1.4687424 3.25 -1.4999924q1.890625 0 3.0 1.2968674q1.109375 1.296875 1.109375 3.453125q0 0.109375 -0.015625 0.40625q0 0.296875 0 0.421875l-6.984375 0q0.03125 1.734375 0.890625 2.71875q0.875 0.96875 2.34375 0.96875q1.609375 0 3.234375 -0.859375l0.25 1.25q-1.5625 0.953125 -3.546875 0.953125z" fill-rule="nonzero"></path><path fill="#f9cb9c" d="m611.5906 24.0l227.59052 0l0 73.22835l-227.59052 0z" fill-rule="nonzero"></path><path fill="#000000" d="m674.05237 67.53417l-1.609375 0l0 -13.71875l7.625 0l-0.0625 1.421875l-5.953125 0l0 4.8125l5.671875 0l0 1.359375l-5.671875 0l0 6.125zm8.717346 -5.0625q0 1.8125 0.796875 2.90625q0.8125 1.078125 2.359375 1.078125q1.515625 0 2.28125 -1.078125q0.78125 -1.09375 0.78125 -2.921875q0 -1.875 -0.765625 -2.9375q-0.765625 -1.078125 -2.328125 -1.078125q-1.53125 0 -2.328125 1.09375q-0.796875 1.09375 -0.796875 2.9375zm7.828125 -0.03125q0 2.359375 -1.265625 3.84375q-1.265625 1.46875 -3.484375 1.46875q-2.140625 0 -3.40625 -1.484375q-1.265625 -1.484375 -1.265625 -3.8125q0 -2.375 1.265625 -3.84375q1.265625 -1.46875 3.484375 -1.46875q2.1875 0 3.421875 1.46875q1.25 1.46875 1.25 3.828125zm6.5498657 -5.171875q0.421875 0 0.765625 0.046875l-0.0625 1.4375q-0.421875 -0.078125 -0.734375 -0.078125q-1.296875 0 -2.109375 0.90625q-0.8125 0.90625 -0.8125 2.234375l0 5.71875l-1.5625 0q0 -9.375 0 -10.171875l1.28125 0l0.15625 1.828125q0.53125 -0.875 1.34375 -1.390625q0.8125 -0.53125 1.734375 -0.53125zm8.09259 1.96875q-0.671875 -0.8125 -1.859375 -0.8125q-1.1875 0 -1.9375 0.84375q-0.75 0.828125 -0.890625 2.296875l5.375 0q0 -1.515625 -0.6875 -2.328125zm-1.5625 8.515625q-2.203125 0 -3.484375 -1.40625q-1.28125 -1.421875 -1.28125 -3.875q0 -2.359375 1.234375 -3.828125q1.234375 -1.46875 3.25 -1.5q1.890625 0 3.0 1.296875q1.109375 1.296875 1.109375 3.453125q0 0.109375 -0.015625 0.40625q0 0.296875 0 0.421875l-6.984375 0q0.03125 1.734375 0.890625 2.71875q0.875 0.96875 2.34375 0.96875q1.609375 0 3.234375 -0.859375l0.25 1.25q-1.5625 0.953125 -3.546875 0.953125zm7.6245728 -10.390625l0 10.171875l-1.5625 0l0 -10.171875l1.5625 0zm0 -3.703125l0 1.828125l-1.5625 0l0 -1.828125l1.5625 0zm6.779907 12.546875q0.78125 0 1.375 -0.28125q0.59375 -0.28125 0.921875 -0.765625q0.34375 -0.484375 0.5 -1.09375q0.171875 -0.609375 0.171875 -1.3125l0 -0.75q0 -0.75 -0.171875 -1.375q-0.171875 -0.625 -0.515625 -1.125q-0.34375 -0.5 -0.921875 -0.765625q-0.578125 -0.28125 -1.359375 -0.28125q-0.640625 0 -1.171875 0.25q-0.515625 0.234375 -0.859375 0.625q-0.328125 0.390625 -0.5625 0.921875q-0.234375 0.515625 -0.34375 1.0625q-0.09375 0.53125 -0.09375 1.078125q0 0.53125 0.109375 1.0625q0.109375 0.53125 0.34375 1.03125q0.25 0.5 0.59375 0.875q0.34375 0.375 0.859375 0.609375q0.515625 0.234375 1.125 0.234375zm-2.390625 5.984375l-0.140625 -1.40625l1.890625 0q0.796875 0 1.375 -0.109375q0.59375 -0.109375 0.984375 -0.359375q0.390625 -0.25 0.625 -0.5625q0.25 -0.3125 0.375 -0.8125q0.125 -0.5 0.15625 -0.984375q0.046875 -0.484375 0.046875 -1.1875l0 -0.90625q-0.5625 0.796875 -1.296875 1.234375q-0.734375 0.421875 -1.859375 0.421875q-0.875 0 -1.609375 -0.296875q-0.734375 -0.296875 -1.25 -0.796875q-0.5 -0.5 -0.859375 -1.15625q-0.359375 -0.671875 -0.515625 -1.375q-0.15625 -0.703125 -0.15625 -1.421875q0 -1.109375 0.265625 -2.046875q0.28125 -0.953125 0.8125 -1.6875q0.53125 -0.75 1.40625 -1.171875q0.890625 -0.421875 2.015625 -0.421875q1.0 0 1.75 0.390625q0.75 0.375 1.34375 1.171875l0 -1.34375l1.515625 0l0 9.4375q0 0.65625 -0.046875 1.140625q-0.03125 0.484375 -0.15625 1.078125q-0.125 0.59375 -0.34375 1.015625q-0.203125 0.4375 -0.59375 0.859375q-0.375 0.4375 -0.90625 0.703125q-0.53125 0.265625 -1.328125 0.421875q-0.78125 0.171875 -1.78125 0.171875l-1.71875 0zm9.250488 -4.65625l0 -10.171875l1.296875 0l0.203125 1.453125q0.59375 -0.75 1.5 -1.203125q0.90625 -0.46875 1.953125 -0.46875q1.765625 0 2.609375 0.984375q0.84375 0.984375 0.84375 3.046875l0 6.359375l-1.546875 0q0 -6.125 -0.015625 -6.5625q-0.03125 -1.296875 -0.53125 -1.890625q-0.484375 -0.609375 -1.625 -0.609375q-1.1875 0 -1.984375 0.578125q-0.796875 0.578125 -1.046875 1.484375q-0.09375 0.625 -0.09375 1.4375l0 5.5625l-1.5625 0zm19.737488 0.21875q-2.234375 0 -3.5 -1.453125q-1.265625 -1.46875 -1.265625 -3.828125q0 -2.375 1.28125 -3.84375q1.296875 -1.484375 3.53125 -1.484375q0.78125 0 1.515625 0.203125q0.75 0.1875 1.171875 0.5l-0.421875 1.203125q-1.09375 -0.578125 -2.296875 -0.578125q-1.46875 0 -2.328125 1.078125q-0.859375 1.078125 -0.859375 2.9375q0 1.8125 0.84375 2.875q0.84375 1.0625 2.359375 1.0625q1.1875 0 2.4375 -0.640625l0.203125 1.234375q-1.015625 0.734375 -2.671875 0.734375zm5.646118 -5.28125q0 1.8125 0.796875 2.90625q0.8125 1.078125 2.359375 1.078125q1.515625 0 2.28125 -1.078125q0.78125 -1.09375 0.78125 -2.921875q0 -1.875 -0.765625 -2.9375q-0.765625 -1.078125 -2.328125 -1.078125q-1.53125 0 -2.328125 1.09375q-0.796875 1.09375 -0.796875 2.9375zm7.828125 -0.03125q0 2.359375 -1.265625 3.84375q-1.265625 1.46875 -3.484375 1.46875q-2.140625 0 -3.40625 -1.484375q-1.265625 -1.484375 -1.265625 -3.8125q0 -2.375 1.265625 -3.84375q1.265625 -1.46875 3.484375 -1.46875q2.1875 0 3.421875 1.46875q1.25 1.46875 1.25 3.828125zm5.9561157 3.96875q1.53125 0 2.28125 -0.984375q0.75 -0.984375 0.75 -2.8125q0 -2.0625 -0.71875 -3.09375q-0.71875 -1.046875 -2.328125 -1.046875q-0.71875 0 -1.265625 0.3125q-0.546875 0.296875 -0.890625 0.84375q-0.328125 0.546875 -0.5 1.265625q-0.171875 0.703125 -0.171875 1.546875q0 1.1875 0.296875 2.0625q0.296875 0.875 0.9375 1.390625q0.65625 0.515625 1.609375 0.515625zm3.046875 -0.34375q-0.5 0.765625 -1.34375 1.21875q-0.828125 0.453125 -1.84375 0.453125q-2.015625 0 -3.15625 -1.421875q-1.140625 -1.4375 -1.140625 -3.90625q0 -2.359375 1.15625 -3.8125q1.15625 -1.453125 3.109375 -1.453125q1.0 0 1.890625 0.4375q0.90625 0.4375 1.359375 1.1875l-0.03125 -0.890625l0 -4.46875l1.53125 -0.09375l0 14.21875l-1.328125 0l-0.203125 -1.46875zm9.875366 -6.828125q-0.671875 -0.8125 -1.859375 -0.8125q-1.1875 0 -1.9375 0.84375q-0.75 0.828125 -0.890625 2.296875l5.375 0q0 -1.515625 -0.6875 -2.328125zm-1.5625 8.515625q-2.203125 0 -3.484375 -1.40625q-1.28125 -1.421875 -1.28125 -3.875q0 -2.359375 1.234375 -3.828125q1.234375 -1.46875 3.25 -1.5q1.890625 0 3.0 1.296875q1.109375 1.296875 1.109375 3.453125q0 0.109375 -0.015625 0.40625q0 0.296875 0 0.421875l-6.984375 0q0.03125 1.734375 0.890625 2.71875q0.875 0.96875 2.34375 0.96875q1.609375 0 3.234375 -0.859375l0.25 1.25q-1.5625 0.953125 -3.546875 0.953125z" fill-rule="nonzero"></path><path fill="#f9cb9c" d="m611.5906 94.761826l227.59052 0l0 73.22835l-227.59052 0z" fill-rule="nonzero"></path><path fill="#000000" d="m674.05237 138.29599l-1.609375 0l0 -13.718742l7.625 0l-0.0625 1.421875l-5.953125 0l0 4.8124924l5.671875 0l0 1.359375l-5.671875 0l0 6.125zm8.717346 -5.0625q0 1.8125 0.796875 2.90625q0.8125 1.078125 2.359375 1.078125q1.515625 0 2.28125 -1.078125q0.78125 -1.09375 0.78125 -2.921875q0 -1.875 -0.765625 -2.9375q-0.765625 -1.078125 -2.328125 -1.078125q-1.53125 0 -2.328125 1.09375q-0.796875 1.09375 -0.796875 2.9375zm7.828125 -0.03125q0 2.359375 -1.265625 3.84375q-1.265625 1.46875 -3.484375 1.46875q-2.140625 0 -3.40625 -1.484375q-1.265625 -1.484375 -1.265625 -3.8125q0 -2.375 1.265625 -3.84375q1.265625 -1.4687424 3.484375 -1.4687424q2.1875 0 3.421875 1.4687424q1.25 1.46875 1.25 3.828125zm6.5498657 -5.171875q0.421875 0 0.765625 0.046875l-0.0625 1.4375q-0.421875 -0.078125 -0.734375 -0.078125q-1.296875 0 -2.109375 0.90625q-0.8125 0.90625 -0.8125 2.234375l0 5.71875l-1.5625 0q0 -9.375 0 -10.171875l1.28125 0l0.15625 1.828125q0.53125 -0.875 1.34375 -1.390625q0.8125 -0.53125 1.734375 -0.53125zm8.09259 1.96875q-0.671875 -0.8125 -1.859375 -0.8125q-1.1875 0 -1.9375 0.84375q-0.75 0.828125 -0.890625 2.296875l5.375 0q0 -1.515625 -0.6875 -2.328125zm-1.5625 8.515625q-2.203125 0 -3.484375 -1.40625q-1.28125 -1.421875 -1.28125 -3.875q0 -2.359375 1.234375 -3.828125q1.234375 -1.4687424 3.25 -1.4999924q1.890625 0 3.0 1.2968674q1.109375 1.296875 1.109375 3.453125q0 0.109375 -0.015625 0.40625q0 0.296875 0 0.421875l-6.984375 0q0.03125 1.734375 0.890625 2.71875q0.875 0.96875 2.34375 0.96875q1.609375 0 3.234375 -0.859375l0.25 1.25q-1.5625 0.953125 -3.546875 0.953125zm7.6245728 -10.390625l0 10.171875l-1.5625 0l0 -10.171875l1.5625 0zm0 -3.7031174l0 1.828125l-1.5625 0l0 -1.828125l1.5625 0zm6.779907 12.546867q0.78125 0 1.375 -0.28125q0.59375 -0.28125 0.921875 -0.765625q0.34375 -0.484375 0.5 -1.09375q0.171875 -0.609375 0.171875 -1.3125l0 -0.75q0 -0.75 -0.171875 -1.375q-0.171875 -0.625 -0.515625 -1.125q-0.34375 -0.5 -0.921875 -0.765625q-0.578125 -0.28125 -1.359375 -0.28125q-0.640625 0 -1.171875 0.25q-0.515625 0.234375 -0.859375 0.625q-0.328125 0.390625 -0.5625 0.921875q-0.234375 0.515625 -0.34375 1.0625q-0.09375 0.53125 -0.09375 1.078125q0 0.53125 0.109375 1.0625q0.109375 0.53125 0.34375 1.03125q0.25 0.5 0.59375 0.875q0.34375 0.375 0.859375 0.609375q0.515625 0.234375 1.125 0.234375zm-2.390625 5.984375l-0.140625 -1.40625l1.890625 0q0.796875 0 1.375 -0.109375q0.59375 -0.109375 0.984375 -0.359375q0.390625 -0.25 0.625 -0.5625q0.25 -0.3125 0.375 -0.8125q0.125 -0.5 0.15625 -0.984375q0.046875 -0.484375 0.046875 -1.1875l0 -0.90625q-0.5625 0.796875 -1.296875 1.234375q-0.734375 0.421875 -1.859375 0.421875q-0.875 0 -1.609375 -0.296875q-0.734375 -0.296875 -1.25 -0.796875q-0.5 -0.5 -0.859375 -1.15625q-0.359375 -0.671875 -0.515625 -1.375q-0.15625 -0.703125 -0.15625 -1.421875q0 -1.109375 0.265625 -2.046875q0.28125 -0.953125 0.8125 -1.6875q0.53125 -0.75 1.40625 -1.171875q0.890625 -0.42186737 2.015625 -0.42186737q1.0 0 1.75 0.39061737q0.75 0.375 1.34375 1.171875l0 -1.34375l1.515625 0l0 9.4375q0 0.65625 -0.046875 1.140625q-0.03125 0.484375 -0.15625 1.078125q-0.125 0.59375 -0.34375 1.015625q-0.203125 0.4375 -0.59375 0.859375q-0.375 0.4375 -0.90625 0.703125q-0.53125 0.265625 -1.328125 0.421875q-0.78125 0.171875 -1.78125 0.171875l-1.71875 0zm9.250488 -4.65625l0 -10.171875l1.296875 0l0.203125 1.453125q0.59375 -0.75 1.5 -1.203125q0.90625 -0.46874237 1.953125 -0.46874237q1.765625 0 2.609375 0.9843674q0.84375 0.984375 0.84375 3.046875l0 6.359375l-1.546875 0q0 -6.125 -0.015625 -6.5625q-0.03125 -1.296875 -0.53125 -1.890625q-0.484375 -0.609375 -1.625 -0.609375q-1.1875 0 -1.984375 0.578125q-0.796875 0.578125 -1.046875 1.484375q-0.09375 0.625 -0.09375 1.4375l0 5.5625l-1.5625 0zm19.737488 0.21875q-2.234375 0 -3.5 -1.453125q-1.265625 -1.46875 -1.265625 -3.828125q0 -2.375 1.28125 -3.84375q1.296875 -1.4843674 3.53125 -1.4843674q0.78125 0 1.515625 0.20311737q0.75 0.1875 1.171875 0.5l-0.421875 1.203125q-1.09375 -0.578125 -2.296875 -0.578125q-1.46875 0 -2.328125 1.078125q-0.859375 1.078125 -0.859375 2.9375q0 1.8125 0.84375 2.875q0.84375 1.0625 2.359375 1.0625q1.1875 0 2.4375 -0.640625l0.203125 1.234375q-1.015625 0.734375 -2.671875 0.734375zm5.646118 -5.28125q0 1.8125 0.796875 2.90625q0.8125 1.078125 2.359375 1.078125q1.515625 0 2.28125 -1.078125q0.78125 -1.09375 0.78125 -2.921875q0 -1.875 -0.765625 -2.9375q-0.765625 -1.078125 -2.328125 -1.078125q-1.53125 0 -2.328125 1.09375q-0.796875 1.09375 -0.796875 2.9375zm7.828125 -0.03125q0 2.359375 -1.265625 3.84375q-1.265625 1.46875 -3.484375 1.46875q-2.140625 0 -3.40625 -1.484375q-1.265625 -1.484375 -1.265625 -3.8125q0 -2.375 1.265625 -3.84375q1.265625 -1.4687424 3.484375 -1.4687424q2.1875 0 3.421875 1.4687424q1.25 1.46875 1.25 3.828125zm5.9561157 3.96875q1.53125 0 2.28125 -0.984375q0.75 -0.984375 0.75 -2.8125q0 -2.0625 -0.71875 -3.09375q-0.71875 -1.046875 -2.328125 -1.046875q-0.71875 0 -1.265625 0.3125q-0.546875 0.296875 -0.890625 0.84375q-0.328125 0.546875 -0.5 1.265625q-0.171875 0.703125 -0.171875 1.546875q0 1.1875 0.296875 2.0625q0.296875 0.875 0.9375 1.390625q0.65625 0.515625 1.609375 0.515625zm3.046875 -0.34375q-0.5 0.765625 -1.34375 1.21875q-0.828125 0.453125 -1.84375 0.453125q-2.015625 0 -3.15625 -1.421875q-1.140625 -1.4375 -1.140625 -3.90625q0 -2.359375 1.15625 -3.8125q1.15625 -1.4531174 3.109375 -1.4531174q1.0 0 1.890625 0.43749237q0.90625 0.4375 1.359375 1.1875l-0.03125 -0.890625l0 -4.4687424l1.53125 -0.09375l0 14.218742l-1.328125 0l-0.203125 -1.46875zm9.875366 -6.828125q-0.671875 -0.8125 -1.859375 -0.8125q-1.1875 0 -1.9375 0.84375q-0.75 0.828125 -0.890625 2.296875l5.375 0q0 -1.515625 -0.6875 -2.328125zm-1.5625 8.515625q-2.203125 0 -3.484375 -1.40625q-1.28125 -1.421875 -1.28125 -3.875q0 -2.359375 1.234375 -3.828125q1.234375 -1.4687424 3.25 -1.4999924q1.890625 0 3.0 1.2968674q1.109375 1.296875 1.109375 3.453125q0 0.109375 -0.015625 0.40625q0 0.296875 0 0.421875l-6.984375 0q0.03125 1.734375 0.890625 2.71875q0.875 0.96875 2.34375 0.96875q1.609375 0 3.234375 -0.859375l0.25 1.25q-1.5625 0.953125 -3.546875 0.953125z" fill-rule="nonzero"></path><path fill="#efefef" d="m272.0 47.0368l72.0 0l0 -12.0l24.0 24.0l-24.0 24.000004l0 -12.0l-72.0 0z" fill-rule="nonzero"></path><path stroke="#666666" stroke-width="2.0" stroke-linejoin="round" stroke-linecap="butt" d="m272.0 47.0368l72.0 0l0 -12.0l24.0 24.0l-24.0 24.000004l0 -12.0l-72.0 0z" fill-rule="nonzero"></path><path fill="#000000" fill-opacity="0.0" d="m384.0 24.0l456.0 0l0 144.0l-456.0 0z" fill-rule="nonzero"></path><path stroke="#e69138" stroke-width="4.0" stroke-linejoin="round" stroke-linecap="butt" d="m384.0 24.0l456.0 0l0 144.0l-456.0 0z" fill-rule="nonzero"></path><path fill="#f9cb9c" d="m384.0 24.0l227.59058 0l0 73.22835l-227.59058 0z" fill-rule="nonzero"></path><path stroke="#e69138" stroke-width="4.0" stroke-linejoin="round" stroke-linecap="butt" d="m384.0 24.0l227.59058 0l0 73.22835l-227.59058 0z" fill-rule="nonzero"></path><path fill="#000000" d="m430.9306 67.53417l0 -11.578125l-3.96875 0l0 -2.015625l10.4375 0l0 2.015625l-3.953125 0l0 11.578125l-2.515625 0zm7.6503906 0l0 -10.203125l2.03125 0l0.3125 1.5625q1.015625 -1.609375 2.90625 -1.609375q0.40625 0 0.65625 0.046875l-0.046875 2.03125q-0.359375 -0.0625 -0.765625 -0.0625q-1.34375 0 -2.015625 0.71875q-0.65625 0.71875 -0.65625 1.984375l0 5.53125l-2.421875 0zm9.941254 0.1875q-1.421875 0 -2.296875 -0.78125q-0.875 -0.78125 -0.875 -2.25q0 -1.59375 1.03125 -2.359375q1.046875 -0.765625 3.140625 -0.96875q0.296875 -0.03125 0.625 -0.0625q0.328125 -0.046875 0.75 -0.078125q0.421875 -0.046875 0.65625 -0.078125l0 -0.53125q0 -0.921875 -0.421875 -1.34375q-0.421875 -0.421875 -1.296875 -0.421875q-1.25 0 -3.078125 0.6875q0 -0.03125 -0.296875 -0.84375q-0.296875 -0.8125 -0.3125 -0.828125q1.796875 -0.78125 3.90625 -0.78125q2.046875 0 2.984375 0.90625q0.9375 0.890625 0.9375 2.890625l0 6.65625l-1.796875 0q0 -0.03125 -0.203125 -0.609375q-0.1875 -0.59375 -0.1875 -0.640625q-0.765625 0.75 -1.5 1.09375q-0.71875 0.34375 -1.765625 0.34375zm0.65625 -1.71875q0.84375 0 1.46875 -0.40625q0.640625 -0.40625 0.90625 -0.96875l0 -1.96875q-0.03125 0 -0.5 0.03125q-0.453125 0.03125 -0.484375 0.03125q-1.484375 0.140625 -2.171875 0.5625q-0.671875 0.421875 -0.671875 1.375q0 0.640625 0.375 1.0q0.375 0.34375 1.078125 0.34375zm7.0592957 1.53125l0 -10.203125l1.953125 0l0.265625 1.296875q1.5625 -1.546875 3.46875 -1.546875q1.78125 0 2.65625 1.03125q0.890625 1.03125 0.890625 2.96875l0 6.453125l-2.4375 0l0 -6.15625q0 -1.234375 -0.390625 -1.84375q-0.390625 -0.609375 -1.40625 -0.609375q-0.78125 0 -1.4375 0.40625q-0.65625 0.40625 -0.953125 1.015625q-0.171875 0.71875 -0.171875 2.21875l0 4.96875l-2.4375 0zm14.673309 0.1875q-2.25 0 -3.609375 -0.765625l0.25 -1.828125q0.625 0.328125 1.5625 0.59375q0.953125 0.265625 1.734375 0.265625q0.796875 0 1.25 -0.296875q0.453125 -0.3125 0.453125 -0.890625q0 -0.53125 -0.421875 -0.828125q-0.421875 -0.3125 -1.609375 -0.765625q-0.40625 -0.15625 -0.515625 -0.203125q-1.421875 -0.546875 -2.046875 -1.21875q-0.609375 -0.671875 -0.609375 -1.828125q0 -1.390625 1.0 -2.125q1.015625 -0.75 2.8125 -0.75q1.953125 0 3.421875 0.734375l-0.609375 1.6875q-1.453125 -0.6875 -2.765625 -0.6875q-0.734375 0 -1.15625 0.25q-0.40625 0.25 -0.40625 0.75q0 0.46875 0.390625 0.734375q0.40625 0.265625 1.5625 0.6875q0.046875 0.015625 0.25 0.09375q0.203125 0.078125 0.3125 0.109375q1.40625 0.515625 2.0625 1.234375q0.65625 0.703125 0.65625 1.84375q-0.015625 1.53125 -1.046875 2.375q-1.015625 0.828125 -2.921875 0.828125zm9.300964 -0.046875q-1.0625 0 -1.75 -0.25q-0.6875 -0.25 -1.09375 -0.78125q-0.390625 -0.53125 -0.546875 -1.265625q-0.15625 -0.75 -0.15625 -1.859375l0 -9.9375l2.421875 -0.15625l0 10.046875q0 1.375 0.328125 1.859375q0.328125 0.484375 1.265625 0.484375q0.46875 0 1.171875 -0.09375l0.0625 1.734375q0 0 -0.21875 0.046875q-0.21875 0.046875 -0.421875 0.078125q-0.203125 0.03125 -0.515625 0.0625q-0.296875 0.03125 -0.546875 0.03125zm5.486023 0.046875q-1.421875 0 -2.296875 -0.78125q-0.875 -0.78125 -0.875 -2.25q0 -1.59375 1.03125 -2.359375q1.046875 -0.765625 3.140625 -0.96875q0.296875 -0.03125 0.625 -0.0625q0.328125 -0.046875 0.75 -0.078125q0.421875 -0.046875 0.65625 -0.078125l0 -0.53125q0 -0.921875 -0.421875 -1.34375q-0.421875 -0.421875 -1.296875 -0.421875q-1.25 0 -3.078125 0.6875q0 -0.03125 -0.296875 -0.84375q-0.296875 -0.8125 -0.3125 -0.828125q1.796875 -0.78125 3.90625 -0.78125q2.046875 0 2.984375 0.90625q0.9375 0.890625 0.9375 2.890625l0 6.65625l-1.796875 0q0 -0.03125 -0.203125 -0.609375q-0.1875 -0.59375 -0.1875 -0.640625q-0.765625 0.75 -1.5 1.09375q-0.71875 0.34375 -1.765625 0.34375zm0.65625 -1.71875q0.84375 0 1.46875 -0.40625q0.640625 -0.40625 0.90625 -0.96875l0 -1.96875q-0.03125 0 -0.5 0.03125q-0.453125 0.03125 -0.484375 0.03125q-1.484375 0.140625 -2.171875 0.5625q-0.671875 0.421875 -0.671875 1.375q0 0.640625 0.375 1.0q0.375 0.34375 1.078125 0.34375zm11.137421 1.671875q-1.046875 0 -1.734375 -0.25q-0.6875 -0.25 -1.078125 -0.765625q-0.390625 -0.53125 -0.5625 -1.25q-0.15625 -0.71875 -0.15625 -1.78125l0 -4.8125l-1.671875 0l0.09375 -1.3125l1.75 -0.171875l0.78125 -2.75l1.484375 -0.015625l0 2.765625l2.53125 0l0 1.484375l-2.53125 0l0 4.859375q0 1.15625 0.328125 1.65625q0.328125 0.484375 1.234375 0.484375q0.53125 0 1.125 -0.09375l0.078125 1.75q-0.03125 0 -0.234375 0.046875q-0.203125 0.03125 -0.40625 0.0625q-0.1875 0.03125 -0.484375 0.0625q-0.296875 0.03125 -0.546875 0.03125zm7.9555664 0.046875q-2.46875 0 -3.84375 -1.40625q-1.359375 -1.421875 -1.359375 -3.90625q0 -2.4375 1.28125 -3.875q1.296875 -1.4375 3.53125 -1.453125q2.09375 0 3.25 1.328125q1.171875 1.3125 1.171875 3.5q0 0.15625 0 0.515625q0 0.34375 0 0.5l-6.78125 0q0.03125 1.4375 0.78125 2.21875q0.75 0.78125 2.0625 0.78125q1.65625 0 3.203125 -0.875l0.34375 1.734375q-1.53125 0.9375 -3.640625 0.9375zm-2.703125 -6.3125l4.453125 0q0 -1.25 -0.578125 -1.921875q-0.5625 -0.671875 -1.5625 -0.671875q-0.9375 0 -1.578125 0.65625q-0.640625 0.65625 -0.734375 1.9375zm12.320923 6.3125q-2.0 0 -3.140625 -1.453125q-1.140625 -1.46875 -1.140625 -3.921875q0 -2.375 1.140625 -3.8125q1.140625 -1.453125 3.125 -1.453125q2.171875 0 3.078125 1.546875q-0.09375 -0.90625 -0.09375 -1.75l0 -3.296875l2.421875 -0.15625l0 14.109375l-2.09375 0l-0.28125 -1.390625q-0.15625 0.25 -0.296875 0.4375q-0.125 0.171875 -0.390625 0.40625q-0.25 0.234375 -0.5625 0.390625q-0.296875 0.140625 -0.765625 0.234375q-0.453125 0.109375 -1.0 0.109375zm0.578125 -1.84375q2.4375 0 2.484375 -3.328125q0 -1.875 -0.640625 -2.734375q-0.625 -0.875 -1.875 -0.875q-1.09375 0 -1.75 0.875q-0.65625 0.875 -0.65625 2.59375q0 1.6875 0.65625 2.578125q0.65625 0.890625 1.78125 0.890625zm16.490845 1.84375q-2.34375 0 -3.65625 -1.390625q-1.296875 -1.390625 -1.296875 -3.96875q0 -2.515625 1.359375 -3.890625q1.375 -1.390625 3.609375 -1.390625q1.796875 0 3.03125 0.78125l-0.578125 1.734375q-1.265625 -0.65625 -2.34375 -0.65625q-1.234375 0 -1.953125 0.875q-0.703125 0.875 -0.703125 2.5625q0 1.71875 0.703125 2.609375q0.703125 0.890625 1.984375 0.890625q1.328125 0 2.5625 -0.796875l0.234375 1.84375q-0.640625 0.4375 -1.328125 0.609375q-0.6875 0.1875 -1.625 0.1875zm9.151123 -1.84375q1.234375 0 1.859375 -0.890625q0.625 -0.90625 0.625 -2.578125q0 -1.703125 -0.625 -2.59375q-0.625 -0.890625 -1.875 -0.890625q-1.234375 0 -1.859375 0.90625q-0.625 0.890625 -0.625 2.578125q0 1.671875 0.625 2.578125q0.640625 0.890625 1.875 0.890625zm-0.0625 1.84375q-2.265625 0 -3.5625 -1.453125q-1.296875 -1.46875 -1.296875 -3.859375q0 -2.46875 1.296875 -3.890625q1.296875 -1.4375 3.671875 -1.4375q2.28125 0 3.5625 1.453125q1.296875 1.453125 1.296875 3.875q0 2.4375 -1.3125 3.875q-1.296875 1.4375 -3.65625 1.4375zm10.55365 0q-2.0 0 -3.140625 -1.453125q-1.140625 -1.46875 -1.140625 -3.921875q0 -2.375 1.140625 -3.8125q1.140625 -1.453125 3.125 -1.453125q2.171875 0 3.078125 1.546875q-0.09375 -0.90625 -0.09375 -1.75l0 -3.296875l2.421875 -0.15625l0 14.109375l-2.09375 0l-0.28125 -1.390625q-0.15625 0.25 -0.296875 0.4375q-0.125 0.171875 -0.390625 0.40625q-0.25 0.234375 -0.5625 0.390625q-0.296875 0.140625 -0.765625 0.234375q-0.453125 0.109375 -1.0 0.109375zm0.578125 -1.84375q2.4375 0 2.484375 -3.328125q0 -1.875 -0.640625 -2.734375q-0.625 -0.875 -1.875 -0.875q-1.09375 0 -1.75 0.875q-0.65625 0.875 -0.65625 2.59375q0 1.6875 0.65625 2.578125q0.65625 0.890625 1.78125 0.890625zm11.812622 1.84375q-2.46875 0 -3.84375 -1.40625q-1.359375 -1.421875 -1.359375 -3.90625q0 -2.4375 1.28125 -3.875q1.296875 -1.4375 3.53125 -1.453125q2.09375 0 3.25 1.328125q1.171875 1.3125 1.171875 3.5q0 0.15625 0 0.515625q0 0.34375 0 0.5l-6.78125 0q0.03125 1.4375 0.78125 2.21875q0.75 0.78125 2.0625 0.78125q1.65625 0 3.203125 -0.875l0.34375 1.734375q-1.53125 0.9375 -3.640625 0.9375zm-2.703125 -6.3125l4.453125 0q0 -1.25 -0.578125 -1.921875q-0.5625 -0.671875 -1.5625 -0.671875q-0.9375 0 -1.578125 0.65625q-0.640625 0.65625 -0.734375 1.9375z" fill-rule="nonzero"></path></g></svg>

